<svg preserveAspectRatio="xMidYMid meet" data-bbox="-0.035 -0.025 346.895 59.425" viewBox="-0.035 -0.025 346.895 59.425" xmlns="http://www.w3.org/2000/svg" data-type="color" role="img">
    <g>
        <path fill="#ffffff" d="M106.92.94V21.9H83.94V.94H68.86v57h15.08V34.99h22.98v22.95H122v-57h-15.08z" data-color="1"></path>
        <path fill="#ffffff" d="M211.39 58.45h16.12V47.26l-16.12-19.48v30.67z" data-color="1"></path>
        <path fill="#ffffff" d="M249.61.94v11.19l16.12 19.48V.94h-16.12z" data-color="1"></path>
        <path fill="#ffffff" d="M211.39.94v8.15l40.86 49.36h13.48V50.3L224.87.94h-13.48z" data-color="1"></path>
        <path fill="#ffffff" d="M321.94 1.13h-16.56l-24.65 57.13 15.98-.35 16.55-40.21 16.73 40.08 16.87.11-24.92-56.76z" data-color="1"></path>
        <path d="M166.69 15.08a14.62 14.62 0 11-14.62 14.62 14.61 14.61 0 0114.62-14.62m0-15.08a29.7 29.7 0 1029.7 29.7A29.73 29.73 0 00166.69 0z" fill="#ffffff" data-color="1"></path>
        <path d="M42.33 37a14.62 14.62 0 110-14.65l11.53-9.9a29.7 29.7 0 100 34.45z" fill="#ffffff" data-color="1"></path>
    </g>
</svg>