<svg preserveAspectRatio="xMidYMid meet" data-bbox="0 0 955.83 495.57" viewBox="0 0 955.83 495.57" xmlns="http://www.w3.org/2000/svg" data-type="color" role="img">
    <g>
        <path d="M176.28 320.54c-11.85-11.34-29.5-17.65-44.89-17.65-37.83 0-60.77 28.75-60.77 65.07 0 29 16.89 59 60.77 59 13.87 0 26-3 39.85-14.12v-31.26H126.1v-29.76h75.66v74.39C184.35 446.14 162.41 458 131.39 458c-66.32 0-93.31-43.63-93.31-90 0-49.68 31-95.58 93.31-95.58a93.24 93.24 0 0165.57 27z" fill="#ffffff" data-color="1"></path>
        <path d="M325.33 329.62h29.51V454h-29l-1.51-18.16c-7.06 14.63-26.48 21.69-40.35 21.94-36.82.25-64.06-22.45-64.06-66.08 0-42.87 28.5-65.31 64.82-65.06 16.64 0 32.53 7.82 39.59 20.17zm-74.65 62c0 23.71 16.39 37.83 36.82 37.83 48.42 0 48.42-75.4 0-75.4-20.43.04-36.82 13.95-36.82 37.61z" fill="#ffffff" data-color="1"></path>
        <path d="M409.31 329.62l2.27 14.38c9.58-15.38 22.45-17.65 35.06-17.65 12.86 0 25.22 5 32 11.85l-13.87 26.73c-6.3-5.29-12.1-8.07-22.19-8.07-16.14 0-31 8.58-31 31.53V454h-30.77V329.62z" fill="#ffffff" data-color="1"></path>
        <path d="M619.39 277.67V454h-28.75l-2-17.15c-9.58 14.88-25 19.92-40.1 19.92-36.57 0-64.06-24.21-64.06-65.07 0-42.87 27-65.06 63.3-65.06 13.12 0 33.55 7.06 40.86 19.92v-68.89zm-104.16 114c0 21.69 15.64 36.57 35.31 36.57 19.42 0 36.06-14.12 36.06-36.57 0-21.69-16.64-36.31-36.06-36.31-19.67-.01-35.31 13.86-35.31 36.3z" fill="#ffffff" data-color="1"></path>
        <path d="M675.12 402.76c2 15.38 15.38 26.48 37.07 26.48 11.35 0 26.23-4.29 33.29-11.6l19.67 19.42c-13.11 13.62-34.55 20.17-53.46 20.17-42.87 0-68.35-26.48-68.35-66.32 0-37.83 25.73-65.07 66.08-65.07 41.61 0 67.59 25.72 62.8 76.92zm67.59-25.47c-2-16.14-14.63-24.21-32.28-24.21-16.65 0-30.27 8.07-34.81 24.21z" fill="#ffffff" data-color="1"></path>
        <path d="M887.47 454v-65.11c0-18.92-10.34-33.29-30-33.29-18.92 0-31.78 15.89-31.78 34.8V454h-30.53V329.37h27.49l2 16.9c12.61-12.36 25.22-18.66 40.86-18.66 29.25 0 52.71 21.94 52.71 61V454z" fill="#ffffff" data-color="1"></path>
        <path d="M37.83 214.37V38.08h126.85v32H71.12v48.17h88.52v30.77H71.12v65.32z" fill="#ffffff" data-color="1"></path>
        <path d="M218.91 55c0 24-36.32 24-36.32 0s36.32-24 36.32 0zm-33.55 34.53v124.84h30.77V89.53z" fill="#ffffff" data-color="1"></path>
        <path d="M272.37 90l2.27 14.37c9.58-15.38 22.44-17.65 35.05-17.65 12.87 0 25.22 5 32 11.85l-13.87 26.73c-6.3-5.29-12.1-8.07-22.19-8.07-16.14 0-31 8.58-31 31.53v65.57h-30.76V90z" fill="#ffffff" data-color="1"></path>
        <path d="M379.55 163.17c2 15.39 15.39 26.48 37.07 26.48 11.35 0 26.23-4.28 33.29-11.6l19.67 19.42c-13.11 13.62-34.55 20.18-53.46 20.18-42.87 0-68.34-26.48-68.34-66.33 0-37.83 25.72-65.07 66.07-65.07 41.61 0 67.59 25.73 62.8 76.92zm67.59-25.47c-2-16.14-14.63-24.21-32.28-24.21-16.65 0-30.26 8.07-34.8 24.21z" fill="#ffffff" data-color="1"></path>
        <path d="M875.33 130.75c-.71.06-1.32.18-2 .29a21.55 21.55 0 00-4 .82 13.55 13.55 0 00-1.79.68 22.89 22.89 0 00-3 1.53c-.45.28-.9.55-1.31.84a26.53 26.53 0 00-2.54 2.1c-.2.19-.42.37-.6.56a25.66 25.66 0 00-2.39 2.79c-.37.5-.69.91-.87 1.19a3.46 3.46 0 01-.29.41s-.06 0 0 0c-.52-2.18 2.34-33.78-18.17-38.48-23.57-5.43-31.33-12.24-34.13-25.3-.37 1.82-7.75 24.33 2.63 32.44a42.34 42.34 0 017 7c.37.46.77.93 1.1 1.43a23.7 23.7 0 013.31 6.23c.1.35.13.62.2 1a13.08 13.08 0 01.43 4.85 5.74 5.74 0 010 .74 7.37 7.37 0 01-1.79 3.68c-.08.12-.07.29-.15.37s-.31.09-.42.15a5.94 5.94 0 01-3.5 1.62c-12.33.91-15-14-14.3-19.56a.68.68 0 00-.82-.74 18.41 18.41 0 00-4.51 1.64 11.12 11.12 0 00-1.57 1 21.77 21.77 0 00-3.28 2.41c-.44.44-.85.9-1.26 1.35a21.12 21.12 0 00-4.29 6.49c-7.57 19.43 20.72 30 14.68 44a7.25 7.25 0 01-1.47 2.25c-.13.13-.31.12-.45.22a3.2 3.2 0 01-1.14.63 4.92 4.92 0 01-1.55.49 5.38 5.38 0 01-1.33 0 8.85 8.85 0 01-1.78-.34 13.92 13.92 0 01-1.43-.46c-.65-.26-1.2-.54-1.85-.86a9.88 9.88 0 01-1.36-.78 16.38 16.38 0 01-1.75-1.13 14.9 14.9 0 01-1.23-.88c-.56-.41-1-.78-1.51-1.16-.33-.28-.65-.52-1-.8a12.41 12.41 0 01-1-.91c-.23-.23-.48-.44-.64-.59l-.62-.62a75.19 75.19 0 001.4 11.44c.21 1 .46 2 .71 3A48.28 48.28 0 00782 191a8.25 8.25 0 00.45 1.08c.17.4.31.87.48 1.26a45 45 0 004.56 7.56c.34.42.71.75 1 1.13a38.16 38.16 0 004.86 4.9c.61.51 1.26 1.05 1.92 1.52a40.12 40.12 0 005.39 3.33c.51.27 1 .56 1.47.82h.06a44.46 44.46 0 007.36 2.54c.65.16 1.31.23 2 .39a51.18 51.18 0 006.09.77c.78.05 1.55.1 2.38.1a52 52 0 007.15-.33c.32-.05.61-.05.92-.09a54.22 54.22 0 007.86-1.83c.75-.24 1.52-.52 2.26-.79a53.07 53.07 0 005.64-2.37 15.09 15.09 0 002.13-1.06 48.07 48.07 0 006.86-4.38c.29-.19.53-.47.82-.67a46.64 46.64 0 004.92-4.62 44.5 44.5 0 003.55-4.37 35.43 35.43 0 002.33-3.24c.13-.19.19-.42.3-.62a35.51 35.51 0 002.32-4.71 32.8 32.8 0 001.56-3.58 41.52 41.52 0 001.48-6.63c.22-1.19.57-2.24.7-3.46a51.07 51.07 0 00-.22-11.21 33.21 33.21 0 01-.17-6c0-.66.15-1.25.21-1.87.15-1.29.36-2.55.61-3.77.16-.64.31-1.28.52-1.91.32-1.1.66-2.18 1.07-3.22.2-.56.43-1.09.67-1.64.47-1.08 1-2.09 1.51-3l.58-1.08c.75-1.27 1.51-2.43 2.25-3.44a.88.88 0 01.2-.25 25 25 0 011.89-2.35 7.19 7.19 0 01.52-.57c.22-.26.51-.59.72-.81s.11-.07.22-.18a.69.69 0 00-.35-1.19 29 29 0 00-5.72-.41z" fill="#d22e2e" data-color="2"></path>
        <path d="M853.9 144.67c4.75 9.17-1.09-3.08-1.09 7.43 0 19.37-18.35 35.12-40.9 35.12a45.3 45.3 0 01-23.53-6.48c4 15.73 20.37 27.55 39.89 27.55 22.55 0 40.9-15.75 40.9-35.12s-.48-15.12-15.27-28.5z" style="isolation:isolate" opacity=".1" fill="#000000" data-color="3"></path>
        <path d="M792.11 136a25.05 25.05 0 003.89 5.36 21.81 21.81 0 0017.72 6.7 15.86 15.86 0 008-3A10.67 10.67 0 00826 141a18 18 0 003.06-7 11.09 11.09 0 00.25-2.16 23.26 23.26 0 00-.66-7.84 14.78 14.78 0 00-.4-1.69 2 2 0 00-.07-.23 33.14 33.14 0 00-4.63-8.92 22 22 0 00-1.41-1.86l-.14-.3c-.54-.67-1.08-1.32-1.64-2a120.29 120.29 0 0015.7 4.61c1.51.34 5.5 1.26 8 9.48 1.86 6.11 1.93 13.17 2 16.56a26.42 26.42 0 00.21 3.87 10.47 10.47 0 0014.3 8.07c-.08.54-.15 1.09-.22 1.64v.73c-.05.43-.13 1-.17 1.71v.07a43.91 43.91 0 00.23 7.91v.09a40.41 40.41 0 01.19 8.75c0 .16-.11.51-.17.77-.13.52-.28 1.17-.42 1.91v.1l-.08.42a30.31 30.31 0 01-1 4.52c0 .1-.07.2-.1.3s-.34.78-.57 1.26-.37.76-.54 1.15l-.09.2a29.75 29.75 0 01-1.61 3.36l-.18.29c-.15.27-.28.52-.39.74s-.55.76-.88 1.19l-.65.85-.25.34a35.6 35.6 0 01-2.45 3l-.11.11c-.38.41-.76.8-1.12 1.16a32.25 32.25 0 01-2.56 2.33c-.37.28-.66.54-.87.72a37.33 37.33 0 01-5.4 3.42l-.49.29a6.39 6.39 0 01-.73.34l-.52.23a42.79 42.79 0 01-4.57 1.92h-.05c-.65.24-1.26.46-1.77.62a42.16 42.16 0 01-6 1.43l-1 .1a40.75 40.75 0 01-5.56.26h-.18c-.52 0-1.06 0-1.78-.09h-.07a39.57 39.57 0 01-4.63-.59l-1.22-.23-.35-.06a33.62 33.62 0 01-5.24-1.78l-.21-.12c-.33-.19-.66-.38-1-.56l-.14-.08a27.89 27.89 0 01-4-2.47h-.06c-.33-.24-.79-.62-1.23-1l-.13-.1a28.21 28.21 0 01-3.5-3.56 13 13 0 00-.93-1 33.59 33.59 0 01-3.11-5.19c-.08-.2-.17-.46-.29-.76a14 14 0 001.95-.11 14.68 14.68 0 004.31-1.2 14.43 14.43 0 002.51-1.27 10.84 10.84 0 002.5-1.86 17.67 17.67 0 003.66-5.47c2.48-5.74 2.28-11.76-.58-17.9-1.94-4.14-4.8-7.74-7.57-11.22-5.3-6.67-7.35-9.95-6.9-13.29m11.91-57.78c-.37 1.82-7.75 24.33 2.63 32.44a42.34 42.34 0 017 7c.37.46.77.93 1.1 1.43a23.7 23.7 0 013.31 6.23c.1.35.13.62.2 1a13.08 13.08 0 01.43 4.85 5.74 5.74 0 010 .74 7.37 7.37 0 01-1.79 3.68c-.08.12-.07.29-.15.37s-.31.09-.42.15a5.94 5.94 0 01-3.5 1.62c-12.33.91-15-14-14.3-19.56a.68.68 0 00-.82-.74 18.41 18.41 0 00-4.51 1.64 11.12 11.12 0 00-1.57 1 21.77 21.77 0 00-3.28 2.41c-.44.44-.85.9-1.26 1.35a21.12 21.12 0 00-4.29 6.49c-7.57 19.43 20.72 30 14.68 44a7.25 7.25 0 01-1.47 2.25c-.13.13-.31.12-.45.22a3.2 3.2 0 01-1.14.63 4.92 4.92 0 01-1.55.49 5.38 5.38 0 01-1.33 0 8.85 8.85 0 01-1.78-.34 13.92 13.92 0 01-1.43-.46c-.65-.26-1.2-.54-1.85-.86a9.88 9.88 0 01-1.36-.78 16.38 16.38 0 01-1.75-1.13 14.9 14.9 0 01-1.23-.88c-.56-.41-1-.78-1.51-1.16-.33-.28-.65-.52-1-.8a12.41 12.41 0 01-1-.91c-.23-.23-.48-.44-.64-.59l-.62-.62a75.19 75.19 0 001.4 11.44c.21 1 .46 2 .71 3A48.28 48.28 0 00782 191a8.25 8.25 0 00.45 1.08c.17.4.31.87.48 1.26a45 45 0 004.56 7.56c.34.42.71.75 1 1.13a38.16 38.16 0 004.86 4.9c.61.51 1.26 1.05 1.92 1.52a40.12 40.12 0 005.39 3.33c.51.27 1 .56 1.47.82h.06a44.46 44.46 0 007.36 2.54c.65.16 1.31.23 2 .39a51.18 51.18 0 006.09.77c.78.05 1.55.1 2.38.1a52 52 0 007.15-.33c.32-.05.61-.05.92-.09a54.22 54.22 0 007.86-1.83c.75-.24 1.52-.52 2.26-.79a53.07 53.07 0 005.64-2.37 15.09 15.09 0 002.13-1.06 48.07 48.07 0 006.86-4.38c.29-.19.53-.47.82-.67a43.41 43.41 0 003.57-3.22c.46-.46.91-.93 1.35-1.4a44.5 44.5 0 003.55-4.37 35.43 35.43 0 002.33-3.24c.13-.19.19-.42.3-.62a35.51 35.51 0 002.32-4.71 32.8 32.8 0 001.56-3.58 41.52 41.52 0 001.48-6.63c.22-1.19.57-2.24.7-3.46a51.07 51.07 0 00-.22-11.21 33.21 33.21 0 01-.17-6c0-.66.15-1.25.21-1.87.15-1.29.36-2.55.61-3.77.16-.64.31-1.28.52-1.91.32-1.1.66-2.18 1.07-3.22.2-.56.43-1.09.67-1.64.47-1.08 1-2.09 1.51-3l.58-1.08c.75-1.27 1.51-2.43 2.25-3.44a.88.88 0 01.2-.25 25 25 0 011.89-2.35 7.19 7.19 0 01.52-.57c.22-.26.51-.59.72-.81s.11-.07.22-.18a.69.69 0 00-.37-1.17 29 29 0 00-5.76-.32c-.71.06-1.32.18-2 .29a21.55 21.55 0 00-4 .82 13.55 13.55 0 00-1.79.68 22.89 22.89 0 00-3 1.53c-.45.28-.9.55-1.31.84a26.53 26.53 0 00-2.54 2.1c-.2.19-.42.37-.6.56a25.66 25.66 0 00-2.39 2.79c-.37.5-.69.91-.87 1.19a3.46 3.46 0 01-.29.41s-.06 0 0 0c-.52-2.18 2.34-33.78-18.17-38.48-23.57-5.43-31.33-12.24-34.13-25.3z" fill="#ffffff" data-color="1"></path>
        <path d="M821.22 217.65h-1.21c-.81 0-1.55 0-2.43-.11a51.08 51.08 0 01-6.22-.78h-.08c-.29-.07-.59-.12-.9-.18s-.71-.12-1.08-.21a46.08 46.08 0 01-7.58-2.61h-.06c-.26-.13-.51-.28-.76-.42l-.71-.4a41.14 41.14 0 01-5.53-3.42c-.64-.45-1.24-.95-1.83-1.43l-.16-.13a39.51 39.51 0 01-5-5.07c-.12-.14-.25-.28-.4-.43s-.42-.44-.65-.72a46.62 46.62 0 01-4.7-7.79c-.12-.27-.21-.52-.3-.76s-.13-.36-.2-.51a10.45 10.45 0 01-.48-1.18 49 49 0 01-2.54-7.5v-.12c-.24-.94-.48-1.91-.69-2.91a74.66 74.66 0 01-1.42-11.64 1.24 1.24 0 012.11-.93l.62.62a2.3 2.3 0 00.22.2l.42.4c.27.27.52.49.94.84.15.14.32.27.5.42l.39.32.2.15c.41.33.8.63 1.25 1a9.71 9.71 0 001.12.8l.07.05a15.65 15.65 0 001.62 1.06l.12.07a8 8 0 001.19.67l.39.2c.48.23.89.44 1.36.63s.86.3 1.3.42a7.13 7.13 0 001.56.29 4.55 4.55 0 001 0h.07a4.11 4.11 0 001.15-.39h.07a2.13 2.13 0 00.73-.38l.13-.1a1.59 1.59 0 01.41-.21 6.48 6.48 0 001.09-1.75c2.5-5.8-1.7-11.09-6.57-17.21-5.84-7.34-12.46-15.65-8.13-26.74a21.85 21.85 0 014.52-6.87l.09-.1c.39-.42.78-.86 1.21-1.29a21.87 21.87 0 013.46-2.54l.27-.19a8.84 8.84 0 011.47-.92 19.43 19.43 0 014.78-1.74 1.91 1.91 0 011.7.46 1.89 1.89 0 01.61 1.64c-.45 3.68.69 11 4.57 15.08a10.05 10.05 0 008.41 3.1 4.75 4.75 0 002.78-1.32 1 1 0 01.16-.12l.13-.07v-.07a.61.61 0 01.12-.16 6.21 6.21 0 001.5-3.07.13.13 0 010-.06v-.09a2.6 2.6 0 010-.54 11.89 11.89 0 00-.4-4.37c0-.13-.05-.25-.07-.36a3.52 3.52 0 00-.11-.49 22.19 22.19 0 00-3.12-5.87 13 13 0 00-.79-1l-.24-.29a41 41 0 00-6.8-6.76c-4.6-3.59-8.91-12.19-3.32-32.76.11-.41.21-.77.24-.9a1.26 1.26 0 011.59-1 1.29 1.29 0 01.87 1c2.45 11.39 8.46 18.64 33.19 24.35 17.89 4.09 18.9 27 19 36.17.47-.58 1-1.16 1.58-1.76l.34-.32a2 2 0 00.26-.24 27.51 27.51 0 012.66-2.19c.42-.3.86-.57 1.29-.84h.09a24.86 24.86 0 013.17-1.62 15.69 15.69 0 011.93-.73 24.33 24.33 0 014.15-.86l.42-.06c.51-.09 1-.18 1.64-.23h.06a30 30 0 016 .34 1.93 1.93 0 011.06 3.26 1.57 1.57 0 01-.25.2l-.6.68-.07.08a6.45 6.45 0 00-.45.48 23.65 23.65 0 00-1.8 2.25 1.07 1.07 0 01-.14.16v.08a37.91 37.91 0 00-2.17 3.32c-.18.32-.37.68-.56 1-.58 1.08-1 2-1.47 3v.09c-.22.51-.43 1-.61 1.48a26.41 26.41 0 00-1 3.11c-.15.48-.27 1-.4 1.49l-.08.32c-.25 1.18-.45 2.4-.59 3.62 0 .28-.06.57-.1.85s-.08.64-.1 1a31.62 31.62 0 00.16 5.8 52.13 52.13 0 01.23 11.47 17.42 17.42 0 01-.44 2.28c-.1.44-.2.85-.28 1.29l-.07.4a39.26 39.26 0 01-1.46 6.4 20.58 20.58 0 01-1.17 2.77c-.14.31-.29.62-.44.93a35.87 35.87 0 01-2.37 4.82l-.06.14a3.12 3.12 0 01-.26.52 27.17 27.17 0 01-1.81 2.56c-.19.25-.38.51-.58.76l-.25.34a43.06 43.06 0 01-3.4 4.15c-.47.5-.92 1-1.37 1.42a44.93 44.93 0 01-3.67 3.31h-.07l-.26.22a4.1 4.1 0 01-.53.43 48.55 48.55 0 01-7 4.46 17.72 17.72 0 01-2.24 1.11 57 57 0 01-5.74 2.41c-.74.27-1.5.54-2.25.78a54.69 54.69 0 01-8.05 1.87 5 5 0 01-.5.05h-.41a53.2 53.2 0 01-6.19.39zm-9.4-3.34a49.7 49.7 0 005.91.74c.85.06 1.56.1 2.32.11a50.15 50.15 0 007-.33l.58-.06h.34a50.71 50.71 0 007.63-1.77c.7-.21 1.44-.48 2.15-.74h.06a52.69 52.69 0 005.52-2.32h.06a16.3 16.3 0 002-1 47.26 47.26 0 006.69-4.27l.08-.06.28-.23a4.06 4.06 0 01.48-.4 40.88 40.88 0 003.43-3.1c.43-.43.87-.88 1.33-1.38a42.25 42.25 0 003.21-3.92l.25-.34.6-.79a24.55 24.55 0 001.66-2.34.22.22 0 01.05-.08v-.11a3.79 3.79 0 01.2-.42 35.64 35.64 0 002.23-4.55l.47-1a18.86 18.86 0 001.05-2.47 37.37 37.37 0 001.36-6l.07-.41c.1-.51.21-1 .32-1.43a16.72 16.72 0 00.37-2 49.66 49.66 0 00-.21-10.92 33.93 33.93 0 01-.18-6.26c0-.41.07-.78.12-1.13l.09-.78c.15-1.3.37-2.6.63-3.87l.08-.33c.14-.54.28-1.09.45-1.64.29-1 .65-2.15 1.1-3.3.21-.56.44-1.1.67-1.62v-.07c.48-1.12 1-2.17 1.55-3.14.2-.37.4-.75.59-1.09.7-1.2 1.46-2.37 2.26-3.48a1.71 1.71 0 01.3-.37A26.64 26.64 0 01879 133a6.76 6.76 0 01.55-.6l.24-.28a30 30 0 00-4.4-.16c-.49.05-.93.12-1.41.2l-.45.08h-.06a21.52 21.52 0 00-3.75.76 14 14 0 00-1.65.64 21.62 21.62 0 00-2.87 1.45l-.1.06c-.41.25-.8.49-1.14.74a24.7 24.7 0 00-2.41 2l-.34.32-.24.22a26.76 26.76 0 00-2.28 2.67l-.29.39c-.22.29-.41.54-.52.72a5 5 0 01-.45.62 1.3 1.3 0 01-1.25.33 1.25 1.25 0 01-.87-.88 2.07 2.07 0 010-.22 19.8 19.8 0 01-.09-2.46c-.08-7.68-.33-31.08-17.12-34.92-12.13-2.8-19.94-5.89-25.33-10a24.48 24.48 0 01-8.49-11.77c-3.92 16.77-.44 23.79 3.32 26.74a43.15 43.15 0 017.21 7.15l.22.27a13.43 13.43 0 01.94 1.24 24.39 24.39 0 013.46 6.55 6 6 0 01.18.79v.26a14.21 14.21 0 01.45 5.29v.16a2.63 2.63 0 01-.06.69 8.61 8.61 0 01-1.91 4 1.5 1.5 0 01-1.08 1 7.08 7.08 0 01-4 1.73 12.44 12.44 0 01-10.34-3.78c-4.22-4.43-5.6-11.88-5.31-16.3a18.8 18.8 0 00-3.47 1.36 8.31 8.31 0 00-1.11.71l-.31.22h-.05a19.87 19.87 0 00-3.08 2.26c-.38.38-.75.79-1.11 1.18l-.08.1a19.8 19.8 0 00-4.06 6.1c-3.8 9.77 2.08 17.16 7.76 24.31 5.14 6.46 10 12.57 6.91 19.74a8.53 8.53 0 01-1.73 2.63 1.79 1.79 0 01-.66.41 4.92 4.92 0 01-1.35.72 6 6 0 01-1.87.57 7 7 0 01-1.59 0 9.72 9.72 0 01-2-.38 15.51 15.51 0 01-1.5-.48c-.58-.23-1.06-.46-1.57-.72l-.37-.18a11 11 0 01-1.47-.83 18.57 18.57 0 01-1.79-1.16 14.19 14.19 0 01-1.29-.93c-.48-.35-.9-.68-1.31-1l-.22-.17-.35-.29c-.2-.16-.4-.32-.61-.51a77.1 77.1 0 001.19 8.17c.19.94.42 1.84.66 2.8v.11a45.19 45.19 0 002.35 7.06v.13a7.26 7.26 0 00.37.91 7 7 0 01.28.71c.07.19.14.38.21.53a43.53 43.53 0 004.42 7.33c.13.17.3.34.48.53s.34.35.51.56a37 37 0 004.7 4.74l.15.13c.56.45 1.13.93 1.71 1.34a38.59 38.59 0 005.22 3.23c.29.15.54.3.79.44l.68.38a44.19 44.19 0 007.14 2.46c.29.07.6.12.92.18s.61.13.96.21zm5.81-82.86zm0 0zm3.59 75.75h-1.11c-.55 0-1.11 0-1.85-.08a41.56 41.56 0 01-4.81-.6c-.46-.1-.86-.17-1.16-.22h-.1l-.29-.05h-.05a34.1 34.1 0 01-5.44-1.84.34.34 0 01-.12-.06l-.2-.12-1-.54-.13-.07a30.78 30.78 0 01-4.16-2.57c-.38-.28-.85-.66-1.31-1l-.13-.11a29.33 29.33 0 01-3.67-3.71c-.35-.43-.68-.77-.87-1a.27.27 0 01-.07-.08l-.09-.09a1 1 0 01-.19-.29 36.64 36.64 0 01-3-5l-.06-.13c-.07-.19-.15-.44-.27-.72a1.24 1.24 0 011.15-1.7A11.87 11.87 0 00794 187a13.54 13.54 0 004-1.11 12.89 12.89 0 002.29-1.15l.08-.05a9.71 9.71 0 002.22-1.65 16.49 16.49 0 003.39-5.08c2.33-5.39 2.14-11.07-.57-16.87-1.87-4-4.69-7.56-7.42-11-5.47-6.88-7.67-10.38-7.16-14.23a1.24 1.24 0 012.31-.43 24.34 24.34 0 003.71 5.11 20.58 20.58 0 0016.73 6.31l.14 1.23-.1-1.23a14.74 14.74 0 007.42-2.74l.12-.08a9.37 9.37 0 003.7-3.61l.07-.11a15.49 15.49 0 001-1.63 1.21 1.21 0 01-.13-.56 1.24 1.24 0 01.36-.87 1.19 1.19 0 01.63-.34 16 16 0 001-3.16 9.79 9.79 0 00.23-1.94.28.28 0 010-.09 1.79 1.79 0 010-.23 1 1 0 010-.25 1.4 1.4 0 01.07-.4 23 23 0 00-.69-6.56v-.07a14.47 14.47 0 00-.37-1.56l-.06-.2a32.14 32.14 0 00-4.47-8.58c-.49-.73-1-1.33-1.33-1.76l-.18-.22c-.53-.66-1.06-1.3-1.6-1.91a1.23 1.23 0 011.37-2 118.9 118.9 0 0015.53 4.55 9 9 0 014.16 2.06c2 1.74 3.6 4.53 4.74 8.27 1.91 6.28 2 13.46 2 16.91a23.73 23.73 0 00.19 3.68A9.22 9.22 0 00860 150.5a1.22 1.22 0 011.23.18 1.24 1.24 0 01.46 1.15c-.08.54-.16 1.08-.22 1.61v.74c-.06.42-.13 1-.17 1.63v.07a41.45 41.45 0 00.22 7.68v.08a41.53 41.53 0 01.19 9v.11c0 .19-.11.49-.19.85s-.27 1.13-.4 1.84l-.09.5a30.37 30.37 0 01-1 4.73 2 2 0 00-.08.26 14.73 14.73 0 01-.63 1.42c-.19.38-.36.75-.54 1.13l-.07.18a31.56 31.56 0 01-1.7 3.52l-.15.26c-.12.21-.24.43-.35.66l-.09.16c-.25.35-.58.79-.91 1.22l-.65.86-.26.34a35.78 35.78 0 01-2.55 3.16l-.09.1-1.15 1.19c-.94.93-1.81 1.72-2.66 2.41a9.37 9.37 0 00-.79.65l-.07.05a38.79 38.79 0 01-5.57 3.54l-.44.25a6.86 6.86 0 01-.89.43 4.69 4.69 0 00-.46.21 47.33 47.33 0 01-4.69 2c-.65.23-1.27.46-1.81.63a43.09 43.09 0 01-6.2 1.47H827l-.93.1a44.34 44.34 0 01-4.85.33zm-7.35-3.14a39 39 0 004.47.56h.08c.7 0 1.23.08 1.71.08h.19a38.29 38.29 0 005.4-.25c.39-.05.75-.08 1-.1a42.75 42.75 0 005.8-1.38l1.7-.6h.09a41.57 41.57 0 004.44-1.87l.59-.26a5.24 5.24 0 00.58-.27l.53-.3a37.46 37.46 0 005.2-3.29c.3-.27.59-.51.89-.74.79-.64 1.59-1.37 2.46-2.23.35-.36.72-.74 1.09-1.14l.11-.11a33.41 33.41 0 002.36-2.93l.26-.34.65-.87c.3-.38.59-.77.79-1.06s.26-.49.39-.72l.19-.33a26.31 26.31 0 001.53-3.2l.1-.22c.18-.4.37-.78.55-1.17s.45-.94.51-1.11.07-.22.11-.33a31.4 31.4 0 00.93-4.32l.09-.54c.14-.77.29-1.43.42-2 0-.18.12-.5.15-.66A39.17 39.17 0 00859 164v-.11a44.56 44.56 0 01-.23-8.13v-.08c.05-.73.13-1.34.18-1.78v-.1a1.94 1.94 0 000-.24v-.13a11.69 11.69 0 01-14-9.63 26.61 26.61 0 01-.23-4c0-3.34-.11-10.28-1.91-16.22-2.3-7.54-5.78-8.33-7.09-8.63-4.37-1-8.23-2.06-11.67-3.19l.48.69a35.06 35.06 0 014.79 9.24c0 .08 0 .17.08.25a15.19 15.19 0 01.42 1.79 24.44 24.44 0 01.68 8.18 12.8 12.8 0 01-.27 2.34 19.15 19.15 0 01-3.23 7.46 12 12 0 01-4.57 4.46 17.09 17.09 0 01-8.6 3.15h-.06a23.05 23.05 0 01-18.06-6.43c1.06 1.59 2.47 3.43 4.24 5.66 2.81 3.53 5.72 7.19 7.72 11.47 3 6.47 3.22 12.83.6 18.91a19 19 0 01-3.91 5.84 12.36 12.36 0 01-2.75 2.06 16.13 16.13 0 01-2.66 1.34 15.92 15.92 0 01-4.66 1.29h-.21a32.67 32.67 0 002.48 4c.21.22.56.58.93 1a27.7 27.7 0 003.34 3.4l.12.09c.44.36.88.72 1.17.94a28 28 0 003.83 2.37l.17.09 1 .58.15.08a33.73 33.73 0 005 1.68h.29c.37.18.82.31 1.31.37z" fill="#ffffff" data-color="1"></path>
        <path d="M685.93 216.1h15.73v-.1a55.14 55.14 0 0055.08-55.07V92a15.81 15.81 0 014.61-11.12l8.82-8.82a7.87 7.87 0 00-6.68-13.36L741 61.94V50.78a7.87 7.87 0 00-7.87-7.87 128.61 128.61 0 00-42.3 7 102.22 102.22 0 00-36.37-7 7.87 7.87 0 00-7.87 7.87v11.16l-22.49-3.22a7.88 7.88 0 00-6.68 13.36l8.82 8.82a15.81 15.81 0 014.61 11.1v68.91A55.14 55.14 0 00685.93 216z" fill="#ffffff" data-color="1"></path>
        <path d="M741 92v68.91c0-28.91-13-55.22-33.47-73.46a79.47 79.47 0 0125.93-8.56l11.22-1.6A31.5 31.5 0 00741 92z" fill="#d22e2e" data-color="2"></path>
        <path d="M741 92v68.91c0-28.91-13-55.22-33.47-73.46a79.47 79.47 0 0125.93-8.56l11.22-1.6A31.5 31.5 0 00741 92z" style="isolation:isolate" opacity=".1" fill="#000000" data-color="3"></path>
        <path d="M725.27 58.9v5.65c-2 .43-4 .82-6 1.37l-3.4-2.55c-1.33-1-2.83-1.72-4.2-2.65a118.16 118.16 0 0113.6-1.82z" fill="#d22e2e" data-color="2"></path>
        <path d="M701.62 72.88c-2.62 1.33-5.19 2.84-7.74 4.42a97.29 97.29 0 00-31.56-12.55V59a87.09 87.09 0 0139.3 13.88z" fill="#d22e2e" data-color="2"></path>
        <path d="M646.59 160.93V92a31.62 31.62 0 00-3.67-14.71l11.21 1.6a83.27 83.27 0 0171.14 82 39.34 39.34 0 01-78.68 0z" fill="#d22e2e" data-color="2"></path>
        <path d="M702.2 104.11a81.45 81.45 0 017.33 33.21 39.23 39.23 0 01-62 32.08 39.31 39.31 0 0077.71-8.47 82.53 82.53 0 00-23.04-56.82z" style="isolation:isolate" opacity=".1" fill="#000000" data-color="3"></path>
        <path d="M603.77 130.75c-.71.06-1.33.18-2 .29a21.89 21.89 0 00-4 .82 14 14 0 00-1.78.68 23 23 0 00-3 1.53c-.45.28-.9.55-1.31.84a26.53 26.53 0 00-2.54 2.1c-.2.19-.41.37-.6.56a25.66 25.66 0 00-2.39 2.79c-.37.5-.68.91-.87 1.19-.07.11-.24.37-.28.41s-.07 0 0 0c-.52-2.18 2.34-33.78-18.17-38.48-23.57-5.43-31.32-12.24-34.13-25.3-.37 1.82-7.74 24.33 2.64 32.44a42.25 42.25 0 017 7 17 17 0 011.1 1.43 23.13 23.13 0 013.31 6.23c.1.35.13.62.2 1a12.87 12.87 0 01.43 4.85v.74a7.46 7.46 0 01-1.8 3.68c-.08.12-.06.29-.15.37s-.31.09-.42.15a5.91 5.91 0 01-3.5 1.62c-12.33.91-15-14-14.29-19.56a.69.69 0 00-.83-.74 18.34 18.34 0 00-4.5 1.64 10.68 10.68 0 00-1.58 1 21.35 21.35 0 00-3.29 2.41c-.44.44-.85.9-1.26 1.35a21.12 21.12 0 00-4.29 6.49c-7.57 19.43 20.73 30 14.68 44a7.24 7.24 0 01-1.46 2.25c-.13.13-.32.12-.46.22a3 3 0 01-1.14.63 5 5 0 01-1.54.49 5.46 5.46 0 01-1.34 0 9 9 0 01-1.78-.34 13 13 0 01-1.42-.46c-.66-.26-1.21-.54-1.85-.86a9.42 9.42 0 01-1.37-.78 17.45 17.45 0 01-1.75-1.13c-.46-.29-.82-.57-1.23-.88-.56-.41-1-.78-1.51-1.16-.33-.28-.64-.52-.95-.8s-.7-.59-1-.91-.49-.44-.64-.59l-.62-.62a72.75 72.75 0 001.4 11.44c.21 1 .45 2 .7 3a47.18 47.18 0 002.42 7.26 8.17 8.17 0 00.44 1.08c.18.4.31.87.49 1.26a44.34 44.34 0 004.56 7.56c.34.42.7.75 1 1.13a38.82 38.82 0 004.86 4.9c.62.51 1.27 1.05 1.93 1.52a40 40 0 005.38 3.33c.51.27 1 .56 1.47.82h.06a44.56 44.56 0 007.37 2.54c.65.16 1.3.23 2 .39a51 51 0 006.08.77c.78.05 1.56.1 2.38.1a51.94 51.94 0 007.15-.33c.33-.05.61-.05.92-.09a53.92 53.92 0 007.86-1.83c.75-.24 1.52-.52 2.26-.79a52.21 52.21 0 005.48-2.4 15.21 15.21 0 002.14-1.06 49.22 49.22 0 006.86-4.38c.29-.19.53-.47.82-.67a48.68 48.68 0 004.92-4.62 46 46 0 003.55-4.37 39.72 39.72 0 002.33-3.24c.12-.19.18-.42.3-.62a36.74 36.74 0 002.31-4.71 31 31 0 001.56-3.58 41.53 41.53 0 001.49-6.63c.21-1.19.57-2.24.7-3.46a51.07 51.07 0 00-.22-11.21 32.33 32.33 0 01-.17-6c0-.66.15-1.25.2-1.87.16-1.29.36-2.55.61-3.77.17-.64.32-1.28.52-1.91.32-1.1.66-2.18 1.07-3.22.2-.56.44-1.09.68-1.64.47-1.08 1-2.09 1.51-3 .19-.37.39-.75.58-1.08a39.54 39.54 0 012.25-3.44.83.83 0 01.19-.25 25 25 0 011.89-2.35 7.28 7.28 0 01.53-.57c.22-.26.5-.59.72-.81s.11-.07.22-.18a.7.7 0 00-.36-1.19 28.91 28.91 0 00-5.73-.42z" fill="#d22e2e" data-color="2"></path>
        <path d="M582.34 144.67c4.74 9.17-1.1-3.08-1.1 7.43 0 19.37-18.35 35.12-40.9 35.12a45.3 45.3 0 01-23.53-6.48c4.05 15.73 20.37 27.55 39.89 27.55 22.55 0 40.9-15.75 40.9-35.12s-.48-15.12-15.26-28.5z" style="isolation:isolate" opacity=".1" fill="#000000" data-color="3"></path>
        <path d="M520.54 136a25.76 25.76 0 003.89 5.36 21.83 21.83 0 0017.73 6.7 15.9 15.9 0 008-3 10.9 10.9 0 002.46-1.84 10.66 10.66 0 001.72-2.25 18 18 0 003.06-7 11.09 11.09 0 00.25-2.16 23.5 23.5 0 00-.65-7.84 17.35 17.35 0 00-.4-1.69 2 2 0 01-.07-.23 33.47 33.47 0 00-4.64-8.92 22.16 22.16 0 00-1.4-1.86l-.18-.21c-.53-.67-1.08-1.32-1.63-2a119.83 119.83 0 0015.7 4.61c1.5.34 5.49 1.26 8 9.48 1.86 6.11 1.94 13.17 2 16.56a24.93 24.93 0 00.22 3.87 10.46 10.46 0 0014.3 8.07c-.08.54-.16 1.09-.22 1.64v.73c0 .43-.13 1-.17 1.71v.07a44.84 44.84 0 00.23 7.91v.09a40.42 40.42 0 01.18 8.75c0 .16-.11.51-.17.77-.12.52-.28 1.17-.41 1.91v.1l-.07.42a31.49 31.49 0 01-1 4.52c0 .1-.07.2-.1.3s-.34.78-.57 1.26L586 183l-.09.2a28.12 28.12 0 01-1.61 3.36c-.06.1-.12.19-.17.29a7.81 7.81 0 00-.39.74c-.23.33-.56.76-.88 1.19l-.65.85-.21.37a35.52 35.52 0 01-2.46 3l-.1.11c-.39.41-.76.8-1.13 1.16a32.25 32.25 0 01-2.56 2.33c-.37.28-.66.54-.86.72a38.06 38.06 0 01-5.41 3.42l-.48.26a6.63 6.63 0 01-.72.34l-.53.23a42.62 42.62 0 01-4.56 1.92c-.64.24-1.25.46-1.77.62a41.54 41.54 0 01-6 1.43l-1 .1a40.6 40.6 0 01-5.56.26h-.18c-.51 0-1.06 0-1.78-.09h-.07a39.83 39.83 0 01-4.63-.59l-1.21-.23-.35-.06a34.11 34.11 0 01-5.25-1.78l-.21-.12c-.33-.19-.66-.38-1-.56l-.15-.08a28.46 28.46 0 01-4-2.47c-.34-.24-.8-.62-1.24-1l-.12-.1a27.59 27.59 0 01-3.51-3.56c-.37-.44-.7-.79-.93-1a34.39 34.39 0 01-3.11-5.19c-.07-.2-.17-.46-.29-.76a13.91 13.91 0 002-.11 18.51 18.51 0 006.83-2.47 10.84 10.84 0 002.5-1.86 17.82 17.82 0 003.65-5.47c2.47-5.74 2.28-11.76-.59-17.9-1.93-4.14-4.8-7.74-7.57-11.22-5.3-6.67-7.35-9.95-6.9-13.29m12.09-57.83c-.37 1.82-7.74 24.33 2.64 32.44a42.25 42.25 0 017 7 17 17 0 011.1 1.43 23.13 23.13 0 013.31 6.23c.1.35.13.62.2 1a12.87 12.87 0 01.43 4.85v.74a7.46 7.46 0 01-1.8 3.68c-.08.12-.06.29-.15.37s-.31.09-.42.15a5.91 5.91 0 01-3.5 1.62c-12.33.91-15-14-14.29-19.56a.69.69 0 00-.83-.74 18.34 18.34 0 00-4.5 1.64 10.68 10.68 0 00-1.58 1 21.35 21.35 0 00-3.29 2.41c-.44.44-.85.9-1.26 1.35a21.12 21.12 0 00-4.29 6.49c-7.57 19.43 20.73 30 14.68 44a7.24 7.24 0 01-1.46 2.25c-.13.13-.32.12-.46.22a3 3 0 01-1.14.63 5 5 0 01-1.54.49 5.46 5.46 0 01-1.34 0 9 9 0 01-1.78-.34 13 13 0 01-1.42-.46c-.66-.26-1.21-.54-1.85-.86a9.42 9.42 0 01-1.37-.78 17.45 17.45 0 01-1.75-1.13c-.46-.29-.82-.57-1.23-.88-.56-.41-1-.78-1.51-1.16-.33-.28-.64-.52-.95-.8s-.7-.59-1-.91-.49-.44-.64-.59l-.62-.62a72.75 72.75 0 001.4 11.44c.21 1 .45 2 .7 3a47.18 47.18 0 002.42 7.26 8.17 8.17 0 00.44 1.08c.18.4.31.87.49 1.26a44.34 44.34 0 004.56 7.56c.34.42.7.75 1 1.13a38.82 38.82 0 004.86 4.9c.62.51 1.27 1.05 1.93 1.52a40 40 0 005.38 3.33c.51.27 1 .56 1.47.82h.06a44.56 44.56 0 007.37 2.54c.65.16 1.3.23 2 .39a51 51 0 006.08.77c.78.05 1.56.1 2.38.1a51.94 51.94 0 007.15-.33c.33-.05.61-.05.92-.09a53.92 53.92 0 007.86-1.83c.75-.24 1.52-.52 2.26-.79a52.21 52.21 0 005.34-2.38 15.21 15.21 0 002.14-1.06 49.22 49.22 0 006.86-4.38c.29-.19.53-.47.82-.67a43.28 43.28 0 003.56-3.22c.46-.46.91-.93 1.36-1.4a46 46 0 003.55-4.37 39.72 39.72 0 002.33-3.24c.12-.19.18-.42.3-.62a36.74 36.74 0 002.31-4.71 31 31 0 001.56-3.58 41.53 41.53 0 001.49-6.63c.21-1.19.57-2.24.7-3.46a51.07 51.07 0 00-.22-11.21 32.33 32.33 0 01-.17-6c0-.66.15-1.25.2-1.87.16-1.29.36-2.55.61-3.77.17-.64.32-1.28.52-1.91.32-1.1.66-2.18 1.07-3.22.2-.56.44-1.09.68-1.64.47-1.08 1-2.09 1.51-3 .19-.37.39-.75.58-1.08a39.54 39.54 0 012.25-3.44.83.83 0 01.19-.25 25 25 0 011.89-2.35 7.28 7.28 0 01.53-.57c.22-.26.5-.59.72-.81s.11-.07.22-.18a.7.7 0 00-.38-1.17 28.91 28.91 0 00-5.75-.32c-.71.06-1.33.18-2 .29a21.89 21.89 0 00-4 .82 14 14 0 00-1.78.68 23 23 0 00-3 1.53c-.45.28-.9.55-1.31.84a26.53 26.53 0 00-2.54 2.1c-.2.19-.41.37-.6.56a25.66 25.66 0 00-2.39 2.79c-.37.5-.68.91-.87 1.19-.07.11-.24.37-.28.41s-.07 0 0 0c-.52-2.18 2.34-33.78-18.17-38.48-23.57-5.43-31.32-12.24-34.13-25.3z" fill="#ffffff" data-color="1"></path>
        <path d="M549.65 217.65h-1.21c-.8 0-1.54 0-2.43-.11a51.08 51.08 0 01-6.22-.78h-.07c-.3-.07-.59-.12-.91-.18s-.71-.12-1.08-.21a46 46 0 01-7.57-2.61h-.06c-.26-.13-.51-.28-.76-.42l-.71-.4a41.14 41.14 0 01-5.53-3.42c-.63-.45-1.24-.95-1.83-1.43l-.15-.13a38.93 38.93 0 01-5-5.07c-.11-.14-.25-.28-.39-.43s-.43-.44-.65-.72a46 46 0 01-4.71-7.79c-.12-.27-.21-.52-.29-.76s-.14-.36-.2-.51a8.86 8.86 0 01-.48-1.18 49 49 0 01-2.46-7.38V184c-.24-.94-.49-1.91-.69-2.91a73.55 73.55 0 01-1.43-11.64 1.24 1.24 0 01.74-1.18 1.22 1.22 0 011.37.25l.62.62.22.2.42.4c.28.27.52.49.94.84h.05c.15.14.32.27.5.42l.38.32.2.15c.41.33.8.63 1.26 1a9.71 9.71 0 001.12.8l.07.05a15.65 15.65 0 001.62 1.06l.12.07a8 8 0 001.19.67l.39.2c.48.23.89.44 1.37.63s.86.3 1.3.42a7.05 7.05 0 001.55.29 4.55 4.55 0 001 0h.06a4 4 0 001.15-.39h.07a2.1 2.1 0 00.74-.38l.12-.1a1.59 1.59 0 01.41-.21 6.24 6.24 0 001.09-1.75c2.5-5.8-1.7-11.09-6.57-17.21-5.84-7.34-12.45-15.65-8.13-26.74a22.07 22.07 0 014.53-6.87l.08-.1c.39-.42.79-.86 1.22-1.29a21.75 21.75 0 013.45-2.54l.27-.19a9.27 9.27 0 011.47-.92 19.5 19.5 0 014.79-1.74 1.91 1.91 0 012.3 2.1c-.45 3.68.7 11 4.58 15.08a10 10 0 008.4 3.1 4.73 4.73 0 002.78-1.32 1 1 0 01.17-.12l.13-.07a.43.43 0 010-.07l.12-.16a6.13 6.13 0 001.5-3.07v-.15a2.72 2.72 0 010-.54 11.92 11.92 0 00-.41-4.37c0-.13 0-.25-.07-.36s-.06-.33-.1-.49a22.24 22.24 0 00-3.13-5.87c-.23-.34-.51-.68-.8-1l-.23-.29a41.46 41.46 0 00-6.81-6.76c-4.6-3.59-8.91-12.19-3.31-32.76.11-.41.21-.77.23-.9a1.25 1.25 0 012.46 0c2.45 11.39 8.47 18.64 33.2 24.35 17.88 4.09 18.89 27 19 36.17.47-.58 1-1.16 1.58-1.76l.35-.32a2.77 2.77 0 00.25-.24 28.77 28.77 0 012.66-2.19c.42-.3.87-.57 1.29-.84h.09a24.86 24.86 0 013.17-1.62 16.34 16.34 0 011.93-.73 24.46 24.46 0 014.16-.86l.41-.06c.51-.09 1-.18 1.64-.23h.06a30.1 30.1 0 016 .34 1.93 1.93 0 011 3.26 2.12 2.12 0 01-.24.2c-.15.15-.35.38-.61.68a.27.27 0 01-.07.08c-.2.2-.28.29-.45.48a25.33 25.33 0 00-1.8 2.25 1 1 0 01-.13.16l-.06.08a37.91 37.91 0 00-2.17 3.32c-.18.32-.37.68-.56 1-.58 1.08-1 2-1.47 3v.09c-.23.51-.44 1-.62 1.48a26.41 26.41 0 00-1 3.11c-.16.48-.28 1-.41 1.49l-.08.32c-.24 1.18-.44 2.4-.59 3.62 0 .28-.06.57-.1.85s-.08.64-.1 1a32.54 32.54 0 00.16 5.8 52.13 52.13 0 01.23 11.47 19.31 19.31 0 01-.43 2.28c-.11.44-.21.85-.29 1.29l-.06.4a40.35 40.35 0 01-1.47 6.4 21.94 21.94 0 01-1.16 2.77c-.15.31-.3.62-.44.93a38.43 38.43 0 01-2.37 4.82.84.84 0 00-.06.14 3.29 3.29 0 01-.27.52 27.1 27.1 0 01-1.8 2.56c-.2.25-.39.51-.58.76l-.26.34a44.49 44.49 0 01-3.39 4.15c-.47.5-.92 1-1.37 1.42a46.65 46.65 0 01-3.67 3.31h-.07l-.27.22a4.76 4.76 0 01-.52.43 49.27 49.27 0 01-7 4.46 17.08 17.08 0 01-2.24 1.11 55.83 55.83 0 01-5.73 2.41h-.06c-.73.27-1.49.54-2.25.78a54.11 54.11 0 01-8 1.87 4.7 4.7 0 01-.5.05h-.45a53.24 53.24 0 01-6.17.27zm-9.39-3.34a49.7 49.7 0 005.91.74c.85.06 1.55.1 2.31.11a50.15 50.15 0 007-.33l.59-.06h.33A51.09 51.09 0 00564 213c.7-.21 1.43-.48 2.14-.74h.06a52.69 52.69 0 005.52-2.32h.06a15.6 15.6 0 002-1h.06a47.85 47.85 0 006.69-4.27l.07-.06a2.39 2.39 0 00.28-.23 4.06 4.06 0 01.48-.4 40.93 40.93 0 003.44-3.1c.43-.43.86-.88 1.33-1.38a40.62 40.62 0 003.2-3.92l.26-.34.59-.79a24.55 24.55 0 001.66-2.34.56.56 0 010-.08l.05-.11a3.53 3.53 0 01.19-.42 35.66 35.66 0 002.24-4.55c.16-.35.31-.68.47-1a18.79 18.79 0 001-2.47 37.36 37.36 0 001.37-6l.07-.41c.09-.51.2-1 .31-1.43a14.91 14.91 0 00.38-2 50.27 50.27 0 00-.22-10.92 33.93 33.93 0 01-.18-6.26c0-.41.07-.78.12-1.13s.07-.52.09-.78c.16-1.3.37-2.6.63-3.87l.09-.33c.13-.54.27-1.09.45-1.64.29-1 .64-2.15 1.09-3.3.21-.56.44-1.1.67-1.62v-.07c.48-1.12 1-2.17 1.55-3.14.19-.37.39-.75.58-1.09a40.75 40.75 0 012.27-3.48 1.7 1.7 0 01.29-.37 26.64 26.64 0 011.9-2.37c.22-.26.36-.41.55-.6l.24-.28a30 30 0 00-4.4-.16c-.48.05-.93.12-1.41.2l-.45.08h-.05a21.14 21.14 0 00-3.75.76 14.19 14.19 0 00-1.66.64 21.43 21.43 0 00-2.86 1.45l-.1.06c-.41.25-.8.49-1.15.74a25.87 25.87 0 00-2.4 2l-.34.32-.25.22a26.76 26.76 0 00-2.28 2.67l-.29.39c-.21.29-.4.54-.52.72a4.14 4.14 0 01-.45.62 1.29 1.29 0 01-1.25.33 1.26 1.26 0 01-.87-.88 2.07 2.07 0 010-.22c-.06-.43-.07-1.1-.09-2.46-.08-7.68-.33-31.08-17.12-34.92-12.13-2.8-19.94-5.89-25.32-10a24.43 24.43 0 01-8.5-11.77c-3.91 16.77-.44 23.79 3.33 26.74a43.47 43.47 0 017.2 7.15l.22.27a15.54 15.54 0 01.95 1.24 24.68 24.68 0 013.46 6.55c.09.32.14.57.18.79s0 .17.05.26a14.21 14.21 0 01.45 5.29v.16a2.26 2.26 0 01-.06.69 8.61 8.61 0 01-1.91 4 1.34 1.34 0 01-.37.62 1.55 1.55 0 01-.7.4 7.08 7.08 0 01-4 1.73A12.46 12.46 0 01531.1 135c-4.21-4.43-5.59-11.88-5.3-16.3a18.53 18.53 0 00-3.47 1.36 7.81 7.81 0 00-1.12.71l-.3.22h-.05a19.87 19.87 0 00-3.08 2.26c-.38.38-.75.79-1.11 1.18l-.09.1a19.57 19.57 0 00-4 6.1c-3.81 9.77 2.07 17.16 7.76 24.31 5.14 6.46 10 12.57 6.9 19.74a8.53 8.53 0 01-1.73 2.63 1.79 1.79 0 01-.66.41 4.87 4.87 0 01-1.34.72 6 6 0 01-1.87.57 7 7 0 01-1.59 0 9.81 9.81 0 01-2-.38 15.51 15.51 0 01-1.5-.48c-.57-.23-1.06-.46-1.57-.72l-.37-.18a11.62 11.62 0 01-1.47-.83 17.2 17.2 0 01-1.78-1.16 11.86 11.86 0 01-1.29-.93c-.49-.35-.91-.68-1.32-1l-.21-.17h-.05l-.35-.29c-.2-.16-.4-.32-.61-.51a74.47 74.47 0 001.18 8.17c.19.94.42 1.84.66 2.8v.11a47.38 47.38 0 002.35 7.06s0 .08.05.13a7.26 7.26 0 00.37.91c.1.24.19.47.27.71s.14.38.21.53a43.53 43.53 0 004.42 7.33c.14.17.3.34.48.53a7.1 7.1 0 01.51.56 37 37 0 004.7 4.74l.15.13c.56.45 1.14.93 1.71 1.34a38.68 38.68 0 005.23 3.23l.78.44.69.38a43.86 43.86 0 007.14 2.46c.28.07.59.12.92.18s.56.13.91.21zm5.8-82.86zm0 0zm3.59 75.75h-1.1c-.55 0-1.12 0-1.86-.08a41.68 41.68 0 01-4.8-.6h-.06c-.45-.1-.86-.17-1.16-.22h-.09l-.3-.05a34 34 0 01-5.43-1.84l-.12-.06-.21-.12-1-.54-.14-.07a30.78 30.78 0 01-4.16-2.57c-.39-.28-.86-.66-1.31-1l-.14-.11a28.63 28.63 0 01-3.66-3.71c-.36-.43-.68-.77-.88-1l-.07-.08-.16-.15a1.32 1.32 0 01-.19-.29 36.64 36.64 0 01-3-5 .69.69 0 01-.05-.13c-.07-.19-.16-.44-.27-.72a1.23 1.23 0 011.14-1.7 11.73 11.73 0 001.78-.1 13.35 13.35 0 004-1.11h.05a13.24 13.24 0 002.29-1.15l.08-.05a9.65 9.65 0 002.21-1.65 16.51 16.51 0 003.4-5.08c2.33-5.39 2.14-11.07-.57-16.87-1.87-4-4.69-7.56-7.41-11-5.47-6.88-7.68-10.38-7.17-14.23a1.24 1.24 0 012.32-.43 24.3 24.3 0 003.7 5.11 20.59 20.59 0 0016.74 6.31l.13 1.23-.09-1.23a14.74 14.74 0 007.41-2.74.57.57 0 01.13-.08 9.26 9.26 0 003.69-3.61l.08-.11a17.3 17.3 0 001-1.63 1.22 1.22 0 01-.14-.56 1.24 1.24 0 01.36-.87 1.18 1.18 0 01.64-.34 17.5 17.5 0 00.95-3.16 10.59 10.59 0 00.23-1.94v-.32a1 1 0 010-.25 1.39 1.39 0 01.06-.4 23 23 0 00-.68-6.56.64.64 0 010-.07 14.47 14.47 0 00-.37-1.56l-.06-.2a32.38 32.38 0 00-4.39-8.71c-.5-.73-1-1.33-1.34-1.76l-.18-.22c-.52-.66-1.06-1.3-1.6-1.91a1.23 1.23 0 011.37-2 119.09 119.09 0 0015.54 4.55 9.06 9.06 0 014.15 2.06c2 1.74 3.61 4.53 4.75 8.27 1.9 6.28 2 13.46 2 16.91a24.85 24.85 0 00.2 3.68 9.22 9.22 0 0012.61 7.12 1.24 1.24 0 011.69 1.33c-.08.54-.15 1.08-.22 1.61v.74c-.05.42-.12 1-.17 1.63v.07a43.27 43.27 0 00.22 7.68v.08a41.52 41.52 0 01.2 9v.11c0 .19-.1.49-.19.85s-.27 1.13-.4 1.84l-.08.5a32.87 32.87 0 01-1 4.73l-.09.26a12.52 12.52 0 01-.63 1.42c-.18.38-.36.75-.53 1.13l-.08.18a29.89 29.89 0 01-1.7 3.52l-.15.26c-.12.21-.24.43-.35.66a1.29 1.29 0 01-.09.16c-.24.35-.58.79-.9 1.22l-.66.86-.25.34a35.73 35.73 0 01-2.56 3.16l-.09.1-1.15 1.19a32.78 32.78 0 01-2.66 2.41c-.27.2-.52.41-.79.65l-.06.05a39.53 39.53 0 01-5.58 3.54l-.43.25a6.86 6.86 0 01-.89.43 4.84 4.84 0 00-.47.21 47.33 47.33 0 01-4.69 2h-.05c-.66.23-1.28.46-1.81.63a43.41 43.41 0 01-6.2 1.47h-.1l-.92.1a44.52 44.52 0 01-5.02.33zm-7.34-3.14a38.44 38.44 0 004.47.56h.07c.7 0 1.23.08 1.71.08h.2a38.22 38.22 0 005.39-.25c.4-.05.75-.08 1-.1a43 43 0 005.79-1.38l1.71-.6h.08a41.73 41.73 0 004.45-1.87l.59-.26a4.3 4.3 0 00.57-.27l.53-.3a36.87 36.87 0 005.2-3.29c.3-.27.6-.51.9-.74.78-.64 1.59-1.37 2.45-2.23l1.1-1.14.11-.11a37.56 37.56 0 002.36-2.93l.25-.34c.21-.29.44-.58.66-.87l.79-1.06c.12-.25.25-.49.38-.72l.2-.33a29.68 29.68 0 001.53-3.2 2.14 2.14 0 01.1-.22c.18-.4.36-.78.55-1.17s.45-.94.5-1.11.07-.22.11-.33a30 30 0 00.93-4.32l.09-.54c.14-.77.3-1.43.42-2 0-.18.12-.5.16-.66a39.16 39.16 0 00-.19-8.41v-.11a44.54 44.54 0 01-.24-8.13v-.08c0-.73.13-1.34.19-1.78v-.47a11.71 11.71 0 01-14.05-9.63 28 28 0 01-.23-4c0-3.34-.11-10.28-1.91-16.22-2.29-7.54-5.78-8.33-7.09-8.63-4.37-1-8.22-2.06-11.67-3.19.16.22.32.44.48.69a34.48 34.48 0 014.79 9.24 2.41 2.41 0 01.08.25c.24.81.37 1.48.43 1.79a25 25 0 01.68 8.18 12 12 0 01-.28 2.34 19.15 19.15 0 01-3.23 7.46 11.71 11.71 0 01-1.89 2.45 12 12 0 01-2.68 2 17.09 17.09 0 01-8.59 3.15h-.07a23 23 0 01-18.05-6.43c1.06 1.59 2.46 3.43 4.23 5.66 2.82 3.53 5.73 7.19 7.72 11.47 3 6.47 3.23 12.83.6 18.91a18.82 18.82 0 01-3.91 5.84 12.13 12.13 0 01-2.75 2.06 16.13 16.13 0 01-2.66 1.34 15.75 15.75 0 01-4.65 1.29h-.22a32.67 32.67 0 002.48 4c.21.22.56.58.93 1a27.74 27.74 0 003.35 3.4l.12.09c.43.36.87.72 1.17.94a28.58 28.58 0 003.83 2.37l.17.09c.35.19.7.38 1 .58l.14.08a34.14 34.14 0 005 1.68h.3c.38.24.82.37 1.32.43z" fill="#ffffff" data-color="1"></path>
        <path d="M930.61 25.22v445.13H25.22V25.22h905.39M955.83 0H0v495.57h955.83V0z" fill="#ffffff" data-color="1"></path>
    </g>
</svg>