<svg preserveAspectRatio="xMidYMid meet" data-bbox="0 0 829.81 369.43" viewBox="0 0 829.81 369.43" xmlns="http://www.w3.org/2000/svg" data-type="color" role="img">
    <g>
        <path d="M103 189.55h38.44l-1.37 136s1.37 24.62-5.5 28.14-17.84 7-22 5.86-12.35-15.24-12.35-15.24l1.37-28.14-1.37-118.4z" fill="#69beab" data-color="1"></path>
        <path d="M29.44 268.27h-13a18 18 0 01-11.65-3.84A11.76 11.76 0 010 254.88V123.52a2.6 2.6 0 011.11-2.07 4 4 0 012.57-.88 4 4 0 012.58.88 2.61 2.61 0 011.1 2.07v131.36a6.58 6.58 0 002.7 5.31 9.84 9.84 0 006.38 2.17h13a4.38 4.38 0 012.58.79 2.5 2.5 0 011.1 2.17 2.6 2.6 0 01-1.1 2.07 4 4 0 01-2.58.88z" fill="#201e48" data-color="2"></path>
        <path d="M61.65 268.27a18.52 18.52 0 01-11.78-3.84c-3.28-2.57-4.9-5.68-4.9-9.35V240.3a11.64 11.64 0 014.9-9.54 18.53 18.53 0 0111.78-3.85 19.22 19.22 0 019.07 2.18v-24.23a6.3 6.3 0 00-2.7-5.22 10.16 10.16 0 00-6.37-2.07 10 10 0 00-6.5 2.07 6.39 6.39 0 00-2.58 5.22 2.6 2.6 0 01-1.11 2.07 4 4 0 01-2.57.88 4.47 4.47 0 01-2.83-.88 2.6 2.6 0 01-1.06-2.07c0-3.68 1.62-6.83 4.9-9.46a18.19 18.19 0 0111.78-3.94 17.72 17.72 0 0111.62 3.94 11.9 11.9 0 014.79 9.46v50.22a11.63 11.63 0 01-4.79 9.35 18 18 0 01-11.65 3.84zm0-35.26a10.08 10.08 0 00-6.5 2.07 6.43 6.43 0 00-2.58 5.22v14.78a6.48 6.48 0 002.58 5.11 9.7 9.7 0 006.5 2.17 9.84 9.84 0 006.35-2.17 6.39 6.39 0 002.7-5.11V240.3a6.34 6.34 0 00-2.7-5.22 10.22 10.22 0 00-6.35-2.08z" fill="#201e48" data-color="2"></path>
        <path d="M149.84 342.14a17.66 17.66 0 01-4.51 11.86l9.46 6.9a4.65 4.65 0 012 3.6 3.86 3.86 0 01-2 3.3 7.11 7.11 0 01-4.51 1.63 6.58 6.58 0 01-4.08-1.63l-9.45-6.58a35.68 35.68 0 01-14.72 3.3 30.88 30.88 0 01-19.63-6.41c-5.45-4.27-8.17-9.56-8.17-15.92V140.28q0-9.19 8.17-15.59a30.87 30.87 0 0119.63-6.4 30.85 30.85 0 0119.62 6.4q8.17 6.41 8.19 15.59zm-13.5 4.27a15.29 15.29 0 00.83-4.27V140.28a10.87 10.87 0 00-4.3-8.54 17.75 17.75 0 00-21.46 0q-4.51 3.62-4.51 8.54v201.86a11 11 0 004.51 8.87 16.32 16.32 0 0010.62 3.6 14 14 0 005.31-1l-9.81-7.88a3.92 3.92 0 010-6.88 6.93 6.93 0 019 0z" fill="#201e48" data-color="2"></path>
        <path d="M198 364.47q-11.46 0-19.42-6.41c-5.31-4.27-8-9.45-8-15.59V241.38a4.38 4.38 0 011.82-3.46 7 7 0 018.6 0 4.34 4.34 0 011.83 3.46v101.09c0 3.28 1.5 6.14 4.51 8.54a16.37 16.37 0 0010.63 3.6A16.19 16.19 0 00208.8 351a10.83 10.83 0 004.29-8.54V241.38a4.36 4.36 0 011.85-3.46 7.3 7.3 0 014.7-1.47 6.66 6.66 0 014.29 1.47 4.36 4.36 0 011.85 3.46v101.09c0 6.14-2.66 11.32-8 15.59s-11.91 6.41-19.78 6.41z" fill="#201e48" data-color="2"></path>
        <path d="M258 305.71v36.76a10.86 10.86 0 004.29 8.54 16.21 16.21 0 0010.84 3.6 16.38 16.38 0 0010.63-3.6c3-2.4 4.5-5.26 4.5-8.54a4.19 4.19 0 011.84-3.6 7.09 7.09 0 014.29-1.32q6.54 0 6.54 4.92c0 6.14-2.72 11.32-8.17 15.59a33.25 33.25 0 01-39.25 0c-5.46-4.27-8.19-9.45-8.19-15.59v-83.71q0-9.16 8.19-15.75a32.64 32.64 0 0139.25 0q8.17 6.59 8.17 15.75v41.7c0 3.49-2.18 5.25-6.54 5.25zm15.13-59.09a16.68 16.68 0 00-10.84 3.47 10.65 10.65 0 00-4.29 8.67v36.77h30.26v-36.77a10.49 10.49 0 00-4.5-8.67 16.86 16.86 0 00-10.67-3.47z" fill="#201e48" data-color="2"></path>
        <path d="M390.74 236.45a30.36 30.36 0 0119.61 6.55q8.19 6.59 8.19 15.75v100.79a4.19 4.19 0 01-1.85 3.61 7.16 7.16 0 01-4.29 1.32c-4.36 0-6.53-1.65-6.53-4.93V258.76a10.65 10.65 0 00-4.31-8.67 16.6 16.6 0 00-10.82-3.47 16.82 16.82 0 00-10.63 3.47 10.46 10.46 0 00-4.5 8.67v100.78a4.18 4.18 0 01-1.84 3.61 7.21 7.21 0 01-4.3 1.32c-4.08 0-6.13-1.65-6.13-4.93V258.76a10.46 10.46 0 00-4.5-8.67 17.5 17.5 0 00-11-3.47 16.88 16.88 0 00-10.63 3.47 10.49 10.49 0 00-4.5 8.67v100.78a4.2 4.2 0 01-1.83 3.61 7.21 7.21 0 01-4.3 1.32 7.14 7.14 0 01-4.29-1.32 4.18 4.18 0 01-1.84-3.61V258.76q0-9.16 8-15.75t19.42-6.56a30.69 30.69 0 0112.27 2.3 35.25 35.25 0 019.4 5.91 29 29 0 019.2-5.91 31.12 31.12 0 0112-2.3z" fill="#201e48" data-color="2"></path>
        <path d="M444.18 194.11a6.74 6.74 0 014.31 1.47 4.4 4.4 0 011.84 3.45v17.07a4.37 4.37 0 01-1.84 3.44 6.69 6.69 0 01-4.31 1.48 6.57 6.57 0 01-4.28-1.48 4.3 4.3 0 01-1.83-3.44V199a4.33 4.33 0 011.83-3.45 6.62 6.62 0 014.28-1.44zm0 42.34a6.74 6.74 0 014.31 1.47 4.4 4.4 0 011.84 3.46v118.16a4.23 4.23 0 01-1.84 3.61 7.24 7.24 0 01-4.31 1.32 7.11 7.11 0 01-4.28-1.32 4.17 4.17 0 01-1.83-3.61V241.38a4.34 4.34 0 011.83-3.46 6.62 6.62 0 014.28-1.47z" fill="#201e48" data-color="2"></path>
        <path d="M496 364.47a30.87 30.87 0 01-19.62-6.41c-5.45-4.27-8.18-9.45-8.18-15.59a4.32 4.32 0 011.85-3.44 7.22 7.22 0 014.7-1.48 6.64 6.64 0 014.29 1.48 4.3 4.3 0 011.85 3.44 10.83 10.83 0 004.29 8.54 16.16 16.16 0 0010.82 3.6 16.74 16.74 0 0010.44-3.27 11 11 0 004.7-7.88L469 260.74a4.4 4.4 0 01-.82-2q0-9.16 8.18-15.75a32.64 32.64 0 0139.25 0q8.18 6.59 8.18 15.75a4.36 4.36 0 01-1.84 3.47 7.36 7.36 0 01-4.69 1.46 6.68 6.68 0 01-4.3-1.46 4.36 4.36 0 01-1.84-3.47 10.52 10.52 0 00-4.5-8.67 16.88 16.88 0 00-10.62-3.45 16.51 16.51 0 00-10.41 3.3 10.87 10.87 0 00-4.7 7.87l42.11 82.7a4.4 4.4 0 01.81 2c0 6.14-2.73 11.32-8.18 15.59a30.88 30.88 0 01-19.63 6.39z" fill="#201e48" data-color="2"></path>
        <path d="M578.38 354.61a7.32 7.32 0 014.72 1.49 4.33 4.33 0 011.83 3.44c0 3.28-2.19 4.93-6.55 4.93q-11.45 0-19.41-6.41c-5.32-4.27-8-9.45-8-15.59v-95.85h-15.11c-4.36 0-6.53-1.74-6.53-5.24a4.34 4.34 0 011.83-3.46 7.3 7.3 0 014.7-1.47H551V123.53a4.64 4.64 0 011.84-3.77 6.67 6.67 0 014.3-1.47 6.75 6.75 0 014.3 1.47 4.61 4.61 0 011.81 3.77v112.92h15.14a6.53 6.53 0 014.51 1.47 4.57 4.57 0 011.63 3.46c0 3.5-2 5.24-6.14 5.24h-15.15v95.85c0 3.28 1.52 6.14 4.52 8.54a16.36 16.36 0 0010.62 3.6z" fill="#201e48" data-color="2"></path>
        <path d="M611.39 305.71v36.76a10.83 10.83 0 004.29 8.54 16.19 16.19 0 0010.83 3.6 16.41 16.41 0 0010.64-3.6c3-2.4 4.5-5.26 4.5-8.54a4.19 4.19 0 011.84-3.6 7.1 7.1 0 014.3-1.32q6.53 0 6.52 4.92c0 6.14-2.72 11.32-8.17 15.59a33.23 33.23 0 01-39.24 0c-5.47-4.27-8.18-9.45-8.18-15.59v-83.71c0-6.11 2.71-11.36 8.18-15.75a32.62 32.62 0 0139.24 0q8.18 6.59 8.17 15.75v41.7c0 3.49-2.17 5.25-6.52 5.25zm15.12-59.09a16.65 16.65 0 00-10.83 3.47 10.63 10.63 0 00-4.29 8.67v36.77h30.26v-36.77a10.52 10.52 0 00-4.5-8.67 16.88 16.88 0 00-10.64-3.47z" fill="#201e48" data-color="2"></path>
        <path d="M680 364.47a7.14 7.14 0 01-4.27-1.32 4.16 4.16 0 01-1.84-3.61V258.76q0-9.16 8-15.75t19.42-6.56q11.87 0 19.83 6.56c5.3 4.39 8 9.64 8 15.75a4.34 4.34 0 01-1.84 3.47 6.71 6.71 0 01-4.29 1.46 6.56 6.56 0 01-4.51-1.46 4.62 4.62 0 01-1.63-3.47 10.52 10.52 0 00-4.5-8.67 17.47 17.47 0 00-11-3.47 16.9 16.9 0 00-10.64 3.47 10.51 10.51 0 00-4.49 8.67v100.78c-.13 3.28-2.17 4.93-6.24 4.93z" fill="#201e48" data-color="2"></path>
        <path d="M748.55 194.11a6.71 6.71 0 014.3 1.47 4.32 4.32 0 011.82 3.45v17.07a4.29 4.29 0 01-1.82 3.44 7 7 0 01-8.59 0 4.31 4.31 0 01-1.84-3.44V199a4.34 4.34 0 011.84-3.45 6.66 6.66 0 014.29-1.44zm0 42.34a6.71 6.71 0 014.3 1.47 4.32 4.32 0 011.82 3.46v118.16a4.17 4.17 0 01-1.82 3.61 7.65 7.65 0 01-8.59 0 4.18 4.18 0 01-1.84-3.61V241.38a4.35 4.35 0 011.84-3.46 6.66 6.66 0 014.29-1.47z" fill="#201e48" data-color="2"></path>
        <path d="M786.88 305.71v36.76a10.85 10.85 0 004.28 8.54 16.25 16.25 0 0010.84 3.6 16.43 16.43 0 0010.64-3.6c3-2.4 4.49-5.26 4.49-8.54a4.23 4.23 0 011.83-3.6 7.14 7.14 0 014.3-1.32q6.56 0 6.55 4.92c0 6.14-2.73 11.32-8.18 15.59a33.25 33.25 0 01-39.25 0c-5.47-4.27-8.18-9.45-8.18-15.59v-83.71c0-6.11 2.71-11.36 8.18-15.75a32.64 32.64 0 0139.25 0q8.18 6.59 8.18 15.75v41.7c0 3.49-2.18 5.25-6.55 5.25zM802 246.62a16.71 16.71 0 00-10.84 3.47 10.64 10.64 0 00-4.28 8.67v36.77h30.25v-36.77a10.56 10.56 0 00-4.49-8.67 16.9 16.9 0 00-10.64-3.47z" fill="#201e48" data-color="2"></path>
        <path d="M88.54 100.27a14.93 14.93 0 1114.91 14.45 14.69 14.69 0 01-14.91-14.45" fill="#69beab" data-color="1"></path>
        <path d="M77 25.82C77 11.56 89 0 103.73 0s26.69 11.56 26.69 25.82-11.95 25.84-26.69 25.84S77 40.1 77 25.82" fill="#69beab" data-color="1"></path>
        <path d="M82.88 25.82s0-.49-.1-1.36a7.61 7.61 0 010-1.58 10.71 10.71 0 01.22-2.07 12.92 12.92 0 01.61-2.39 18.46 18.46 0 011.08-2.58 20.84 20.84 0 011.59-2.53 25.09 25.09 0 012-2.36 24 24 0 012.43-2 19 19 0 012.62-1.55 19.59 19.59 0 012.65-1 14 14 0 012.48-.59 13.38 13.38 0 012.13-.23 10 10 0 011.64 0c.91.05 1.42.1 1.42.1s-.51.1-1.4.24a20.7 20.7 0 00-3.54.87 16.22 16.22 0 00-2.24.83c-.81.29-1.56.78-2.39 1.17s-1.59 1-2.34 1.56a23.69 23.69 0 00-2.2 1.85 21.57 21.57 0 00-1.92 2.14c-.61.72-1.09 1.51-1.61 2.26s-.91 1.53-1.2 2.3a15.59 15.59 0 00-.81 2.15 18.55 18.55 0 00-.89 3.43c-.15.86-.25 1.34-.25 1.34" fill="#cbe6f0" data-color="3"></path>
        <path d="M60.07 67.32c0-9.55 8-17.3 17.88-17.3s17.87 7.75 17.87 17.3-8 17.31-17.82 17.31-17.93-7.75-17.93-17.31" fill="#69beab" data-color="1"></path>
        <path d="M64 67.32s0-.33-.07-.91a7.61 7.61 0 010-1.06 6.57 6.57 0 01.16-1.35 8 8 0 01.4-1.6 11.89 11.89 0 01.72-1.72 13.07 13.07 0 011.08-1.7 15.45 15.45 0 011.35-1.58 14.68 14.68 0 011.65-1.4A14.22 14.22 0 0171 55a12.22 12.22 0 011.78-.68 9.07 9.07 0 011.66-.4 7.47 7.47 0 011.42-.15 5.83 5.83 0 011.1 0l1 .06s-.35.07-.94.16a12.6 12.6 0 00-2.37.59 12.27 12.27 0 00-1.51.56c-.54.19-1 .52-1.59.77a18.66 18.66 0 00-1.57 1 15.43 15.43 0 00-1.48 1.24 17.21 17.21 0 00-1.28 1.43c-.41.48-.73 1-1.08 1.51s-.61 1-.8 1.55a10.53 10.53 0 00-.58 1.46 12.42 12.42 0 00-.6 2.29c-.09.57-.17.9-.17.9" fill="#cbe6f0" data-color="3"></path>
    </g>
</svg>