<svg preserveAspectRatio="xMidYMid meet" data-bbox="0.04 0 1529.151 1356.212" viewBox="0.04 0 1529.151 1356.212" xmlns="http://www.w3.org/2000/svg" data-type="color" role="img">
    <g>
        <path d="M1502.14 713.58l-.28-.43c-1-1.49-4.45-6.51-18.09-26.2-10.54-15.2-20.07-29.45-28.34-42.35-8-12.44-17.1-28.81-27.16-48.65-9.7-19.14-17.09-37-22-53.12a47.58 47.58 0 00-19.75-27.33 55.15 55.15 0 00-12.14-6.17 52.37 52.37 0 004.18-15.53c1-9-.29-17.23-1.33-23.81-.32-2.06-.67-4.29-.87-6.13 9.6-20.07 16.75-43.63 20.78-68.59a318.21 318.21 0 001.94-86.34 303.67 303.67 0 00-23.55-88.59 260.35 260.35 0 00-54.09-79.72 266.34 266.34 0 00-89.14-59.26c3.42-7.69 7.39-20.56 1.41-32.94-5.17-10.69-15.93-17.08-28.77-17.08-6.4 0-13.36 1.47-21.91 4.62a47.78 47.78 0 01-17 3c-8.36 0-17.8-1.86-28.73-4-15.79-3.11-35.44-7-60.64-7a284.07 284.07 0 00-55.34 5.7 75.91 75.91 0 00-31.08 13.55C960.53 25 926.48 9.74 886.86.93a39.61 39.61 0 00-8.51-.93 39.2 39.2 0 00-8.52 77.47 202.26 202.26 0 0148.52 17.12c-23.72 13.58-43 35-57.39 63.88-15.1 30.27-18.45 58-16.82 83.07l-32.72-32.72c-8-7.58-19.34-11.75-33-11.75-18.6 0-37.15 8.64-53.19 22.79.07-1 .12-2.06.12-3.08a38.56 38.56 0 00-3-15.06c29.93-4 51.87-25.8 51.87-53.18 0-9.85-2.65-17.82-8-23.12l-68.14-68.24c-4.55-4.55-11-6.83-19-6.83-6.83 0-14.79 1.9-24.27 5.69v.38c0 2.27-8.72 7.2-14.4 7.58-10.62-10.24-15.92-17.06-30.33-17.06-8.34 0-16.68 2.66-26.16 8.34-19.33-5.31-37.53-8-54.21-8-73.93 0-133.45 51.94-133.45 116.77 0 23.12 7.2 42.46 20.85 56.1l58.39 58.39a41.68 41.68 0 01-11.38 10.61l-29.95-29.95h-14c-23.47 0-44.09 14.67-55.78 36.57l-9.94-9.94c-12-12-29.47-18.67-50.23-18.67-30.3 0-58.52 14.94-81.77 42.75-18.26-17.85-30.3-31.55-61-31.55-49.79.04-85.45 36.57-85.45 87.21a94.54 94.54 0 0027.39 66.83l47.32 47.32-9.13 22a112.88 112.88 0 00-47.32-10.8c-52.3 0-94.22 44-94.22 98.38-.04 21.58 7.02 40.7 20.3 53.54l74.71 74.72c14.12 14.11 35.28 22 59.36 22 35.28 0 63.09-16.61 84.68-49.81a290 290 0 0023.1 21C168.36 742.76 107 818 119.89 893c4.75 27.51 17.15 49.08 36.9 63l91.53 64.59c-12.74 33.42-28.27 54-47.32 64.25l-91.53-64.58-25.3 31c-21.39 26.82-31.07 71.28-24 112.27 6.2 35.94 25.79 69 52.69 87.48l118.52 83.64c25.68 18.12 60.48 25.42 94.17 19.6 48.29-8.33 85.74-46 111.5-111.18 55.87 38.93 86.57 49.25 129.25 41.88 50-8.63 89.31-43.74 112.67-94.56l65.78 46.42c14.39 9.66 32.4 13.49 50.93 10.29 24.52-4.23 45.68-22.45 62.57-53l15.19 10.72c5.75 17 16 31.52 28.94 40.63l118.52 83.64c13.82 9.76 30.52 12.66 50.73 9.17 25.84-4.46 37.86-15.21 50.52-45.73-11.64-20.54-18-37.36-21.89-59.83-3.3-19.09-4.07-40.35-3.26-62.47 15 13 34.49 18.92 53.58 15.62 28.08-4.84 53.32-29.44 73-69.84l6.28-.5c47.73-8.24 59.45-87.75 67.85-126.21l-46.09-32.52-1-5.62a136.87 136.87 0 00-3.5-15.17c31.3 27 68.55 40.75 110.92 40.75 47 0 87.75-16.87 121-50.15s50.15-74 50.15-121a168.57 168.57 0 00-27.05-92.01zm-172.5 136.66a11.55 11.55 0 01-19.72-8.15 12 12 0 011.64-6c1-1.36 2.26-3.26 4.22-6.18s3.89-5.77 5.69-8.46c1.84 2.75 3.75 5.59 5.69 8.47s3.25 4.81 4.22 6.17a12 12 0 011.64 6 10.37 10.37 0 01-3.38 8.15z" fill="#000000" data-color="1"></path>
        <path d="M371.27 337.58c0-31.09 20.85-62.93 51.56-62.93 0 0 1.14 33 34.12 33 55.73 0 86.05-153.92 115.63-210.78a72.46 72.46 0 00-24.27-4.17c-40.18 0-65.58 37.15-65.58 68.24 0 18.57 8.72 34.87 28.81 40.18 0 0-2.28 27.3-34.88 27.3-42.84 0-63.31-28.44-63.31-61.8 0-47 40.94-103.87 118.28-103.87 17.06 0 36.4 3 57.63 9.47 5.3-4.17 15.16-9.85 21.61-9.85 10.23 0 16.68 3.41 16.68 13.27l-.38 2.65a44.25 44.25 0 0012.13 1.52c17.44 0 32.6-10.62 32.6-21.61l-.38-2.28c15.17 0 22.75 11.38 22.75 24.64 0 18.2-15.17 40.19-46.25 40.19-12.51 0-27.68-3.41-45.87-12.13-44.74 64.07-44.36 290-160 290-50.79 0-70.88-30.33-70.88-61.04z" fill="#ffcb4c" data-color="2"></path>
        <path d="M624.78 352.88c0-38.67 40.22-86.44 40.22-106.88 0-5.68-3.41-9.1-11.75-9.1-14 0-31.47 40.19-38.29 59.53-2.28 7.2-2.66 16.3-2.66 25v4.93c0 6.82 0 12.88-1.51 17.06-3 9.47-12.13 37.15-38.29 37.15-17.06 0-19.34-8.34-19.34-22 0-33.36 62.56-142.17 73.55-212.3 3-19.72 8.34-21.23 18.58-21.23 13.64 0 28 7.2 28 23.5 0 21.61-28 50.42-32.22 78.48 8.72-6.83 16.68-15.55 31.46-15.55 18.2 0 31.09 14.79 31.09 28.82 0 32.22-29.19 62.93-29.19 76.2 0 3.79 1.89 6.06 7.58 6.06 8.72 0 21.61-26.15 21.61-26.15h17.08s-30.7 84.16-68.62 84.16c-20.85 0-27.3-12.51-27.3-27.68z" fill="#ffcb4c" data-color="2"></path>
        <path d="M694.94 327.1c0-49.28 37.91-115.63 87.95-115.63 21.61 0 29.57 14 29.57 30.33 0 25.4-23.51 64.83-62.17 64.83-9.1 0-12.14-5.69-12.14-5.69s-3 2.66-3 10.62c0 9.1 3.79 17.82 26.54 17.82 29.57 0 44-33 44-33h17.81c-12.51 33.73-38.29 84.16-82.26 84.16-32.66.02-46.3-23.87-46.3-53.44zm93.64-82.64c0-5.31-3-9.48-8.35-9.48-6.44 0-12.51 6.06-24.26 22.37l1.9.75a47.06 47.06 0 0011.75 1.9c15.16 0 18.96-9.48 18.96-15.54z" fill="#ffcb4c" data-color="2"></path>
        <path d="M16.84 589.3c0-39 29.06-82.6 73.06-82.6 19.51 0 38.19 2.07 60.18 18.26 8.72-21.17 18.68-41.92 27.82-72.64-59.36-11.62-83.85-50.64-85.1-78.45 0-45.66 24.49-79.69 73.06-79.69 41.09 0 47.32 42.75 47.32 42.75h-.42c-34.86 0-48.15 20.75-48.15 41.51 0 17 9.13 33.62 22.83 38.6C210.27 346.48 246 283 305.74 283c36.94 0 54 24.9 54 56 0 52.3-48.15 122.45-132 122.45l-18.26-1.24c-10 30.71-18.26 60.19-30.3 90.49 18.26 15.35 51.05 24.07 58.11 24.07 39.43 0 45.25-25.74 45.25-25.74 17.43 0 26.15 14.12 26.15 31.55 0 27.4-21.59 62.68-63.93 62.68s-77.2-51.47-81.35-56.87c-19.51 39.44-43.17 62.68-83 62.68-44.89 0-63.57-28.23-63.57-59.77zm120-34.45c-3.73-4.57-9.54-8.72-14.94-8.72-8.3 0-13.28 5.4-13.28 11.21s3.32 11.2 14.94 11.2c6.19 0 10.75-6.22 13.24-13.69zm164-167.7c0-12-7.47-22-22.42-22-27 0-44.41 28.65-56.45 63.51l10.38.83c36.03 0 68.41-23.24 68.41-42.34z" fill="#ffcb4c" data-color="2"></path>
        <path d="M283.87 571.86c0-54 41.51-126.6 96.3-126.6 23.66 0 32.38 15.36 32.38 33.21 0 27.81-25.74 71-68.08 71-10 0-13.28-6.23-13.28-6.23s-3.32 2.91-3.32 11.63c0 10 4.15 19.51 29.06 19.51 32.37 0 48.14-36.12 48.14-36.12h19.51c-13.69 36.94-41.92 92.15-90.07 92.15-35.7-.02-50.64-26.17-50.64-58.55zm102.53-90.48c0-5.81-3.33-10.38-9.14-10.38-7.05 0-13.69 6.64-26.56 24.49l2.07.83a51.53 51.53 0 0012.87 2.08c16.6 0 20.76-10.4 20.76-17.02z" fill="#ffcb4c" data-color="2"></path>
        <path d="M531.82 600.09c0-41.09 38.6-94.64 38.6-117.47 0-4.15-.41-8.71-8.71-8.71-5.82 0-17 9.54-24.49 25.32-24.49 53.54-29.06 77.62-29.06 91.31 0 9.13 2.08 13.7 2.08 18.68l-1.24 6.23c-.83 2.49-9.55 14.94-27 14.94-19.51 0-26.56-7.89-26.56-20.75 0-34.87 53.13-102.94 53.13-126.19 0-5.39-2.49-8.3-8.72-8.3-13.28 0-39.43 29.47-49.4 60.19-3.32 10.79-3.73 20.34-3.73 28.64v9.13c0 6.23-.42 11.21-2.08 16.19-3.73 12-18.26 41.09-41.92 41.09-15.77 0-21.17-11.62-21.17-24.49 0-34.45 43.17-97.13 52.72-136.56 4.15-15.36 10.37-24.08 27-24.08 9.54 0 18.26 7.48 18.26 16.61 0 0 19.51-16.61 39.43-16.61 16.61 0 22.42 10.38 22.83 20.76 14.11-12.45 26.57-20.76 39.43-20.76 13.29 0 29.47 9.14 29.47 29.48 0 35.28-24.9 71-24.9 85.09 0 4.15 2.49 6.64 8.72 6.64 11.62 0 23.24-28.23 23.24-28.23h19.51s-34 92.15-71.81 92.15c-25.33 0-33.63-17.02-33.63-30.3z" fill="#ffcb4c" data-color="2"></path>
        <path d="M611.25 574.77c0-47.73 34.86-110.83 88-125.77l3.74-.41 4.56.83a35 35 0 0115.36-4.16c29.06 0 39.43 17.44 39.43 41.1 0 34.86-17 66-17 66.41l1.24-.41c11.21 0 16.6-14.12 16.6-14.12h18.68c-13.69 35.29-29.47 50.23-51.47 50.23h-4.15c-14.94 21.17-37.77 41.92-66 41.92-34.05 0-48.99-24.49-48.99-55.62zm88.82-4.15c-16.19-13.28-23.24-35.28-23.24-56 0-6.22.41-12.86 2.07-18.68-10.37 15.36-16.19 34.46-16.19 49.4 0 16.19 6.65 28.64 23.66 28.64 8.72-.04 13.7-3.36 13.7-3.36zm33.21-68.07c0-14.12-4.57-22-12.45-22-13.7 0-22.42 15.35-22.42 32 0 14.11 7.06 27 22 34.86 9.13-16.22 12.87-31.58 12.87-44.86z" fill="#ffcb4c" data-color="2"></path>
        <path d="M815.13 603c0-42.34 43.59-97.55 43.59-120 0-6.23-3.32-10-12.46-10-16.6 0-37.35 52.3-41.5 65.16a97.9 97.9 0 00-2.91 25.84v10.38c0 25.73-19.09 56-44 56-15.77 0-21.17-11.21-21.17-24.07 0-32.38 42.76-98.38 53.13-134.49 5-17.43 11.21-26.57 26.15-26.57 10.79 0 19.51 5 19.51 14.95v1.24s13.28-16.19 32.38-16.19c19.92 0 30.71 14.95 30.71 29.06 0 35.28-29 71.81-29 86.34 0 4.15 2.07 6.22 8.3 6.22 12 0 23.66-28.64 23.66-28.64h18.68s-32.38 92.15-75.55 92.15c-16.65.01-29.52-11.2-29.52-27.38z" fill="#ffcb4c" data-color="2"></path>
        <path d="M85.26 1155.2c-10.17-59 19.41-95.3 19.41-95.3s18.89 59.2 85.15 47.76c113.43-19.57 91.52-230.33 186.72-358.94-19.72-7-33.21-8.15-59-3.69-70.2 12.11-88 63.18-82.46 95.19 3.68 21.34 12.8 27.28 28.52 24.57 12.36-2.14 24.65-14.67 24.65-14.67l1.92 7.77c8.53 49.42-24.37 80-60.87 86.26s-75.85-10.62-83.79-56.67c-14-80.86 67-154.4 160.81-170.58 33.69-5.82 61.13-7.66 92.39 2.56 0 0 42.74-60.58 96.65-69.88s71 16.08 75.67 43c4.36 25.27-9.81 53.74-37.89 58.59-25.27 4.36-38.61-2.59-43.13-22.05 6.16-4.54 8.29-8.95 7.61-12.88-1.07-6.18-9.24-10-19.35-8.23-10.67 1.84-24.3 10-37.87 28.51 66.54 37.09 108 113.21 121.38 190.7 19.38 112.31-17.41 230.85-107.82 246.45-66.26 11.43-115.08-23.51-122.64-67.31-7.17-41.56 11.58-87 63.81-96-4.72 9.49-6.45 19.62-5 28 3.1 18 18.16 31.56 42.31 27.39 44.92-7.75 66.62-96.5 52.28-179.61-8.43-48.85-30.42-92.48-66.92-119.72-90.26 123.71-70.21 451-204.6 476.53-99.98 17.3-124.06-65.29-127.94-87.75z" fill="#ffcb4c" data-color="2"></path>
        <path d="M628.29 1110c-9.4-54.47 33.17-129.48 28.9-154.19-2.23-12.91-5.25-17-22.87-18.6l-28.06 88.69-25.37 3.8 28.28-100.87s-12-2.56-15.11-20.53c-4.26-24.71 10.6-62.55 47.1-68.84 21.34-3.69 34.41 5 35.38 10.66.41 5.71-11.44 14.12-9 28.16 1 5.61 13 15.1 26.5 12.77 10.66-1.84 20.62 2.23 23.33 18 3.3 19.09-30 97.7-24.75 128 1.36 7.86 5 12.43 10.66 11.47 20.21-3.49 29.25-45 29.25-45l25.27-4.36s-16.67 131.25-81.25 142.39c-28.66 4.96-45.45-15.27-48.26-31.55z" fill="#ffcb4c" data-color="2"></path>
        <path d="M735.14 1054c-11.14-64.58 21.3-158.08 89.69-190.69l5-1.44 6.37.06c4.57-3.68 12.51-7.94 19.81-9.2 39.31-6.79 57.42 14.38 62.94 46.39 8.14 47.17-7.62 93.26-7.52 93.82l1.59-.85c15.16-2.62 19.16-23 19.16-23l25.27-4.36c-10.29 50.93-28.14 74.82-57.9 80l-5.62 1c-15.27 32.12-41.31 65.53-79.5 72.12-46.09 7.88-72.02-21.77-79.29-63.85zm119.21-26.35c-25-14.2-39.69-42.31-44.53-70.39-1.46-8.42-2.44-17.5-1.55-25.75-10.46 23.2-13.86 50.38-10.37 70.6 3.78 21.9 15.67 37.2 38.69 33.23 11.79-2.07 17.76-7.72 17.76-7.72zm29-99.85c-3.29-19.09-11.31-28.7-22-26.86-18.53 3.2-26.74 26-22.87 48.48 3.3 19.09 15.85 34.85 37.91 42 8.61-24.03 10.09-45.68 6.99-63.65z" fill="#ffcb4c" data-color="2"></path>
        <path d="M908.17 1214.36a70.19 70.19 0 01-11.77-28c-3.78-21.9-.51-56.58 9.34-103.38 9.94-46.25 20.08-91.37 31.54-135.56 15.39-61.64 22.78-95.87 21.52-103.17l-2.11-8.89 17.21-4.13c6.18-1.07 11.81 1.43 17 8 2.27 3.08 4.65 10.19 7.25 21.88a153.73 153.73 0 0114-19.19c11.07-12.9 26.48-20.76 44.45-23.86 32.57-5.62 52.35 11.78 59.23 51.65q7.11 41.28-5.1 91.09c9-1.55 15.58-10.2 20.36-26.06l25.37-3.8a290.43 290.43 0 01-10.33 37.06c-9.51 25.35-20.39 39.38-32.74 41.51-5.06.87-9.84 0-15.57-3.1-7.67 19.25-16.94 35.88-27.92 49.34-10.88 14-22.82 21.87-34.62 23.9-16.28 2.81-29.24-1.89-39.89-13.35s-17-24.82-19.82-41.11a99.94 99.94 0 01-1.06-23l-5.75 27q-12.54 68.09-2.94 123.68c3.77 21.9 9.88 40.51 19 56.29a36.64 36.64 0 01-5.85 9.68c-5.11 7.24-14.73 11.8-28.77 14.22-17.45 3.08-31.26-3.21-42.03-18.7zm118.26-273.11a42.84 42.84 0 0113.21-.54 35.32 35.32 0 0110.51 4c9.3-29.93 12.72-53.66 9.72-71.07-2-11.79-7.6-17.19-16-15.74-12.36 2.14-26 20.11-40.54 53.26a556.31 556.31 0 00-22.13 62.8c8.96-18.36 23.89-29.03 45.23-32.71zm7.64 40.9l5-7.81a17.26 17.26 0 00-5.26-3.72 23.62 23.62 0 00-11.81-1.42 20.32 20.32 0 00-12.14 6.71q-4.18 5.94-3.31 11c.68 3.93 5.1 6.06 13.15 5.83 5.62-.99 10.75-4.74 14.37-10.59z" fill="#ffcb4c" data-color="2"></path>
        <path d="M1026.16 58.22c92-18.11 120.07 18 165.56 1.19s1.32 40.06-10.59 49.84-115.62 68.31-160.6 46.84-45.23-87.85 5.63-97.87" fill="#5c903f" data-color="3"></path>
        <path d="M1077.23 238.07a14.17 14.17 0 01-11.37-5.68c-9.76-13-18.58-27.77-27.92-43.41-32.21-53.91-68.73-115-162.67-135.91a14.2 14.2 0 016.16-27.73c105.89 23.52 147.48 93.14 180.9 149.08 8.94 15 17.39 29.1 26.25 40.92a14.2 14.2 0 01-11.35 22.73" fill="#77b253" data-color="4"></path>
        <path d="M1351.37 458.73a4 4 0 000-.61c39.4-75.78 37.62-214.68-47.53-299.82-82.39-82.39-194.31-82.69-266.58-57.77-22.42 8.72-41.43.94-54.2 13.71-12.51 12.51-5 38.62-10.14 54.25-45 73.89-48.37 185 38.17 271.55 70.49 70.49 148.27 97.18 283.82 68.92h.11c16.32-3.09 41.9 7.45 50.67-1.33 15.43-15.41 4.39-33.48 5.72-48.87" fill="#ffcb4c" data-color="2"></path>
        <path d="M1481.06 727q-1.71-2.58-17.84-25.84t-28.84-43.11q-12.7-19.85-28.41-50.82t-23.69-57.53a22.59 22.59 0 00-9.57-13.42 26.3 26.3 0 00-14.69-4.85 25.65 25.65 0 00-14.56 4.85 24 24 0 00-9.71 13.42q-8 26.55-23.7 57.53t-28.4 50.82q-12.7 19.84-28.84 43.11T1235 727q-23.13 37.13-23.13 78.51 0 60.54 42.83 103.35t103.3 42.86q60.51 0 103.35-42.83t42.83-103.35q.02-42.25-23.12-78.54zm-133.75 140.92a36.55 36.55 0 01-62.39-25.83 37.52 37.52 0 015.71-19.7c.2-.2 1.67-2.33 4.43-6.42s5.19-7.71 7.28-10.85a126.34 126.34 0 007.14-12.57 89.41 89.41 0 006-14.41c.76-3 2.76-4.57 6-4.57s5.24 1.53 6 4.57a89.41 89.41 0 006 14.41 128.59 128.59 0 007.13 12.57q3.15 4.71 7.28 10.85c2.76 4.09 4.24 6.22 4.43 6.42a37.52 37.52 0 015.71 19.7 35.21 35.21 0 01-10.72 25.83z" fill="#ffcb4c" data-color="2"></path>
        <path d="M980.74 104.3s-60.65-8.38-97.4 65.32 8.26 129.61 4.1 179.73 22.25 18 37.23-6.33 60.09-69.51 70.15-131.66-1-91.71-14.08-107.06" fill="#77b253" data-color="4"></path>
    </g>
</svg>