<svg width="1394" height="233" viewBox="0 0 1394 233" fill="none" xmlns="http://www.w3.org/2000/svg">
<path d="M41.9697 65.2207L43.332 83.5361C54.9368 69.3076 70.6286 62.1934 90.4072 62.1934C111.498 62.1934 125.979 70.5186 133.85 87.1689C145.354 70.5186 161.752 62.1934 183.044 62.1934C200.804 62.1934 214.024 67.3903 222.702 77.7842C231.381 88.0771 235.72 103.618 235.72 124.405V229H191.823V124.557C191.823 115.273 190.007 108.512 186.374 104.273C182.741 99.9342 176.333 97.7646 167.15 97.7646C154.032 97.7646 144.95 104.021 139.904 116.534L140.056 229H96.3105V124.708C96.3105 115.222 94.4437 108.36 90.71 104.122C86.9762 99.8838 80.6188 97.7646 71.6377 97.7646C59.2256 97.7646 50.2445 102.911 44.6943 113.204V229H0.949219V65.2207H41.9697ZM396.774 183.59H317.155L302.019 229H253.732L335.773 8.60938H377.854L460.349 229H412.062L396.774 183.59ZM329.416 146.808H384.514L356.813 64.3125L329.416 146.808ZM526.345 151.349V229H480.935V8.60938H566.911C583.461 8.60938 597.992 11.6367 610.505 17.6914C623.119 23.7461 632.806 32.374 639.567 43.5752C646.328 54.6755 649.709 67.3398 649.709 81.5684C649.709 103.163 642.292 120.217 627.458 132.73C612.725 145.143 592.29 151.349 566.154 151.349H526.345ZM526.345 114.566H566.911C578.92 114.566 588.052 111.741 594.309 106.09C600.666 100.439 603.845 92.3659 603.845 81.8711C603.845 71.0736 600.666 62.3447 594.309 55.6846C587.951 49.0244 579.172 45.5934 567.971 45.3916H526.345V114.566ZM729.328 229H683.918V8.60938H729.328V229ZM894.167 192.521H990.588V229H848.757V8.60938H894.167V192.521ZM1060.07 229H1016.17V65.2207H1060.07V229ZM1013.6 22.8379C1013.6 16.2786 1015.77 10.8799 1020.1 6.6416C1024.54 2.40332 1030.55 0.28418 1038.12 0.28418C1045.58 0.28418 1051.54 2.40332 1055.98 6.6416C1060.42 10.8799 1062.64 16.2786 1062.64 22.8379C1062.64 29.498 1060.37 34.9473 1055.83 39.1855C1051.39 43.4238 1045.48 45.543 1038.12 45.543C1030.75 45.543 1024.8 43.4238 1020.26 39.1855C1015.82 34.9473 1013.6 29.498 1013.6 22.8379ZM1157.55 175.567L1187.97 65.2207H1233.68L1178.43 229H1136.66L1081.41 65.2207H1127.12L1157.55 175.567ZM1326.32 232.027C1302.3 232.027 1282.73 224.661 1267.59 209.928C1252.55 195.195 1245.04 175.567 1245.04 151.046V146.808C1245.04 130.359 1248.21 115.676 1254.57 102.76C1260.93 89.7422 1269.91 79.752 1281.52 72.7891C1293.22 65.7253 1306.54 62.1934 1321.48 62.1934C1343.88 62.1934 1361.49 69.2572 1374.3 83.3848C1387.22 97.5124 1393.68 117.543 1393.68 143.478V161.339H1289.39C1290.8 172.035 1295.04 180.613 1302.1 187.071C1309.27 193.53 1318.3 196.759 1329.2 196.759C1346.05 196.759 1359.22 190.654 1368.7 178.443L1390.2 202.511C1383.64 211.795 1374.76 219.06 1363.56 224.308C1352.36 229.454 1339.94 232.027 1326.32 232.027ZM1321.33 97.6133C1312.65 97.6133 1305.58 100.54 1300.13 106.393C1294.79 112.245 1291.35 120.621 1289.84 131.52H1350.69V128.038C1350.49 118.351 1347.86 110.883 1342.82 105.636C1337.77 100.287 1330.61 97.6133 1321.33 97.6133Z" fill="white"/>
</svg>
