<svg preserveAspectRatio="xMidYMid meet" data-bbox="42.728 36.436 302.593 769.704" viewBox="0 0 381.05 841.89" xmlns:xlink="http://www.w3.org/1999/xlink" xmlns="http://www.w3.org/2000/svg" data-type="ugc" role="img" aria-labelledby="svgcid-riwcn1-bz32ga"><title id="svgcid-riwcn1-bz32ga"></title>
    <g>
        <defs>
            <linearGradient gradientUnits="userSpaceOnUse" y2="108.19" x2="114.35" y1="100.33" x1="115.74" id="svgcid--37dfbwe9ikae">
                <stop stop-color="#f18f34" offset="0"></stop>
                <stop stop-color="#f6b02f" offset=".25"></stop>
                <stop stop-color="#fbd22a" offset=".57"></stop>
                <stop stop-color="#fee727" offset=".83"></stop>
                <stop stop-color="#ffef26" offset="1"></stop>
            </linearGradient>
            <linearGradient gradientUnits="userSpaceOnUse" y2="498.79" x2="260.85" y1="660.7" x1="260.85" id="svgcid--x0n1at-obhffd">
                <stop stop-color="#ffef26" offset="0"></stop>
                <stop stop-color="#fee727" offset=".17"></stop>
                <stop stop-color="#fbd22a" offset=".43"></stop>
                <stop stop-color="#f6b02f" offset=".75"></stop>
                <stop stop-color="#f18f34" offset="1"></stop>
            </linearGradient>
            <linearGradient xlink:href="#svgcid--x0n1at-obhffd" y2="526.15" x2="236.74" y1="789.92" x1="236.74" id="svgcid-otwsyvot5fdp"></linearGradient>
            <linearGradient xlink:href="#svgcid--x0n1at-obhffd" y2="519.81" x2="205.26" y1="705.1" x1="205.26" id="svgcid--7l2gomt8p2zv"></linearGradient>
            <linearGradient gradientUnits="userSpaceOnUse" y2="149.51" x2="125.27" y1="149.51" x1="51.43" id="svgcid--ks2zjt5ntboy">
                <stop stop-color="#ffee30" offset="0"></stop>
                <stop stop-color="#fde53c" offset=".3"></stop>
                <stop stop-color="#f9cd5c" offset=".83"></stop>
                <stop stop-color="#f8c467" offset="1"></stop>
            </linearGradient>
            <linearGradient xlink:href="#svgcid--37dfbwe9ikae" y2="329.58" x2="336.44" y1="329.58" x1="313.5" id="svgcid--xy0px81xsy69"></linearGradient>
            <linearGradient xlink:href="#svgcid--37dfbwe9ikae" y2="287.15" x2="330.6" y1="287.15" x1="299.56" id="svgcid-cr87e7bvz7uc"></linearGradient>
            <linearGradient xlink:href="#svgcid--37dfbwe9ikae" y2="244.81" x2="320.16" y1="244.81" x1="287.89" id="svgcid--rwj1v6-b5m682"></linearGradient>
            <linearGradient xlink:href="#svgcid--37dfbwe9ikae" y2="168.1" x2="293.44" y1="168.1" x1="276.58" id="svgcid-1vywsqig8s8r"></linearGradient>
            <linearGradient xlink:href="#svgcid--37dfbwe9ikae" y2="453.28" x2="232.56" y1="453.28" x1="215.4" id="svgcid-s0v2uc-gbjx1j"></linearGradient>
            <linearGradient xlink:href="#svgcid--37dfbwe9ikae" y2="447.25" x2="320.74" y1="447.25" x1="236.4" id="svgcid-e7tx3q-915hmv"></linearGradient>
            <linearGradient xlink:href="#svgcid--37dfbwe9ikae" y2="407.11" x2="157.73" y1="407.11" x1="108.47" id="svgcid-oog8kpy5tabe"></linearGradient>
            <linearGradient xlink:href="#svgcid--37dfbwe9ikae" y2="364.02" x2="150.12" y1="364.02" x1="101.83" id="svgcid-ofdz9z62atg5"></linearGradient>
            <linearGradient xlink:href="#svgcid--37dfbwe9ikae" y2="271.48" x2="149.1" y1="271.48" x1="100.59" id="svgcid--t7mpqk-vccyad"></linearGradient>
            <linearGradient xlink:href="#svgcid--37dfbwe9ikae" y2="303.04" x2="294.67" y1="303.04" x1="254.39" id="svgcid-brjiot26iak6"></linearGradient>
            <linearGradient xlink:href="#svgcid--37dfbwe9ikae" y2="374.05" x2="320.3" y1="374.05" x1="267.09" id="svgcid-9pkjmv-t19y5d"></linearGradient>
            <linearGradient xlink:href="#svgcid--37dfbwe9ikae" y2="412.48" x2="264.79" y1="412.48" x1="216.28" id="svgcid--c3naaye5g59d"></linearGradient>
            <linearGradient xlink:href="#svgcid--37dfbwe9ikae" y2="270.64" x2="197.29" y1="270.64" x1="149.48" id="svgcid-86ao79-uncfnn"></linearGradient>
            <linearGradient xlink:href="#svgcid--37dfbwe9ikae" y2="170.15" x2="270.63" y1="170.15" x1="258.62" id="svgcid-vrcheq-opqdmr"></linearGradient>
            <linearGradient xlink:href="#svgcid--37dfbwe9ikae" y2="213.83" x2="270.62" y1="213.83" x1="240.43" id="svgcid-wy5tji-vbmila"></linearGradient>
            <linearGradient xlink:href="#svgcid--37dfbwe9ikae" y2="320.4" x2="251.56" y1="320.4" x1="203.94" id="svgcid-k3f3uva7hj5r"></linearGradient>
            <linearGradient xlink:href="#svgcid--37dfbwe9ikae" y2="267.49" x2="242.03" y1="267.49" x1="202.12" id="svgcid--bm9i86-ob0w2f"></linearGradient>
            <linearGradient xlink:href="#svgcid--37dfbwe9ikae" y2="187.73" x2="186.23" y1="187.73" x1="176.66" id="svgcid-bbyuv3cza7vr"></linearGradient>
            <linearGradient xlink:href="#svgcid--37dfbwe9ikae" y2="175.96" x2="253.36" y1="175.96" x1="242.35" id="svgcid--cld8a2mfgndg"></linearGradient>
            <linearGradient xlink:href="#svgcid--37dfbwe9ikae" y2="184" x2="201.48" y1="184" x1="192.98" id="svgcid-yxb0n1fgvqtr"></linearGradient>
            <linearGradient xlink:href="#svgcid--37dfbwe9ikae" y2="180.42" x2="218.95" y1="180.42" x1="207.75" id="svgcid--kw5wvf-plqgcw"></linearGradient>
            <linearGradient xlink:href="#svgcid--37dfbwe9ikae" y2="177.48" x2="238.05" y1="177.48" x1="225.14" id="svgcid--grlw12brxs8j"></linearGradient>
            <linearGradient xlink:href="#svgcid--37dfbwe9ikae" y2="188.43" x2="169.45" y1="188.43" x1="157.57" id="svgcid--3qxqi0-kqlq5e"></linearGradient>
            <linearGradient xlink:href="#svgcid--37dfbwe9ikae" y2="219.39" x2="237.3" y1="219.39" x1="183.6" id="svgcid-lalvdg4frvxk"></linearGradient>
            <linearGradient xlink:href="#svgcid--37dfbwe9ikae" y2="316.71" x2="203.42" y1="316.71" x1="153.13" id="svgcid-geaxp55950b"></linearGradient>
            <linearGradient xlink:href="#svgcid--37dfbwe9ikae" y2="373.92" x2="258.5" y1="373.92" x1="207.03" id="svgcid--sx4122q9sjxa"></linearGradient>
            <linearGradient xlink:href="#svgcid--37dfbwe9ikae" y2="343.06" x2="308.31" y1="343.06" x1="261.62" id="svgcid-nudfoe9555ow"></linearGradient>
            <linearGradient xlink:href="#svgcid--37dfbwe9ikae" y2="252.99" x2="281.08" y1="252.99" x1="248.86" id="svgcid--wbd03b-gmcsoi"></linearGradient>
            <linearGradient xlink:href="#svgcid--37dfbwe9ikae" y2="188.21" x2="150.66" y1="188.21" x1="134.93" id="svgcid--a12ceabgbaga"></linearGradient>
            <linearGradient xlink:href="#svgcid--37dfbwe9ikae" y2="228.08" x2="188.12" y1="228.08" x1="153.94" id="svgcid-s1lwl3175smb"></linearGradient>
            <linearGradient xlink:href="#svgcid--37dfbwe9ikae" y2="319.59" x2="150.58" y1="319.59" x1="99.9" id="svgcid--use2wj-dko458"></linearGradient>
            <linearGradient xlink:href="#svgcid--37dfbwe9ikae" y2="365.82" x2="201.55" y1="365.82" x1="154.37" id="svgcid--mu3lg1n510zb"></linearGradient>
            <linearGradient xlink:href="#svgcid--37dfbwe9ikae" y2="404.27" x2="207.99" y1="404.27" x1="166.27" id="svgcid--eyuaibks8ncu"></linearGradient>
            <linearGradient xlink:href="#svgcid--37dfbwe9ikae" y2="438.58" x2="217.87" y1="438.58" x1="199.39" id="svgcid-lvxkluhwyw3"></linearGradient>
            <linearGradient xlink:href="#svgcid--37dfbwe9ikae" y2="442.28" x2="276.89" y1="442.28" x1="226.66" id="svgcid--wlq8pj-ktf330"></linearGradient>
            <linearGradient xlink:href="#svgcid--37dfbwe9ikae" y2="207.49" x2="299.43" y1="207.49" x1="272.15" id="svgcid-4sg2z9yv80pn"></linearGradient>
            <linearGradient xlink:href="#svgcid--37dfbwe9ikae" y2="173.73" x2="161.98" y1="163.5" x1="163.79" id="svgcid-ux4kbbd4va7u"></linearGradient>
            <linearGradient xlink:href="#svgcid--37dfbwe9ikae" y2="88.9" x2="112.73" y1="75.65" x1="115.06" id="svgcid--gmjkktwjxozm"></linearGradient>
            <linearGradient xlink:href="#svgcid--37dfbwe9ikae" y2="99.2" x2="110.66" y1="89.66" x1="112.35" id="svgcid--g16ur4czij3s"></linearGradient>
            <linearGradient xlink:href="#svgcid--37dfbwe9ikae" y2="175.36" x2="143.11" y1="158.05" x1="146.17" id="svgcid-iyd91m-9rfs6j"></linearGradient>
            <linearGradient xlink:href="#svgcid--37dfbwe9ikae" y2="99.79" x2="121.79" y1="87.26" x1="124" id="svgcid--mwhxri-c85xux"></linearGradient>
            <linearGradient xlink:href="#svgcid--37dfbwe9ikae" y2="86.85" x2="129.99" y1="77.28" x1="131.68" id="svgcid--3o6hymuwc79b"></linearGradient>
            <linearGradient xlink:href="#svgcid--37dfbwe9ikae" y2="76.34" x2="140.99" y1="64.13" x1="143.14" id="svgcid--20ej2senbe3h"></linearGradient>
            <linearGradient xlink:href="#svgcid--37dfbwe9ikae" y2="71.07" x2="164.16" y1="60.38" x1="166.04" id="svgcid--ghkfuv-t1arq8"></linearGradient>
            <linearGradient xlink:href="#svgcid--37dfbwe9ikae" y2="67.84" x2="182.34" y1="55.88" x1="184.45" id="svgcid-ksf6kj-1lkrx5"></linearGradient>
            <linearGradient xlink:href="#svgcid--37dfbwe9ikae" y2="65.66" x2="200.58" y1="53.19" x1="202.78" id="svgcid-m8keh09xmyzp"></linearGradient>
            <linearGradient xlink:href="#svgcid--37dfbwe9ikae" y2="77.16" x2="213.87" y1="66.81" x1="215.7" id="svgcid--hwlbwq-y0d28f"></linearGradient>
            <linearGradient xlink:href="#svgcid--37dfbwe9ikae" y2="82.32" x2="229.33" y1="72.75" x1="231.02" id="svgcid-b5hh9j-qx54kr"></linearGradient>
            <linearGradient xlink:href="#svgcid--37dfbwe9ikae" y2="105.89" x2="240.55" y1="94.54" x1="242.56" id="svgcid--ue3y2cogoqgp"></linearGradient>
            <linearGradient xlink:href="#svgcid--37dfbwe9ikae" y2="146.86" x2="256.34" y1="133.34" x1="258.72" id="svgcid-vx18x2-j0vh6h"></linearGradient>
            <linearGradient xlink:href="#svgcid--37dfbwe9ikae" y2="162.76" x2="163.01" y1="149" x1="165.44" id="svgcid--6v2bv1e1cbjk"></linearGradient>
            <linearGradient xlink:href="#svgcid--37dfbwe9ikae" y2="78.81" x2="175.4" y1="68.71" x1="177.18" id="svgcid-cvv75xf6ywzg"></linearGradient>
            <linearGradient xlink:href="#svgcid--37dfbwe9ikae" y2="78.13" x2="195.31" y1="67.01" x1="197.27" id="svgcid-4q34pxap9o31"></linearGradient>
            <linearGradient xlink:href="#svgcid--37dfbwe9ikae" y2="84.73" x2="217.56" y1="76.74" x1="218.97" id="svgcid-vvlz51-3mt51c"></linearGradient>
            <linearGradient xlink:href="#svgcid--37dfbwe9ikae" y2="110.35" x2="223.18" y1="95.07" x1="225.88" id="svgcid-3h4ww6dj6qau"></linearGradient>
            <linearGradient xlink:href="#svgcid--37dfbwe9ikae" y2="152.66" x2="239.14" y1="139.41" x1="241.48" id="svgcid--stjzljtm84i1"></linearGradient>
            <linearGradient xlink:href="#svgcid--37dfbwe9ikae" y2="175.44" x2="174.17" y1="161.52" x1="176.62" id="svgcid--ic9zfc60wshw"></linearGradient>
            <linearGradient xlink:href="#svgcid--37dfbwe9ikae" y2="145.94" x2="181.49" y1="131.12" x1="184.1" id="svgcid-u7pruzj2qgc9"></linearGradient>
            <linearGradient xlink:href="#svgcid--37dfbwe9ikae" y2="115.62" x2="184.77" y1="101.9" x1="187.19" id="svgcid-e7tebacj9syn"></linearGradient>
            <linearGradient xlink:href="#svgcid--37dfbwe9ikae" y2="96.91" x2="198.69" y1="86.92" x1="200.45" id="svgcid-cddu4qnl1gt8"></linearGradient>
            <linearGradient xlink:href="#svgcid--37dfbwe9ikae" y2="96.03" x2="213.96" y1="86.65" x1="215.61" id="svgcid--5twbovftwlw2"></linearGradient>
            <linearGradient xlink:href="#svgcid--37dfbwe9ikae" y2="115.25" x2="203.49" y1="96.52" x1="206.8" id="svgcid-y1nbgb-gy2l2j"></linearGradient>
            <linearGradient xlink:href="#svgcid--37dfbwe9ikae" y2="128.19" x2="222.06" y1="112.2" x1="224.88" id="svgcid-jpuna1ot08s6"></linearGradient>
            <linearGradient xlink:href="#svgcid--37dfbwe9ikae" y2="159.32" x2="243.47" y1="151.66" x1="244.82" id="svgcid--7knfloxh7dnx"></linearGradient>
            <linearGradient xlink:href="#svgcid--37dfbwe9ikae" y2="161.86" x2="232.07" y1="154.78" x1="233.32" id="svgcid--m8hrj9-qysj97"></linearGradient>
            <linearGradient xlink:href="#svgcid--37dfbwe9ikae" y2="164.36" x2="218.54" y1="154.35" x1="220.31" id="svgcid-6zyqpvoobeny"></linearGradient>
            <linearGradient xlink:href="#svgcid--37dfbwe9ikae" y2="168.91" x2="203.5" y1="158.13" x1="205.4" id="svgcid-2e85so4pztk9"></linearGradient>
            <linearGradient xlink:href="#svgcid--37dfbwe9ikae" y2="155.87" x2="206.66" y1="143.38" x1="208.86" id="svgcid--tifyob-krijze"></linearGradient>
            <linearGradient xlink:href="#svgcid--37dfbwe9ikae" y2="152.55" x2="222.55" y1="141.29" x1="224.53" id="svgcid-soezxdg2cwpv"></linearGradient>
            <linearGradient xlink:href="#svgcid--37dfbwe9ikae" y2="142.53" x2="213.94" y1="130.02" x1="216.15" id="svgcid-e1gtuc-ont4kf"></linearGradient>
            <linearGradient xlink:href="#svgcid--37dfbwe9ikae" y2="132.78" x2="202.16" y1="111.31" x1="205.95" id="svgcid--abinm1lutrw0"></linearGradient>
            <linearGradient xlink:href="#svgcid--37dfbwe9ikae" y2="145.71" x2="197.25" y1="133.06" x1="199.48" id="svgcid-on8l9-fmgqm7"></linearGradient>
            <linearGradient xlink:href="#svgcid--37dfbwe9ikae" y2="157.8" x2="191.93" y1="145.73" x1="194.06" id="svgcid-8j3o35ucxpib"></linearGradient>
            <linearGradient xlink:href="#svgcid--37dfbwe9ikae" y2="173.31" x2="188.57" y1="159.81" x1="190.95" id="svgcid-li4x6gwhzrem"></linearGradient>
            <linearGradient xlink:href="#svgcid--37dfbwe9ikae" y2="157.12" x2="254.03" y1="148.72" x1="255.51" id="svgcid--n4egbf-khh5uq"></linearGradient>
            <linearGradient xlink:href="#svgcid--37dfbwe9ikae" y2="140.13" x2="229.67" y1="125.7" x1="232.22" id="svgcid-bjorysdivluv"></linearGradient>
            <linearGradient xlink:href="#svgcid--37dfbwe9ikae" y2="84.76" x2="201.64" y1="76.73" x1="203.05" id="svgcid-229r1z-9xf62r"></linearGradient>
            <linearGradient xlink:href="#svgcid--37dfbwe9ikae" y2="88.49" x2="185.76" y1="78.99" x1="187.44" id="svgcid--fbhp3hptpxf6"></linearGradient>
            <linearGradient xlink:href="#svgcid--37dfbwe9ikae" y2="100.59" x2="183.43" y1="90.64" x1="185.18" id="svgcid-j5ar6v-l2izjm"></linearGradient>
            <linearGradient xlink:href="#svgcid--37dfbwe9ikae" y2="131.18" x2="185.31" y1="116.71" x1="187.86" id="svgcid-7ky42yas4q39"></linearGradient>
            <linearGradient xlink:href="#svgcid--37dfbwe9ikae" y2="160.05" x2="178.83" y1="147.55" x1="181.04" id="svgcid-aecaj2o00o48"></linearGradient>
            <linearGradient xlink:href="#svgcid--37dfbwe9ikae" y2="152.97" x2="268.38" y1="145.22" x1="269.75" id="svgcid--n9wu8nr5cky6"></linearGradient>
            <linearGradient xlink:href="#svgcid--37dfbwe9ikae" y2="137.7" x2="245.24" y1="116.94" x1="248.9" id="svgcid-pmmdjtrcd388"></linearGradient>
            <linearGradient xlink:href="#svgcid--37dfbwe9ikae" y2="123.82" x2="239.08" y1="107.94" x1="241.88" id="svgcid-g8vejtn49nap"></linearGradient>
            <linearGradient xlink:href="#svgcid--37dfbwe9ikae" y2="95.35" x2="229.9" y1="85.73" x1="231.6" id="svgcid-8rbp1z3qh2ap"></linearGradient>
            <linearGradient xlink:href="#svgcid--37dfbwe9ikae" y2="76.39" x2="158.08" y1="68.91" x1="159.4" id="svgcid-whphls3englx"></linearGradient>
            <linearGradient xlink:href="#svgcid--37dfbwe9ikae" y2="82.06" x2="142.96" y1="76.15" x1="144.01" id="svgcid-oi21t6-jcuj3d"></linearGradient>
            <linearGradient xlink:href="#svgcid--37dfbwe9ikae" y2="82.71" x2="154.6" y1="76.27" x1="155.73" id="svgcid--ajn9wv-v5madd"></linearGradient>
            <linearGradient xlink:href="#svgcid--37dfbwe9ikae" y2="92.37" x2="167.6" y1="79.7" x1="169.83" id="svgcid-ubltmd-nbwfqz"></linearGradient>
            <linearGradient xlink:href="#svgcid--37dfbwe9ikae" y2="149.05" x2="170.92" y1="141.67" x1="172.23" id="svgcid--92wnq81hjj0a"></linearGradient>
            <linearGradient xlink:href="#svgcid--37dfbwe9ikae" y2="156.27" x2="152.21" y1="156.07" x1="152.25" id="svgcid--subt8b-xrbvmf"></linearGradient>
            <linearGradient xlink:href="#svgcid--37dfbwe9ikae" y2="147.6" x2="282.12" y1="142.22" x1="283.07" id="svgcid-heiph9-7mrw84"></linearGradient>
            <linearGradient xlink:href="#svgcid--37dfbwe9ikae" y2="142.99" x2="273.58" y1="128.89" x1="276.06" id="svgcid-4t7o9wbnpdey"></linearGradient>
            <linearGradient xlink:href="#svgcid--37dfbwe9ikae" y2="131.43" x2="265.61" y1="112.55" x1="268.94" id="svgcid-8yaq3f5oz9bl"></linearGradient>
            <linearGradient xlink:href="#svgcid--37dfbwe9ikae" y2="115.62" x2="258.01" y1="99.88" x1="260.78" id="svgcid--ur1dcu-u482h7"></linearGradient>
            <linearGradient xlink:href="#svgcid--37dfbwe9ikae" y2="98.39" x2="253.25" y1="88.89" x1="254.92" id="svgcid--2i5sjpy1zyt"></linearGradient>
            <linearGradient xlink:href="#svgcid--37dfbwe9ikae" y2="91.33" x2="243.96" y1="77.33" x1="246.43" id="svgcid-cxlblk-7sdyt2"></linearGradient>
            <linearGradient xlink:href="#svgcid--37dfbwe9ikae" y2="74.3" x2="237.5" y1="66.93" x1="238.8" id="svgcid-6hmpmz-3mihmq"></linearGradient>
            <linearGradient xlink:href="#svgcid--37dfbwe9ikae" y2="70.84" x2="226.86" y1="57.75" x1="229.17" id="svgcid--fgd6nh-4b3w0v"></linearGradient>
            <linearGradient xlink:href="#svgcid--37dfbwe9ikae" y2="64.59" x2="217.09" y1="50.53" x1="219.57" id="svgcid--646jzdyltnwp"></linearGradient>
            <linearGradient xlink:href="#svgcid--37dfbwe9ikae" y2="53.75" x2="207.53" y1="43.89" x1="209.27" id="svgcid-qcj6pmu2800x"></linearGradient>
            <linearGradient xlink:href="#svgcid--37dfbwe9ikae" y2="56.52" x2="192.6" y1="39.99" x1="195.51" id="svgcid-2rtn1tugarar"></linearGradient>
            <linearGradient xlink:href="#svgcid--37dfbwe9ikae" y2="53.57" x2="179.31" y1="39.78" x1="181.74" id="svgcid-3gaur72gv1jp"></linearGradient>
            <linearGradient xlink:href="#svgcid--37dfbwe9ikae" y2="58.99" x2="161.62" y1="40.78" x1="164.83" id="svgcid-eebpu19ou8z5"></linearGradient>
            <linearGradient xlink:href="#svgcid--37dfbwe9ikae" y2="66.52" x2="145.31" y1="46.32" x1="148.87" id="svgcid--ohyu41d40pvy"></linearGradient>
            <linearGradient xlink:href="#svgcid--37dfbwe9ikae" y2="61.76" x2="133.34" y1="50.87" x1="135.26" id="svgcid--anub3d-furku1"></linearGradient>
            <linearGradient xlink:href="#svgcid--37dfbwe9ikae" y2="73.14" x2="123.47" y1="58.66" x1="126.02" id="svgcid-slrevd-qd4l8a"></linearGradient>
            <linearGradient xlink:href="#svgcid--37dfbwe9ikae" y2="76.38" x2="116.52" y1="67.05" x1="118.17" id="svgcid-28e9avq3ylnl"></linearGradient>
            <linearGradient xlink:href="#svgcid--37dfbwe9ikae" y2="220.72" x2="154.82" y1="220.72" x1="109.31" id="svgcid--fbs4iem7igox"></linearGradient>
            <linearGradient xlink:href="#svgcid--37dfbwe9ikae" y2="471.67" x2="242.32" y1="471.67" x1="127.04" id="svgcid-ub649d-xcu2yn"></linearGradient>
        </defs>
        <path d="M113.39 108a1.78 1.78 0 00-.42-.4 4.38 4.38 0 01-2.11-4.92c.75-2.09 3.72-2.4 3.75-2.4a5.84 5.84 0 015.17 2.64 14.92 14.92 0 01-6.39 5.08z" fill="url(#svgcid--37dfbwe9ikae)"></path>
        <path d="M269.57 660.7h-.34a2.66 2.66 0 01-2.32-2.61c-.26-19.74-1.89-40.06-3.21-53.64-2-20.25-4.79-41.67-7.75-58.76-4.58-26.46-6.69-27.74-7.59-28.29l-.24-.1a2.76 2.76 0 01-1.55-1.74c-.23-.83-.48-1.69-.77-2.58a2.67 2.67 0 011.13-3.07l.23-.13c4.59-3.16 9.19-6.66 13.58-10.35a2.65 2.65 0 014.33 1.6c7 42.36 16.34 123.24 7.06 157.72a2.66 2.66 0 01-2.56 1.95z" fill="url(#svgcid--x0n1at-obhffd)"></path>
        <path d="M236.52 789.92a2.66 2.66 0 01-2.59-2.07c-5.25-23-11.89-70.31-16.92-120.43-7.18-71.6-8.93-126.35-4.46-139.47a2.66 2.66 0 013.29-1.69 188.65 188.65 0 0030.66 6.54 1.63 1.63 0 00.63 0 2.65 2.65 0 013.2 2.06c3.23 15.88 7.73 44.93 10.66 78.83 2.25 26.1 6.14 88.3-6.36 102.3-2.42 2.71-5.21 3.23-8.78 1.62a2.18 2.18 0 00-.72-.14 2.66 2.66 0 01-2.66-2.58c-1.16-38-3.53-88-7.05-148.68a1.82 1.82 0 00-.59-1.23 1.86 1.86 0 00-1.27-.44 1.75 1.75 0 00-1.23.6 1.73 1.73 0 00-.45 1.28c8.34 143.64 8.58 199.49 7.3 221a2.65 2.65 0 01-2.43 2.49zm16.12-75.74z" fill="url(#svgcid-otwsyvot5fdp)"></path>
        <path d="M214.49 705.1a6.92 6.92 0 01-4.39-1.6c-19.34-15.17-18.28-125.16-15-181.19a2.66 2.66 0 013.7-2.29c2.87 1.24 5.83 2.41 8.81 3.49a2.65 2.65 0 011.62 3.3c-7 22.15 1.61 114.69 4.42 142.53.06.58 1.45 14.33 3.63 32.79a2.65 2.65 0 01-2.56 3z" fill="url(#svgcid--7l2gomt8p2zv)"></path>
        <path d="M106.91 105l-3 1.26a3.59 3.59 0 01-.46 0c-9.67-.31-20.8.71-25.35 2.3-5 1.75-9 6.52-12.27 10.86C43 149.4 54.06 171 54.54 171.89a4.14 4.14 0 01.2.43 44.11 44.11 0 0017 20.66 6.75 6.75 0 002.15 1c.81.07 2.27-1.26 2.79-3a24.79 24.79 0 00.53-7v-2.34c.25-27 13.62-30.46 26.55-33.84l.71-.19c1.21-.31 2.44-.57 3.67-.82a30.07 30.07 0 005.59-1.51 12.73 12.73 0 007.37-9.11 4.45 4.45 0 011.94-2.87l2.26-7.73C124.86 108 106.91 105 106.91 105z" fill="url(#svgcid--ks2zjt5ntboy)"></path>
        <path d="M121.38 148.63s8 2.64 15.74 1.52l.75 8.27-3.93 4.17-2.94 7.28 2.63 8.62-5.44 7.59s-52.94-12.84-41.51-24.27 34.7-13.18 34.7-13.18z" fill="#1d1d1b"></path>
        <path d="M159.08 93.44c-7.42-5.15-17.41-4.69-23.76 1.11a16.05 16.05 0 00-4.22 5.89 32 32 0 01-4.94 8.57c3.92 5.77 5.94 14.48 3.66 27.59a4.64 4.64 0 010 1.23 20.11 20.11 0 01-.8 2.88c-.06.27-.1.53-.16.81l-.1-.14a21.7 21.7 0 01-5.2 7.84 43.32 43.32 0 008.68 1.19 4 4 0 01.78-.09c23.44-.25 31.19-12.5 31.51-13 11.4-18.71 9.57-33.45-5.45-43.88z" fill="#ffffff"></path>
        <path d="M345.11 322.52a91.32 91.32 0 00-6-25.57 4.38 4.38 0 00-1.18-1.61c6.13-18.12-8.16-37.81-8.77-38.64a4.48 4.48 0 00-.87-.87c5.14-21.17-19-46.29-20-47.38.24-11.3-6.16-20.9-10.17-25.76a20.69 20.69 0 002.88-5.55 25.46 25.46 0 00-1.48-19.87 21.68 21.68 0 00-9-8.93 13.87 13.87 0 00-3.6-7.47 1.66 1.66 0 00.35-1 15.42 15.42 0 00-5.78-12.08 1.9 1.9 0 00.16-.85c-.69-7.7-4.46-13.28-9-16.15a1.72 1.72 0 00.1-1.39 22.43 22.43 0 00-7.62-10.58 1.73 1.73 0 00.2-1.61c-.37-.94-3.19-7.75-8.3-10.8a1.78 1.78 0 00.15-1 14.93 14.93 0 00-6.29-9.78 12.45 12.45 0 00-2.06-1.11 1.52 1.52 0 000-.6c-1.36-6.27-6.44-10.82-12.23-10.77h-.41a.93.93 0 000-.24c-.55-5-4.16-8.88-8.23-8.88a5.62 5.62 0 00-1.1.11 1.59 1.59 0 00-.16-.51c-2.52-4.57-6.4-7.31-9.72-6.9a1.76 1.76 0 00-.15-.66c-.24-.53-2.47-5.16-7.22-5.71a8.29 8.29 0 00-4.81.93 1.75 1.75 0 00-.6-1.25 13.06 13.06 0 00-13.2-2.75 11 11 0 00-2.26 1.18 1.79 1.79 0 00-.61-.55c-1.3-.65-5.87-2.64-10-.56a9.42 9.42 0 00-3.31 2.85 1.86 1.86 0 00-.56-.43 24.42 24.42 0 00-24.42 1.81 1.73 1.73 0 00-.75 1.3 12.17 12.17 0 00-1.73-.44c-5.55-.91-10 2.81-11.24 4a1.74 1.74 0 00-.48.93 10.46 10.46 0 00-5.1.76 11.24 11.24 0 00-6.32 6.73.5.5 0 000 .12 12.6 12.6 0 00-2 .22c-6.1 1.23-8.69 7-9 7.61a1.84 1.84 0 00-.11.83 10.4 10.4 0 00-1.49.55c-4.3 2-6.85 6.91-6.35 12.17a1.75 1.75 0 001 1.44c-3.36 4.67-3 10.18-2.72 12.42a1.75 1.75 0 001 1.31 10.4 10.4 0 00.06 5.9 4.59 4.59 0 00-.91 0c-9.38-.27-22 .6-28.34 2.81-7.28 2.55-12.27 8.48-16.38 13.83-25.53 33.31-13.74 58.79-12.2 61.78a53 53 0 0020.4 24.6 13.75 13.75 0 006 2.31h1c5.54 0 9.78-4.62 11.18-9.45a32.22 32.22 0 00.88-9.53v-2.16c0-1.93.1-3.69.24-5.3a39.09 39.09 0 006 4.23 78.7 78.7 0 0033.78 10.62c-20.1 15.34-35.36 77.39-33.25 141.18 1.17 35.1 8.17 85.93 34.93 128.74 15.82 25.33 36.34 44.43 61.32 57.16a3 3 0 00-.07.43c0 .41-2.56 42.09-1.91 85.69 1.35 90 14.7 100.47 19.09 103.91a13.13 13.13 0 008.21 3 13.43 13.43 0 002-.16c4.51 37.54 11.49 86.91 17.6 93.25a5.47 5.47 0 003.94 1.76 5.05 5.05 0 002-.43c3.41-1.49 6.64-2.9 5.89-58q-.15-10.86-.5-23.78a14.5 14.5 0 004.17.67c5.11 0 9.57-3.12 12.7-9.09 4.31-8.22 6.34-22.25 7-38.22 26.88-26.25 4-165.23 1.26-181a4.41 4.41 0 00-.62-1.62c58.9-55.27 66.85-135.21 67.19-138.95a4.4 4.4 0 00-.07-1.15c6.25-7.94 9-18.82 7.97-32.05zm-21.2-57.64c3.23 5.42 9.1 17.36 5.61 27.63-2.56 7.5-9.89 13.06-21.8 16.52a4.28 4.28 0 00-.93.4 33.34 33.34 0 00-4.68-3c.29-1.05.55-2.1.76-3.17 1.81-9.41-.27-18-3.31-24.94 11.44-2.72 19.54-7.23 24.35-13.44zm-185.53-73.51a4.44 4.44 0 00-3.4-3.47 9.34 9.34 0 01.21-1.46 8.35 8.35 0 014.24-5.5 7.13 7.13 0 011.87-.58h1c.51 0 1 0 1.52-.07a8 8 0 014.93 2.61 8.13 8.13 0 01-.71 11.22 7.94 7.94 0 01-6.14 1.88 8.2 8.2 0 01-4-1.6 4.47 4.47 0 00.48-3.03zM135.55 173a14.52 14.52 0 00-1.43.81 2.26 2.26 0 01-.2-.26c-1.72-2.65-.7-6.89 1-9.7a12 12 0 016.65-5.22c1.22-.16 2.41-.35 3.55-.57a12.59 12.59 0 011.36.09c3.61.46 8 2.77 9 6.74a9 9 0 01-1.42 7 9.53 9.53 0 01-2.24 2.19 16.91 16.91 0 00-16.27-1.08zm16.54-16.78l.29-.1a1.59 1.59 0 00-.07.2zm11.33-72.32a18.41 18.41 0 00-1-3.9 14.63 14.63 0 016.1-.48c3.31.46 7.08 1.79 7.71 4.14a5.76 5.76 0 01-.36 2.77 8.16 8.16 0 01-1.23 2.47 1.72 1.72 0 00-.25 1.5 14.36 14.36 0 00-2.17 2.82 45.33 45.33 0 00-8-7c-.43-.3-.88-.57-1.33-.84a1.75 1.75 0 00.53-1.51zm-9.77-11.5h-.06a6.14 6.14 0 00-.78.06c.18-.9.71-2.9 2.17-3.64a4.24 4.24 0 013.23-.06 8.66 8.66 0 014.86 4.51 1.74 1.74 0 001.35.94c-.15.33-.33.64-.47 1a1.78 1.78 0 00-.09.85 18.46 18.46 0 00-2.51.55 1.49 1.49 0 00-.5.26c-1.85-2.75-4.43-4.47-7.2-4.47zm6.11 11.22a28.91 28.91 0 00-7.95-2.3 1.65 1.65 0 00-.14-.72 18.33 18.33 0 00-1.52-2.85 1.56 1.56 0 00.38-.25 4.58 4.58 0 013.09-1.5c2.38 0 5.27 2.87 6.14 7.62zM156.8 65a9.39 9.39 0 0114.07-2.53 1.73 1.73 0 001.51.31 9.58 9.58 0 001 3.27l.06.08a14.92 14.92 0 00-7.38 5.31 12.21 12.21 0 00-6.76-6 8.81 8.81 0 00-2.5-.44zm22.88 17.74a7.24 7.24 0 00-.3-.86 1.72 1.72 0 00.51-.35 8.31 8.31 0 0114 3c0 .08.09.15.13.23a13.15 13.15 0 00-4.09 3.83 1.54 1.54 0 00-.19.46 12.22 12.22 0 00-9.51-2 8.24 8.24 0 00-.88.29 8.58 8.58 0 00.33-4.63zm81.94 261.45c18.35-8.19 30.76-18.07 37.06-29.49 2.82 1.6 9.18 6 9.6 13.1.9 15.09-23.46 32.87-41 43.67.72-10.47-2.42-20.28-5.66-27.31zm-78-141.67a13.82 13.82 0 005.8-4.35 12.79 12.79 0 0018-2.51l1.69.84a12.37 12.37 0 005.46 1.27 12.5 12.5 0 0010.53-5.81l3.79 1.19a15.48 15.48 0 002 .46c1.55 2.06 8.93 12.71 5.52 24.48-3.35 11.53-16.4 21.46-37.76 28.8a56.53 56.53 0 00-5.74-7.48 24.79 24.79 0 003.94-10.76c1.44-13.52-9.71-23.39-13.25-26.16zm-14.11-37a1.73 1.73 0 001.15-.64c1.92-2.42 4.69-3.72 6.73-3.19a5.69 5.69 0 013.33 3.08 9.64 9.64 0 01.4 7.24 13.75 13.75 0 00-6.58 1.72l-2.54 1.33a16.39 16.39 0 00-1.8-1.18 17.48 17.48 0 00-.71-8.39zm72 28.43l2.52.23a13.88 13.88 0 001.44.07 15.73 15.73 0 0013.18-7.13l1.18.4a14.89 14.89 0 002.32.59c.08.08.14.18.23.26s9.2 8.9 8.13 21.42a25.39 25.39 0 01-1.23 5.87c-2.86 8.57-10.33 16.92-22.3 24.92a47 47 0 00-6.55-10.58 34 34 0 004.52-9.55c3.05-10.82-.26-20.45-3.42-26.53zm13-38.27l-1.49 1.3v-.3a11.41 11.41 0 00-3-5.66c.21-.26 2.14-2.58 4.87-2.34a5.77 5.77 0 014.82 4.09 14.69 14.69 0 00-5.15 2.88zm-1.95 15.45a12.37 12.37 0 01-1.25 11l-.1.15a6.89 6.89 0 01-5.59 3.11 15 15 0 00.27-11.31l-.27-.71a19.35 19.35 0 00-3.23-5.54l-.08-.09a6.89 6.89 0 0110.25 3.41zm-12.16-12.36a.33.33 0 000-.1 10.91 10.91 0 00-2.43-4.59 1.77 1.77 0 00.35-.26 6.93 6.93 0 015.18-2.36c2.87.17 5.44 2.64 6.09 5.89a1.74 1.74 0 00.48.87 15.75 15.75 0 00-9.67.55zm-13.33 17.88l-.95-3.37a13.87 13.87 0 00-1-2.46 8.88 8.88 0 0110.5 2.65 10.15 10.15 0 011.74 3l.27.71a5.91 5.91 0 01-1.55 6.58 4.81 4.81 0 01-4.55.91l-3.8-1.19a20 20 0 00-.66-6.83zm-19.31-1.78l1.14-1.25a5.1 5.1 0 018.69 2.06l.95 3.37a11 11 0 01-.74 7.87 3.58 3.58 0 01-4.76 1.6l-2.38-1.17a2.9 2.9 0 00-.41-.16 21.47 21.47 0 00-2.49-12.32zM193 178.49c.84-1 2.29-2.27 3.41-2.36a3.36 3.36 0 012.34 1.34c3.11 3.28 3 7.84 2.41 11.09a4 4 0 01-1.16 2.14 4.07 4.07 0 01-5.34.33l-.47-.36a14 14 0 00.69-2.46 13.78 13.78 0 00-1.88-9.72zm-8.82-14.66a1.9 1.9 0 00.41-.48c1.5-2.67 4.55-4.12 7.1-3.38a5.79 5.79 0 013.46 3.1 7.08 7.08 0 01.59 4.23h-.05c-4.68.38-8.08 3.8-9.54 5.58a12.52 12.52 0 00-1.47-.46 13.12 13.12 0 00-.52-8.59zm8.77-28a1.71 1.71 0 00.53-.44c.49-.59 2.28-2.55 4.51-2.51 2.78 0 5.92 3.18 6.24 7.81a11.12 11.12 0 00-5.69 5.29c-1.71-2.46-3.91-3.87-6-4 0-.08.08-.17.11-.25a12.93 12.93 0 00.28-5.94zM229 151.37a9.79 9.79 0 00-2.78 1.38 1.9 1.9 0 00-.36.39 9.55 9.55 0 00-2-1.39 9.69 9.69 0 00-5.18-.89 11 11 0 00-1.2-5.23 1.87 1.87 0 00.35-.28 10.06 10.06 0 012.51-2.15c1.07-.65 4.77-2.63 7.14-1.14 1.83 1.15 2.9 4.44 1.54 8a1.75 1.75 0 00-.02 1.31zm2.87 3.18c2.32.22 4.35 2.23 5.05 5a1.71 1.71 0 00.47.79l-.4.25L235 162c-.13.1-.23.21-.35.31a18 18 0 00-5.17-1.07 11.2 11.2 0 00-1.42-5.5 1.31 1.31 0 00.27-.12 5.39 5.39 0 013.58-1.07zm-15.79-39.14a2.23 2.23 0 00.33-.2 11.12 11.12 0 015.09-2.67 9.08 9.08 0 015.76.32c2.7 1.35 4.3 5.08 4 9.23a11 11 0 00-9.63 6 8.12 8.12 0 00-1.29-.72 8.57 8.57 0 00-3.62-.71 21.18 21.18 0 00-.6-11.25zm2.92 15.25a5.44 5.44 0 011.83 1.36 8.44 8.44 0 012 6.31 17.16 17.16 0 00-4.29 1.83 13.41 13.41 0 00-3.11 2.63 10.21 10.21 0 00-3.67-2.36 10.38 10.38 0 00-4-.58 13.36 13.36 0 00-.81-3.38 1.73 1.73 0 00.8-.62 12.27 12.27 0 013.69-3.63c2.98-1.92 5.56-2.45 7.56-1.56zm-3.83 21.16a11.45 11.45 0 00-5 4.39 10.68 10.68 0 00-3.07-1.39 10.48 10.48 0 00-5.64.08 20.55 20.55 0 00-1.36-6.06 1.73 1.73 0 001.41-1 7.4 7.4 0 019-4.11 7.31 7.31 0 014.6 7.7 1.39 1.39 0 00.06.39zM194.23 120a2 2 0 00.26-.1c1.87-1.23 3.8-2.45 5.75-3.62 7.08-4.25 8.79-4.54 9.52-4.26 1 .37 1.56 1.45 2.41 3.17a17.28 17.28 0 011.07 11.28 1.75 1.75 0 00.07.91 17.82 17.82 0 00-3.82 1.86 15.55 15.55 0 00-4.32 4.09 9.24 9.24 0 00-7.15-4h-.11a7.66 7.66 0 00-2.13.32 20.48 20.48 0 00-1.55-9.65zm20.37-7.84a6.94 6.94 0 00-3.59-3.46c-2.14-.8-4.46-.34-12.59 4.54l-1.43.88a18.14 18.14 0 00-3-10.33 2.21 2.21 0 00.37-.43 13.61 13.61 0 014.22-4.6c1.59-1.07 5.05-2.75 8-2.25 4.23.7 8.72 6.25 8.93 14.32a1.58 1.58 0 00.12.53c-.36.25-.71.52-1.03.78zM198 155.82a1.71 1.71 0 00.2.71 10.41 10.41 0 00-2.08 2 8.34 8.34 0 00-7.6-2.1 13.23 13.23 0 00-1.11-7 1.76 1.76 0 001.1-.82c.89-1.52 2.3-3.15 3.6-3.2 1.89-.05 5.52 3.35 5.89 10.41zm1.27 11.84a10.57 10.57 0 00-.94-6.14l-.07-.14a1.76 1.76 0 00.42-.4 7 7 0 0112.44 2.22 14.11 14.11 0 00-8.75 4.44l-.84.92a11.19 11.19 0 00-2.28-.9zm19.21-3.31a13.13 13.13 0 00-3.74-1.1 10.6 10.6 0 00-2.05-4.64 1.77 1.77 0 00.54-.55c2-3.26 6-4.64 9.09-3.12a7 7 0 013.64 6.49 17.26 17.26 0 00-4.74 1.43l-1.74.82a4.37 4.37 0 00-1.02.67zm28.8-15.46a9.3 9.3 0 00-3.56-1 10.3 10.3 0 00-8 3.55 1.68 1.68 0 00-.31.53 8.16 8.16 0 00-3-.95 11.84 11.84 0 00.26-7.44 1.65 1.65 0 00.71-.7 7 7 0 011.68-2.13 6.65 6.65 0 016.68-1.23 7.78 7.78 0 012.58 1.6s.3.28.57.57a18 18 0 012.94 5.86 1.93 1.93 0 00.22.43 8.85 8.85 0 00-.79.91zm-9.86-13.31a1.64 1.64 0 000 .22l-.39.08a10.1 10.1 0 00-6.16 4.45 6.75 6.75 0 00-4.46-2.3 12.36 12.36 0 00-2-7.26c1.31-3.33 4.57-5.52 7.58-5.07a6.56 6.56 0 014.43 3.06 8.42 8.42 0 01.98 6.82zm-7.11-25a9.26 9.26 0 00-1.41-.88 12.07 12.07 0 00-8.1-.61 14.51 14.51 0 00-1.76.53 22 22 0 00-3.83-11.18 2.11 2.11 0 00.31-.21c1.08-1.12 4-3.71 7.78-3.54 5.23.24 9.86 5.59 10.55 12.19a1.13 1.13 0 000 .15 15.74 15.74 0 00-3.56 3.54zM213 95.76s0 .06-.06.09A12.2 12.2 0 00210.1 94a1.73 1.73 0 00.31-1.5 12.88 12.88 0 00-2.22-4.5 10.3 10.3 0 016.64-1.47 10.57 10.57 0 017.17 4.66 14.88 14.88 0 00-9 4.57zm-7.23-10.4l-.08.09a10.78 10.78 0 00-6.75-2.18 10.25 10.25 0 00-1.7.22 1.86 1.86 0 00-.06-.34 13.39 13.39 0 00-2-3.29 1.73 1.73 0 00.85-.54 7.33 7.33 0 0113 3.77 1.68 1.68 0 00.17.55 14.84 14.84 0 00-3.48 1.72zM199 86.81c3.44-.12 6.66 2.46 7.83 6.15-4.75-.6-9.31 2.24-10.19 2.84-.28.19-.53.41-.8.61a15.09 15.09 0 00-2.84-4.64c-.17-.19-.41-.44-.71-.72a1.72 1.72 0 00.58-.53c.21-.37 2.46-3.59 6.13-3.71zm-5.61 29.55l-.86.56-.06.06a10.73 10.73 0 00-5.37-3.93 10.6 10.6 0 00-6.27.13 31.6 31.6 0 00-2.53-10.6 10.72 10.72 0 017.69-.81c4.91 1.58 8.07 7.59 7.35 14a2 2 0 00.06.59zm-12.52.53h.18a7.44 7.44 0 015-.42c4.08 1.25 6.73 7 6.15 13.32a1.72 1.72 0 00.54 1.4 11.93 11.93 0 00-1.09.93 8.29 8.29 0 00-3.49-3.52c-4-2-8.14.07-10.09 1.33a43.55 43.55 0 002.81-13.04zm-1.44 16.38c1-.72 4.36-2.94 7.14-1.53s3.58 5.78 2.62 8.85a7.57 7.57 0 01-1.31 2.45 1.68 1.68 0 00-.35 1 14.39 14.39 0 00-2 2.59 7.88 7.88 0 00-5.58-2.81 6.64 6.64 0 00-3 .73 8.37 8.37 0 01-1.2-3.48 9 9 0 013.69-7.8zm.47 14.12a4.57 4.57 0 013.17 1.81 9.26 9.26 0 011.85 7.39 1.72 1.72 0 00.25 1.16 10.7 10.7 0 00-3 2.89 8.12 8.12 0 00-3.86-2.4 7.43 7.43 0 00-3.05-.12 16.64 16.64 0 00-1-5.36 1.72 1.72 0 00.79-.85c1.01-2.64 3.07-4.62 4.86-4.52zm-2.55 34.86l1.44-.8a5 5 0 017.35 5.25 5.16 5.16 0 01-.87 2.08l-2.76 3.8a5 5 0 01-5.38 1.89l-.48-.13a15.44 15.44 0 00.71-12.09zm25.53 72.52q20.84-7.36 31.71-17.89c2.78 3.69 9.1 13.7 7 26-2.17 12.86-12.81 24.69-31.58 35.19a74.89 74.89 0 00-5.89-13.54 4.36 4.36 0 00-2-1.87c5.88-8.95 4.53-19.16.77-27.89zm5.54 72.59a33.37 33.37 0 003.58-20.25h.09c15.43-8.28 26.31-17.58 32.55-27.79 3.18 6.07 10.13 22.24 5.23 40.26-4.52 16.59-17.93 30.69-39.83 42 1.29-8.55-.67-17.74-5.88-27.45-.07-.12-.16-.23-.23-.34a34.13 34.13 0 004.5-6.43zm-.91 42.83a4.39 4.39 0 002.47.79 4.51 4.51 0 002-.46c16.92-8.38 29.47-18.42 37.58-30 3.4 5.41 12.86 22.58 7.13 38.52-4.62 12.82-18.08 22.34-40 28.32-1-15.44-7.14-31.55-8.19-34.21a4.37 4.37 0 00-1.48-1.92c.18-.36.35-.69.5-1.04zm9.11 46.34h.1c22.08-5.65 37.06-14.79 44.72-27.18a21.69 21.69 0 012.64 16.8c-3 11.1-15.92 21.21-37.39 29.48v-.37c-.71-9.95-9.85-15.69-10.23-15.93l-.18-.08c.15-.9.26-1.8.35-2.72zm77.54-114.93c-2.58 13.39-14.85 25-36.48 34.62l-.24.14c-1-1.65-1.74-2.65-1.88-2.83a4.31 4.31 0 00-1.17-1.09 58.23 58.23 0 004-10.58 61.8 61.8 0 00-.71-33.72c12-4.54 20.7-10.71 26-18.43 3.11 3.54 13.39 16.81 10.48 31.89zm-14.11-44.51c-2.76 9.74-11.29 17.37-25.33 22.71a56.84 56.84 0 00-4.1-7.92 4.38 4.38 0 00-1.76-1.53 38.8 38.8 0 00.91-21.65 4.47 4.47 0 002-.69q15.45-10.31 22.29-21.83c4.1 7.24 9.24 19.48 5.99 30.91zm-9.42-83.67a6 6 0 01-7.92 5.67l-.82-.27a21.16 21.16 0 00-.95-10.77 15.94 15.94 0 00-2.32-4.18l1.76-1.53a6 6 0 018.12.24 7.18 7.18 0 012.13 5.08zM269.56 153a15 15 0 00-6.25-.93 9.9 9.9 0 00-1.13-2.52 18.2 18.2 0 015.67-2.8c2.64-.75 5.38-1.54 7-.29a3.61 3.61 0 011.18 1.8 21 21 0 00-6.47 4.74zm-2.7-9.65a21.76 21.76 0 00-7 3.52 8.73 8.73 0 00-4.53-1.78 8.34 8.34 0 00-4.27.82 20.72 20.72 0 00-3.48-6.57 1.77 1.77 0 001.58-.92 9.45 9.45 0 0117.84 4.29 1.82 1.82 0 00.13.57zM246 136.77a1.69 1.69 0 00-.16 1 10.62 10.62 0 00-2.88-1.58 10 10 0 00-1.94-.49 11.93 11.93 0 00-1.62-8.94 11 11 0 00-1.06-1.36c2.34-2.46 6.73-6.55 11.1-7.76a4.26 4.26 0 012.84 0 4 4 0 011.31 2.47c.84 3.08 1.56 6.38 2.15 9.8a13.32 13.32 0 00-9.74 6.86zm2.5-22.52c-5.31 1.47-10.37 6.22-12.91 8.93-.23-.13-.47-.24-.71-.35a15.16 15.16 0 00-2.15-9.69 1.6 1.6 0 00.33-.31 11.23 11.23 0 016-4.46 8.08 8.08 0 013.93-.25c3.68.79 5.54 4.71 6.06 6zm-1.86-8.46a9.87 9.87 0 00-2.87-1.12 11.46 11.46 0 00-5.63.31c-.33.09-.62.21-.93.32a19.53 19.53 0 00-2.27-6.46 1.89 1.89 0 00.57-.62s1.93-3.63 5.41-3.82c3.17-.21 6.13 2.36 6.88 5.9a1.67 1.67 0 00.51.89 18.47 18.47 0 00-1.7 4.6zm-13.84-9.94a14 14 0 00-6.88-4.33 1.74 1.74 0 00-.16-1 14.88 14.88 0 00-1.94-2.75 9.34 9.34 0 016.9-2.17 9.23 9.23 0 017.28 5.83 11.55 11.55 0 00-5.23 4.42zm.83-13.19a13 13 0 00-2.48-.6 11.33 11.33 0 00-3 0 1.54 1.54 0 000-.37 12 12 0 00-4.21-6.54 7.44 7.44 0 013.69-2.41c3.17-.82 6.82.72 9.29 4l.07.06a14.15 14.15 0 00-3.39 5.86zm-8.92-.13a1.71 1.71 0 00.19.46 14.22 14.22 0 00-3.57 2.22c-.05 0-.07.11-.12.16A12.91 12.91 0 00215.3 83a13.23 13.23 0 00-2.8 0 2.45 2.45 0 000-.27 10.74 10.74 0 00-1-3.42 1.76 1.76 0 00.4-.27 7.82 7.82 0 018.53-1.79 8 8 0 014.25 5.28zM221 73.14a1.54 1.54 0 00-.23.44 11.44 11.44 0 00-11.27 2.81 10.68 10.68 0 00-2-1.63 1.8 1.8 0 00.3-1.16 6.12 6.12 0 0111.48-3.8 1.74 1.74 0 001.25.81c.17.43.34.83.49 1.15a1.72 1.72 0 00.6.68c-.19.24-.43.48-.62.7zm-11.34-9.23a9.17 9.17 0 00-3.37 2.76A15.71 15.71 0 00193.77 64a1.79 1.79 0 00-.22-.65 7.46 7.46 0 01-.8-6c1.22-3.38 5.38-4.5 7.84-4.44 4.47.12 7.1 3.85 7.39 4.27a1.74 1.74 0 001.62.75 20 20 0 00.56 5.42 1.73 1.73 0 00.14.34c-.21.07-.43.12-.63.22zm-5.34 5.7a2 2 0 00.39.18 10.3 10.3 0 00-.43 3.6 10.85 10.85 0 00-11 3.69 1.66 1.66 0 00-.33.63 11.66 11.66 0 00-5.29-2.25 10 10 0 013.48-6.46c3.5-2.71 8.93-2.47 13.19.61zM181 90.52c4.61-1.07 8.34 2.53 9.37 3.65a11.26 11.26 0 012.25 3.68 1.74 1.74 0 00.76.88 17.48 17.48 0 00-1.7 2.32 12.74 12.74 0 00-4.59-2.66 14.29 14.29 0 00-10.35 1 34.52 34.52 0 00-2.13-3.3 2 2 0 00.28-.37c.33-.72 2.23-4.31 6.11-5.2zm-8.68 51.16a11.89 11.89 0 001.83 5 12.07 12.07 0 00-1.84 2.59 9.66 9.66 0 00-3.68-3 24.31 24.31 0 003.57-4.38c.03-.07.06-.14.11-.21zm-.61 16.62a1.64 1.64 0 00.3.9 13.19 13.19 0 00-4.09 3.39 6.66 6.66 0 00-3.84-2.64c-2.28-.47-4.41.7-6 2a11.65 11.65 0 00-2.69-3.48 13.69 13.69 0 011.69-4.23 42 42 0 008.4-5.14 4.53 4.53 0 011.23.22c2.8.87 4.89 4.68 4.99 8.98zm-12.52 7.41c1.3-1.36 3-2.53 4.19-2.29a3.52 3.52 0 012 1.63 12 12 0 011.47 7.49 15.38 15.38 0 00-9.31.4 12.6 12.6 0 001.64-7.23zm-.8 16.43l1.73-.76a6.66 6.66 0 018.46 9.4l-1.1 1.91a6.65 6.65 0 01-5.78 3.35h-4.12a17.48 17.48 0 00.8-13.9zm-2.29 56.06c9.08-10.83 8.11-25.41 6.66-33.37a15.52 15.52 0 008.05-2.91h.05l3.93 1.08c.45.12.9.19 1.34.27a4.42 4.42 0 001.36 5.69c.12.08 11.69 8.32 10.55 18.74-1 9.14-11.55 18.29-30.51 26.52a60.27 60.27 0 00-3.59-13.75 29.12 29.12 0 002.16-2.27zm1.81 25.43a4.15 4.15 0 00.74-.22q18.9-7.86 28.51-17.13a53.78 53.78 0 017.37 11.49c4.18 9.1 3.62 16.66-1.68 22.46-6.17 6.75-18.46 11.48-36.53 14a4.48 4.48 0 00-1.81.7 70.37 70.37 0 00-5-9.28 37 37 0 003.79-5.57 38.61 38.61 0 004.61-16.45zm-1.32 65.91c4.08-9 3.24-18.48.91-26.48h.07c17.82-2.54 30.87-7.26 38.91-14.06 7.54 13.8 9 25.29 4.16 34.13-9.36 17.31-39.39 20.89-43.55 21.31a55.28 55.28 0 00-4-9.12 31.07 31.07 0 003.5-5.78zm-.61 39a28.56 28.56 0 002.91-15.44c5.64-.62 24.53-3.36 38.27-13.34 5 9.93 5.72 18.93 2.27 26.78-6.73 15.26-27.38 23-34.51 25.25A61.43 61.43 0 00155 372a4.31 4.31 0 00-.63-.65 30.13 30.13 0 001.63-2.76zm10.51 32c5.88-1.74 23.93-7.94 35-20.94 4 11.53 10.35 35.8 3.45 45.05-2.19 2.93-5.8 4.14-11 3.69a4.4 4.4 0 00-2.23.4 116 116 0 00-14.08-12.21l-11.32-8.28a36.37 36.37 0 00.18-7.62zM212 430a19 19 0 001.28-2c1.72 1.49 4.31 4.3 4.54 7.9.33 5-4.15 9.91-8 13.2q-4.94-5.91-10.41-12A18.23 18.23 0 00212 430zm12.06 16c2.95-1 5.79-2.06 8.47-3.15-.77 6.64-3.25 18-11.22 20.85-1.9-2.54-3.87-5.1-5.94-7.7a36.61 36.61 0 008.72-10zm17.67-7.24c17.41-8.53 27.78-18.72 30.92-30.43.06-.22.08-.44.14-.66a4.4 4.4 0 002.24.61 4.26 4.26 0 00.61 0l1.22-.19C265.6 422 241 453.73 230.6 476.89c-1.26-1.93-2.56-3.87-3.94-5.84 13.75-6.97 14.99-27.64 15.1-32.29zm32.69-39.3a4.68 4.68 0 00-.84.2 32.94 32.94 0 00-6.52-17.79q30-17.64 42.1-33.43c2.94 2.49 13.2 14.94 10.73 26.73-2.5 12.12-18.23 20.52-45.44 24.29zm45-145c-2.18 7.32-9.93 12.54-23.05 15.51a4.37 4.37 0 00-1.14.45 53.81 53.81 0 00-6.05-7.85 4.43 4.43 0 00-1.36-.94c.25-.72.49-1.45.7-2.19a41.49 41.49 0 00-.23-21.81c8.67-5.36 14.54-11.55 17.55-18.47 7.16 8.71 16.99 24.09 13.65 35.32zM299.31 210c-.77 7-5.46 13.39-13.91 19a74.81 74.81 0 00-7-12.84 33.35 33.35 0 001-5.67c.93-10.86-3.7-19.44-7.21-24.28l.43-.28a24.71 24.71 0 0012.1 3.6 16.55 16.55 0 006.5-1.31c3.33 4.1 9.11 12.58 8.09 21.78zm-7.6-48.48a16.76 16.76 0 01.87 12.75 10.85 10.85 0 01-2.55 4.24 4.49 4.49 0 00-1.27.91c-.07.07-.11.15-.17.22a7.6 7.6 0 01-.8.42c-3.27 1.43-7.05.12-9.4-1a14.75 14.75 0 001.1-5.6v-5.76a16 16 0 00-2.91-9.17 9.63 9.63 0 017-3c4.49.2 7.18 4.25 8.13 5.99zm-5.2-14.52a16.54 16.54 0 00-2.51-.32 17.12 17.12 0 00-4.62.44 8 8 0 00-1.08-2.12c0-.05.08-.07.11-.12.84-1.34 2.19-2.79 3.46-2.82a3.55 3.55 0 012.4 1.18 9.27 9.27 0 012.24 3.76zm-2.85-8.19a5.4 5.4 0 00-1.88-.3c-3.14.08-5.36 2.93-6.26 4.32a9.13 9.13 0 00-5-.37 13.33 13.33 0 00-4.51-9.51c.8-1 4.2-4.7 8.76-4.25s8.41 4.79 8.89 10.1zm-5.75-13a11.41 11.41 0 00-2.8-.64c-6.83-.67-11.44 5-12.07 5.82a12.88 12.88 0 00-3.09-1c-.23 0-.46 0-.7-.07a1.61 1.61 0 000-.31 102.69 102.69 0 00-2.25-10.46 11.21 11.21 0 00-.32-1.08 1.75 1.75 0 00.64-.54c.83-1.21 3.88-5.19 8-5.42 5.25-.29 11.27 5.1 12.59 13.69zM268.8 109a11.58 11.58 0 00-3.66-.44c-5.21.29-8.84 4.3-10.43 6.47a4.45 4.45 0 00-.65-.46 4.89 4.89 0 00-1.44-.55 1.63 1.63 0 00-.09-.72 16.38 16.38 0 00-2.87-5 1.44 1.44 0 00.15-.41c.33-2.47 1.68-7 4.65-8.26a7.77 7.77 0 016 .43 17.05 17.05 0 018.34 8.94zm-7.62-12.4a10.82 10.82 0 00-8.11-.17 8.42 8.42 0 00-2.32 1.5 11.22 11.22 0 00-4.12-5.32 1.76 1.76 0 00.39-.77 4.48 4.48 0 011.38-2.51 5.41 5.41 0 014.16-.85c4.13.43 7.2 5.36 8.62 8.13zM249 78.55a11.27 11.27 0 014.54 6.52c-.19 0-.38-.09-.58-.11-1.29-.12-4.32-.43-6.81 1.68a8 8 0 00-2.55 4.52 9.56 9.56 0 00-2-.3 1.67 1.67 0 00-.08-.49 13.24 13.24 0 00-4.69-6.11.91.91 0 00.07-.14c.9-3.59 3.32-6.31 6.16-7a7.93 7.93 0 015.94 1.43zm-12.37-11.88c3.81 0 7.13 2.83 8.43 6.89a10.28 10.28 0 00-2.83.19 9.57 9.57 0 00-2.46 1s0-.07-.06-.1a13.64 13.64 0 00-8.71-5.46 8.41 8.41 0 015.63-2.52zM228 57.58c2 0 4.33 2.3 4.7 5.73a1.64 1.64 0 00.17.53 13.57 13.57 0 00-5.71 4.29 1.77 1.77 0 00-.35 1.22h-.11a10 10 0 00-2.4 1 1.21 1.21 0 00-.05-.18 10.15 10.15 0 01-.85-6.68c.6-2.26 2.28-5.91 4.6-5.91zm-10.6-7.33c1.53-.22 4.23 1.47 6.24 5.1a1.3 1.3 0 00.26.31 14.17 14.17 0 00-4 7 12.24 12.24 0 00-.31 2.33 10.07 10.07 0 00-6-2 2 2 0 000-.54c-.93-3.86-.46-7.69 1.25-10.25a4.29 4.29 0 012.56-1.95zm-8.16-6.36c2.86.33 4.39 3.62 4.4 3.66a1.78 1.78 0 00.36.45 9.66 9.66 0 00-2.09 2.25 13.36 13.36 0 00-1.74 3.92 13.46 13.46 0 00-7.37-4.61c.71-3.74 3.88-5.97 6.44-5.67zm-17-3.29a9.68 9.68 0 019.63 2.11 1.69 1.69 0 00.55.32 11.13 11.13 0 00-3.19 6.11 2.26 2.26 0 000 .26c-3.88.3-8.16 2.39-9.77 6.57a9.41 9.41 0 00-2.72-2.54 1.67 1.67 0 000-.86c-1.2-5.06 1.2-10.32 5.54-11.97zm-12.58-.07c2.36-1.19 5.21-.17 6.39.35a14.32 14.32 0 00-3 11.2 9.33 9.33 0 00-6 1.06c-2.44-5.53-.63-10.97 2.65-12.61zm-.87 15.7a6 6 0 014.59-.5 6.07 6.07 0 013.66 3 1.76 1.76 0 001.81.91 12.27 12.27 0 001.6 5.53.18.18 0 010 .07 11.12 11.12 0 00-3.88 3.39s-.08-.11-.13-.16a15.14 15.14 0 00-9.84-3 1.76 1.76 0 00-.16-1.12 6 6 0 012.39-8.12zM176.65 69a11.45 11.45 0 017.75 2.28 1.7 1.7 0 00.64.3 16.12 16.12 0 00-1 3.85 13 13 0 00-6.69 3.57s0 .08-.07.12C174.72 77 171 76.24 169 76c-.49-.07-1-.1-1.47-.13a11.51 11.51 0 019.12-6.87zm-14-28.1a21 21 0 0110 2.07 1.44 1.44 0 00.53.14 15.19 15.19 0 00.69 11.75 1.84 1.84 0 00.47.6 9.47 9.47 0 00-1.83 3.82 13.24 13.24 0 00-9.24-2.42 12.25 12.25 0 00-4.72 1.6c.15-5.94-2.46-11.29-6.55-14.09a20.88 20.88 0 0110.68-3.47zM146.77 46c4.42.72 8.83 6 8.25 13.28a1.76 1.76 0 00.68 1.49 15.06 15.06 0 00-2.56 3.48 1.73 1.73 0 000 1.58 6.74 6.74 0 00-2 1.77 11.88 11.88 0 00-7.43-6.89 10.67 10.67 0 00-4.61-12.15c1.3-1.11 4.29-3.17 7.67-2.56zm2.8 27.79a10.5 10.5 0 00-1.51 1.21 1.1 1.1 0 00-.09.14c-2.37-2.27-5.19-3.32-7.76-2.64a7 7 0 00-3.92 3.05 11.53 11.53 0 00-3-1.42 1.8 1.8 0 00.37-1 10.35 10.35 0 013.4-7.36 6.87 6.87 0 015-1.83c2.44.23 4.8 2.3 6 5.28a1.77 1.77 0 001.69 1.09 11.82 11.82 0 00-.5 2.14 1.75 1.75 0 00.32 1.29zM147.94 81a28.32 28.32 0 00-6.56.74v-.06a14.71 14.71 0 00-2.46-3.89 1.23 1.23 0 00.25-.26 3.82 3.82 0 012-1.69c1.83-.45 4.83 1.4 6.77 5.16zM123 97.19a26.22 26.22 0 01-1.2 2.59 10 10 0 00-3.55-2.44 9.6 9.6 0 00.68-6.5A1.75 1.75 0 00120 90a5 5 0 013.82-2.6 5.11 5.11 0 014.18 1.88s.06 0 .09.09a24.3 24.3 0 00-5.09 7.82zm.61 8.33c-.39-.4-.8-.78-1.22-1.15.39.37.8.75 1.19 1.15zm-2.07-1.89a23.59 23.59 0 00-2.33-1.67 24.06 24.06 0 012.3 1.67zm-3-2a21.79 21.79 0 00-2.53-1.22 5.83 5.83 0 012.5 1.18zm5-17.75h-.07a14.19 14.19 0 00.43-3.26 1.76 1.76 0 001.57-.65 7 7 0 014.14-2.71c3.2-.54 6.68 1.81 8.42 5.59a26.73 26.73 0 00-7.34 4.15 8.6 8.6 0 00-7.22-3.16zm8.41-32.45a6.42 6.42 0 015.21 0c2.77 1.36 4.18 5.05 3.19 8.41a1.74 1.74 0 00-.05.68 10.57 10.57 0 00-4.33 1.72 13.52 13.52 0 00-8.1-6.73 7.64 7.64 0 014.01-4.12zm-9 7.28c3.94-.79 8.07 1.44 10.05 5.42a1.77 1.77 0 00.39.5A14.08 14.08 0 00130.1 73a1.61 1.61 0 00.1.69 8.65 8.65 0 00-1.25.08 8.07 8.07 0 00-.88.21c-.3-1.7-1.64-7-6.81-9.48a13.24 13.24 0 00-4.37-1.17 9.2 9.2 0 015.96-4.66zm-9.77 8.72a8 8 0 016.63.27c4.24 2.06 4.89 7 4.92 7.2a1.77 1.77 0 00.23.68 11.79 11.79 0 00-1.96 1.7 8.31 8.31 0 00-.74-1.31 8.62 8.62 0 00-13.53-1 8.25 8.25 0 014.35-7.58zm-3.45 11.84c.86-1 3.16-3.79 5.92-3.48a5.76 5.76 0 013.71 2.21 6.65 6.65 0 01.86 1.9v.15a10.68 10.68 0 01-.58 4.13 1.63 1.63 0 000 1 9.16 9.16 0 00-2.64 2.76c-.14-.13-.26-.26-.41-.38-2.88-2.18-7.28-1.6-9.72.32a12.89 12.89 0 012.76-8.65zm-.79 19.07c-1.75-3-1.45-6.22.18-7.59 1.27-1.06 4-1.45 5.47-.32a2.85 2.85 0 01.71.79c1.22 2-.27 4.88-.44 5.19a1.46 1.46 0 00-.12.39h-.37a9.71 9.71 0 00-4.5 1.75c-1.44-.34-2.89-.65-4.31-1 1.01.25 2.15.5 3.28.75zm4.22 1.07l-.25-.07zm-10.5-1.58l-.2.09zm-1.18.7zm-.74.83l-.15.24zm-23.45 82.27v2.34a24.79 24.79 0 01-.53 7c-.52 1.79-2 3.14-2.79 3a6.56 6.56 0 01-2.15-1 44 44 0 01-17-20.65c-.06-.13-.14-.3-.21-.43C54.17 171 43.06 149.4 66 119.5c3.32-4.34 7.29-9.11 12.27-10.86 4.55-1.59 15.69-2.6 25.36-2.3h.45l-1-.22c3.5.83 7.5 1.3 10.69 3a15.75 15.75 0 016.19 6.14 21.44 21.44 0 012.71 9.36c.19 3.1.36 7.5-1.13 10.25a4.57 4.57 0 00-.56 2 12.74 12.74 0 01-7.18 8.41 30.39 30.39 0 01-5.6 1.51c-1.23.25-2.46.51-3.67.82l-.71.19c-12.91 3.37-26.28 6.87-26.53 33.83zm47.28-75.06c.29.32.55.65.82 1-.27-.34-.53-.68-.82-1zm1.8 34.88a2.59 2.59 0 01-.48 0 2.59 2.59 0 00.48 0zm-.76.06a4.6 4.6 0 01-.52-.06 4.6 4.6 0 00.52.06zm-.91-.13a5.52 5.52 0 01-.54-.16 5.52 5.52 0 00.54.16zm-1-.34l-.26-.13zm-.68-.4l-.2-.14zm-.61-.48l-.14-.14zm-.52-.57a.36.36 0 01-.07-.1.36.36 0 00.11.1zM96.9 173a31 31 0 01-4.76-3.33A17.61 17.61 0 0189 166c3.19-6 9-7.52 17.06-9.64l.7-.18c1.06-.28 2.13-.5 3.21-.72a36.45 36.45 0 007.27-2A21.54 21.54 0 00129.86 138c-.2.46-.41.93-.65 1.37a5.07 5.07 0 01-.53.78 5.07 5.07 0 00.53-.78c2.24-4.13 2.58-9.48 2.37-14.1a31.83 31.83 0 00-3.69-14 25.53 25.53 0 00-1.5-2.37 32.1 32.1 0 004.82-8.41 16 16 0 014.22-5.89c6.35-5.8 16.34-6.26 23.76-1.11 15 10.43 16.85 25.17 5.41 43.86-.31.52-8.07 12.77-31.51 13a4.43 4.43 0 000 8.86h.91a14.87 14.87 0 00-2.25 2.85c-2.29 3.85-3.45 9.5-.9 13.44.12.18.27.35.41.52a17.68 17.68 0 00-4.19 6.49A69.82 69.82 0 0196.9 173zm29.76-31.62a4 4 0 00.45-.15 4 4 0 01-.45.16zm.73-.27a3.18 3.18 0 00.43-.25 3.18 3.18 0 01-.43.26zm.68-.42c.14-.12.28-.26.42-.4-.14.15-.28.29-.42.41zm2 58.63a17.09 17.09 0 0019 4.4 4.42 4.42 0 003 1.18h1.62c1.26 5.87 2.92 18.89-4.43 27.62-6.72 8-19.58 10.94-38.25 8.81 5.49-21 12.56-36.04 19.1-42zM109 250a106.6 106.6 0 0012.91.85q14.83 0 24.59-5c2.25 6.57 5.08 19.11-.94 30-6.31 11.44-20.83 18.53-43.13 21.09A315.85 315.85 0 01109 250zm-7.17 82.15c-.3-9-.24-17.75.11-26.24C119.79 304 133.55 299.38 143 292c3.67 6.1 11.28 21.25 5.55 33.83-5.28 11.59-20.74 18.68-45.91 21.1-.45-5.34-.71-10.32-.86-14.78zm1.67 23.63c19.31-1.86 33.74-6.49 43.12-13.83 4.16 8.73 4.66 16.34 1.5 22.65-7.52 15-33 20.1-39.88 21.23a300 300 0 01-4.79-30.05zm20.86 79.88a231.32 231.32 0 01-14.13-41.17c7-1.17 26.22-5.28 38.36-16.34 2.38 3.32 12.64 18.78 8 33.24-3.47 10.61-14.33 18.81-32.28 24.27zm3.92 8.06c18.39-5.84 30.29-14.66 35.45-26.3l8.67 6.35a107 107 0 0115.18 13.51c46.36 49.9 53.77 78.53 54.8 88.65-59.72-9.3-94.25-43.55-114.15-82.21zm83.47 257.68c-17.12-13.44-17.69-115.58-14-179q4.49 2 9.17 3.65c-5.94 26.3 2 114.25 4.79 142.15.17 1.68 1.56 15.68 3.7 34.14a4.2 4.2 0 01-3.66-.94zm40.91 12.77c-1.39 1.55-2.83 2.26-5.71 1a4.49 4.49 0 00-1.78-.38c-1.18-38-3.56-87.83-7.09-148.74a4.43 4.43 0 10-8.85.51c8.25 142 8.59 197.49 7.5 219.08-4.58-21.08-11-65.49-16.36-120-6.6-67.48-8.49-120.39-5.06-136.75a188.17 188.17 0 0030.86 6.59 5.46 5.46 0 00.57 0 4.81 4.81 0 001-.13c3.31 16.25 7.73 45.15 10.61 78.53 4.65 53.61 2.5 91.12-5.69 100.29zM269.58 658c-.26-19.28-1.79-39.13-3.22-53.86-2-20.32-4.8-41.81-7.78-59-4.78-27.65-7-29-8.84-30.11a4.53 4.53 0 00-.59-.28c-.25-.86-.51-1.75-.8-2.67l.22-.13c4.89-3.36 9.52-6.9 13.89-10.57C268.69 539.22 279 623 269.58 658zm-24.43-154.42a151.76 151.76 0 00-8.75-17.34c9.63-27.79 52.62-79 53.07-79.54a4.49 4.49 0 00.67-1.13c15.21-3.62 24.75-8.89 30.6-14.66-9.59 32.84-30.64 80.97-75.59 112.67zm79.39-149.14c-3.2-6.19-7.42-11.19-10.6-13.46a26.84 26.84 0 003.18-13.83 21.63 21.63 0 00-3.62-10.67c8.29-2.83 14.63-6.77 19-11.76 3.35 10.48 9.72 37.28-7.96 49.72z" fill="#1d1d1b"></path>
        <path d="M324.54 354.44c-3.2-6.19-7.42-11.19-10.6-13.46a26.84 26.84 0 003.18-13.83 21.66 21.66 0 00-3.62-10.67c8.29-2.83 14.63-6.77 19-11.76 3.37 10.46 9.78 37.2-7.96 49.72z" fill="url(#svgcid--xy0px81xsy69)"></path>
        <path d="M329.52 292.49c-2.52 7.51-9.88 13.08-21.8 16.51a4.28 4.28 0 00-.93.4 33.34 33.34 0 00-4.68-3c.29-1.05.55-2.1.76-3.17 1.81-9.41-.27-18-3.31-24.94 11.4-2.75 19.55-7.26 24.36-13.46 3.22 5.44 9.08 17.33 5.6 27.66z" fill="url(#svgcid-cr87e7bvz7uc)"></path>
        <path d="M319.49 254.48c-2.18 7.32-9.93 12.54-23.05 15.51a4.37 4.37 0 00-1.14.45 54.48 54.48 0 00-6.05-7.85 4.43 4.43 0 00-1.36-.94c.25-.72.49-1.44.7-2.18a41.52 41.52 0 00-.23-21.82c8.67-5.36 14.54-11.55 17.55-18.47 7.09 8.69 16.92 24.07 13.58 35.3z" fill="url(#svgcid--rwj1v6-b5m682)"></path>
        <path d="M292.58 174.27a10.85 10.85 0 01-2.55 4.24 4.34 4.34 0 00-1.27.92 1.73 1.73 0 00-.17.21 7.6 7.6 0 01-.8.42c-3.27 1.43-7.05.12-9.4-1a14.74 14.74 0 001.1-5.59v-5.77a16.05 16.05 0 00-2.91-9.17 9.73 9.73 0 017-3c4.48.21 7.17 4.26 8.12 6a16.76 16.76 0 01.88 12.74z" fill="url(#svgcid-1vywsqig8s8r)"></path>
        <path d="M224.09 446c2.95-1 5.79-2.07 8.47-3.16-.77 6.65-3.25 18-11.22 20.86-1.9-2.54-3.87-5.11-5.94-7.71a36.9 36.9 0 008.69-9.99z" fill="url(#svgcid-s0v2uc-gbjx1j)"></path>
        <path d="M245.15 503.58a151.76 151.76 0 00-8.75-17.34c9.62-27.79 52.62-79 53.07-79.54a4.32 4.32 0 00.67-1.13c15.21-3.62 24.75-8.89 30.6-14.66-9.59 32.84-30.64 80.97-75.59 112.67z" fill="url(#svgcid-e7tx3q-915hmv)"></path>
        <path d="M108.47 394.76c4.81-.69 26.72-4.45 40.07-16.61 2.38 3.32 12.64 18.78 8 33.24-3.51 10.92-14.8 19.22-33.55 24.68a216.23 216.23 0 01-14.52-41.31z" fill="url(#svgcid-oog8kpy5tabe)"></path>
        <path d="M101.83 355.94h.26c20-1.77 34.88-6.46 44.49-14 4.15 8.74 4.65 16.34 1.49 22.65-8.61 17.11-40.74 21.38-41.56 21.49a296.15 296.15 0 01-4.68-30.14z" fill="url(#svgcid-ofdz9z62atg5)"></path>
        <path d="M107.19 249.78a109.58 109.58 0 0014.67 1.07c9.88 0 18.09-1.68 24.58-5 2.24 6.6 5.06 19.2-1 30.07-6.49 11.72-21.6 18.86-44.89 21.24a306.91 306.91 0 016.64-47.38z" fill="url(#svgcid--t7mpqk-vccyad)"></path>
        <path d="M283.74 269.72c3.06 3.57 13.34 16.93 10.41 31.94-2.6 13.36-14.87 25-36.47 34.56l-.24.14c-1-1.65-1.74-2.65-1.88-2.83a4.47 4.47 0 00-1.17-1.09 58.13 58.13 0 004-10.57 61.84 61.84 0 00-.71-33.73c12.04-4.53 20.73-10.71 26.06-18.42z" fill="url(#svgcid-brjiot26iak6)"></path>
        <path d="M319.92 375.17c-2.53 12.12-18.26 20.52-45.47 24.29a4.68 4.68 0 00-.84.2 32.94 32.94 0 00-6.52-17.79q30-17.64 42.1-33.43c2.94 2.49 13.2 14.94 10.73 26.73z" fill="url(#svgcid-9pkjmv-t19y5d)"></path>
        <path d="M264.11 406c-3 11.14-15.88 21.29-37.41 29.58v-.37c-.71-9.95-9.85-15.69-10.23-15.93l-.18-.08c.15-.88.26-1.79.35-2.71h.1c22.08-5.65 37.05-14.78 44.72-27.18a21.76 21.76 0 012.65 16.69z" fill="url(#svgcid--c3naaye5g59d)"></path>
        <path d="M153.27 280.13a38.61 38.61 0 004.64-16.5 4.15 4.15 0 00.74-.22q18.9-7.86 28.5-17.12a53.42 53.42 0 017.46 11.65c4.1 9 3.5 16.53-1.76 22.29-6.17 6.75-18.46 11.48-36.53 14a4.35 4.35 0 00-1.81.71 70 70 0 00-5-9.29 36.7 36.7 0 003.76-5.52z" fill="url(#svgcid-86ao79-uncfnn)"></path>
        <path d="M268.5 162.58a7.18 7.18 0 012.13 5.08v5.77a6 6 0 01-7.92 5.67l-.82-.28a21.16 21.16 0 00-.95-10.77 15.81 15.81 0 00-2.32-4.18l1.76-1.53a6 6 0 018.12.24z" fill="url(#svgcid-vrcheq-opqdmr)"></path>
        <path d="M262.38 188.32c.1.09 9.26 9.08 8.14 21.53-.95 10.6-8.87 20.94-23.53 30.73a47 47 0 00-6.56-10.58 34 34 0 004.52-9.55c3.09-10.79-.26-20.46-3.42-26.5l2.52.23a13.88 13.88 0 001.44.07 15.81 15.81 0 0013.17-7.14l1.19.4a13.85 13.85 0 002.32.59c.07.05.13.14.21.22z" fill="url(#svgcid-wy5tji-vbmila)"></path>
        <path d="M249.85 319.63c-4.54 16.55-17.95 30.62-39.8 41.87 1.29-8.55-.67-17.74-5.88-27.45-.07-.12-.16-.23-.23-.34a34.13 34.13 0 004.49-6.35 33.44 33.44 0 003.57-20.25h.09c15.43-8.27 26.3-17.58 32.54-27.78 3.19 6.08 10.15 22.35 5.22 40.3z" fill="url(#svgcid-k3f3uva7hj5r)"></path>
        <path d="M202.89 254.77q20.82-7.36 31.7-17.88c2.78 3.74 9.12 13.85 7 26.09-2.21 12.83-12.84 24.62-31.57 35.1a74.89 74.89 0 00-5.89-13.54 4.41 4.41 0 00-2-1.87c5.87-8.96 4.52-19.16.76-27.9z" fill="url(#svgcid--bm9i86-ob0w2f)"></path>
        <path d="M182.52 192.58a5 5 0 01-5.38 1.89l-.48-.13a15.44 15.44 0 00.7-12.09l1.44-.8a5 5 0 017.35 5.25 5.16 5.16 0 01-.87 2.08z" fill="url(#svgcid-bbyuv3cza7vr)"></path>
        <path d="M245.94 174l-.27-.72a19.38 19.38 0 00-3.24-5.54l-.08-.09a6.9 6.9 0 0110.26 3.41 12.42 12.42 0 01-1.35 11.13 6.89 6.89 0 01-5.59 3.11 15 15 0 00.27-11.3z" fill="url(#svgcid--cld8a2mfgndg)"></path>
        <path d="M193 178.49c.84-1 2.29-2.27 3.41-2.35a3.23 3.23 0 012.34 1.34c3.11 3.27 3 7.83 2.41 11.08a4 4 0 01-1.16 2.14 4.07 4.07 0 01-5.34.33l-.47-.36a13.2 13.2 0 00.68-2.46 13.73 13.73 0 00-1.87-9.72z" fill="url(#svgcid-yxb0n1fgvqtr)"></path>
        <path d="M207.75 174.87l1.15-1.25a5.1 5.1 0 018.69 2.06l.95 3.37a11 11 0 01-.74 7.87 3.58 3.58 0 01-4.76 1.6l-2.38-1.17a2.9 2.9 0 00-.41-.16 21.41 21.41 0 00-2.5-12.32z" fill="url(#svgcid--kw5wvf-plqgcw)"></path>
        <path d="M227.07 176.65l-.95-3.37a13.87 13.87 0 00-1-2.46 8.88 8.88 0 0110.5 2.65 10.15 10.15 0 011.74 3l.27.71a5.91 5.91 0 01-1.55 6.58 4.81 4.81 0 01-4.55.91l-3.8-1.19a20 20 0 00-.66-6.83z" fill="url(#svgcid--grlw12brxs8j)"></path>
        <path d="M157.57 196a17.47 17.47 0 00.81-13.9l1.73-.76a6.66 6.66 0 018.45 9.41l-1.09 1.9a6.65 6.65 0 01-5.78 3.35z" fill="url(#svgcid--3qxqi0-kqlq5e)"></path>
        <path d="M189.4 198.14a12.79 12.79 0 0018-2.51l1.69.83a12.24 12.24 0 005.46 1.28 12.5 12.5 0 0010.53-5.81l3.79 1.19a15.48 15.48 0 002 .46c1.55 2.06 8.93 12.71 5.52 24.48-3.35 11.53-16.4 21.46-37.76 28.8a56.53 56.53 0 00-5.74-7.48 24.79 24.79 0 003.94-10.76c1.44-13.49-9.71-23.36-13.25-26.13a13.74 13.74 0 005.82-4.35z" fill="url(#svgcid-lalvdg4frvxk)"></path>
        <path d="M153.13 335.31a31.07 31.07 0 003.46-5.77c4.08-9 3.24-18.48.91-26.48h.07c17.82-2.54 30.87-7.27 38.91-14.07 7.54 13.8 9 25.29 4.16 34.13-9.36 17.31-39.39 20.89-43.55 21.31a55.28 55.28 0 00-3.96-9.12z" fill="url(#svgcid-geaxp55950b)"></path>
        <path d="M207.52 370.19a4.32 4.32 0 004.43.33c16.93-8.38 29.49-18.43 37.59-30C253 345.88 262.43 363 256.7 379c-4.6 12.85-18.07 22.38-40 28.37-1-15.44-7.14-31.55-8.19-34.21a4.37 4.37 0 00-1.48-1.92c.17-.37.34-.7.49-1.05z" fill="url(#svgcid--sx4122q9sjxa)"></path>
        <path d="M308.28 327.77c.9 15.09-23.46 32.87-41 43.67.78-10.46-2.38-20.25-5.62-27.28 18.35-8.19 30.76-18.07 37.06-29.49 2.78 1.6 9.14 5.96 9.56 13.1z" fill="url(#svgcid-nudfoe9555ow)"></path>
        <path d="M280.05 257.09c-2.76 9.74-11.29 17.37-25.33 22.71a56.84 56.84 0 00-4.1-7.92 4.38 4.38 0 00-1.76-1.53 38.8 38.8 0 00.91-21.65 4.36 4.36 0 002-.69c10.3-6.86 17.73-14.17 22.29-21.83 4.1 7.24 9.24 19.48 5.99 30.91z" fill="url(#svgcid--wbd03b-gmcsoi)"></path>
        <path d="M135.19 186.44a8.36 8.36 0 014.23-5.5 6.92 6.92 0 011.88-.57h.99c.49 0 1 0 1.44-.07a8 8 0 015 2.61 8.14 8.14 0 01-.71 11.22 8.2 8.2 0 01-11.74-1.25 7.76 7.76 0 01-1.09-6.44z" fill="url(#svgcid--a12ceabgbaga)"></path>
        <path d="M162.76 204.84a15.61 15.61 0 008.05-2.92h.05l3.93 1.08c.45.12.89.19 1.34.27a4.41 4.41 0 001.37 5.7c.12.08 11.64 8.37 10.54 18.69-1 9.16-11.52 18.32-30.51 26.56a60.27 60.27 0 00-3.59-13.75 29.12 29.12 0 002.16-2.29c9.08-10.81 8.11-25.39 6.66-33.34z" fill="url(#svgcid-s1lwl3175smb)"></path>
        <path d="M100.08 330.3c-.27-8.28-.23-16.36.06-24.21h.24c18.62-1.79 32.9-6.5 42.62-14.09 3.67 6.13 11.27 21.33 5.54 33.86-5.38 11.78-21.27 18.91-47.2 21.21h-.28c-.46-5.38-.79-10.98-.98-16.77z" fill="url(#svgcid--use2wj-dko458)"></path>
        <path d="M155 372a4.31 4.31 0 00-.63-.65 31.37 31.37 0 001.63-2.75 28.61 28.61 0 002.91-15.45c5.64-.62 24.53-3.36 38.27-13.34 5 9.93 5.72 18.93 2.27 26.78-6.73 15.26-27.38 23-34.51 25.25A61.56 61.56 0 00155 372z" fill="url(#svgcid--mu3lg1n510zb)"></path>
        <path d="M166.49 400.64c5.88-1.75 23.92-7.94 35-20.93a142.4 142.4 0 014.72 16.93c2.78 13.3 2.33 23.28-1.27 28.1-2.18 2.93-5.79 4.14-11 3.69a4.4 4.4 0 00-2.23.4 116 116 0 00-14.08-12.21l-11.32-8.28a36.28 36.28 0 00.18-7.7z" fill="url(#svgcid--eyuaibks8ncu)"></path>
        <path d="M212 430a19 19 0 001.28-2c1.72 1.49 4.31 4.3 4.54 7.9.33 5-4.15 9.91-8 13.2q-4.94-5.91-10.41-12A18.23 18.23 0 00212 430z" fill="url(#svgcid-lvxkluhwyw3)"></path>
        <path d="M241.76 438.76c17.41-8.53 27.78-18.72 30.91-30.43.07-.22.09-.44.15-.66a4.4 4.4 0 002.24.61 4.26 4.26 0 00.61 0l1.22-.18C265.6 422 241 453.73 230.6 476.89c-1.26-1.93-2.56-3.87-3.94-5.84 13.74-6.97 14.99-27.64 15.1-32.29z" fill="url(#svgcid--wlq8pj-ktf330)"></path>
        <path d="M299.31 210c-.77 7-5.46 13.39-13.91 19a75.2 75.2 0 00-7-12.84 33.35 33.35 0 001-5.67c.93-10.86-3.7-19.44-7.21-24.28l.43-.27a24.86 24.86 0 0012.1 3.59 16.55 16.55 0 006.5-1.31c3.33 4.1 9.11 12.58 8.09 21.78z" fill="url(#svgcid-4sg2z9yv80pn)"></path>
        <path d="M159.18 165.71c1.29-1.36 3-2.53 4.19-2.29a3.52 3.52 0 012 1.63 12 12 0 011.47 7.49 15.38 15.38 0 00-9.31.4 12.58 12.58 0 001.65-7.23z" fill="url(#svgcid-ux4kbbd4va7u)"></path>
        <path d="M109.63 79.23c.86-1 3.16-3.79 5.92-3.48a5.76 5.76 0 013.81 2.25 6.69 6.69 0 01.89 2.06 10.68 10.68 0 01-.58 4.13 1.63 1.63 0 000 1 9.16 9.16 0 00-2.67 2.75 4.49 4.49 0 00-.4-.37c-2.89-2.19-7.29-1.61-9.73.31a12.89 12.89 0 012.76-8.65z" fill="url(#svgcid--gmjkktwjxozm)"></path>
        <path d="M109.23 99c-2.21-3.14-2-6.77-.21-8.24 1.27-1.06 4-1.44 5.47-.32a3 3 0 01.71.79c1.25 2.06-.37 5.06-.44 5.19a1.42 1.42 0 00-.12.4h-.37a9.43 9.43 0 00-5.04 2.18z" fill="url(#svgcid--g16ur4czij3s)"></path>
        <path d="M133.92 173.52c-1.72-2.65-.7-6.89 1-9.7a11.94 11.94 0 016.65-5.23c1.22-.16 2.41-.35 3.54-.56a10.49 10.49 0 011.37.08c3.61.46 8 2.76 9 6.74a9 9 0 01-1.42 7 9.53 9.53 0 01-2.24 2.19 16.91 16.91 0 00-16.24-1 15.46 15.46 0 00-1.43.81 2.26 2.26 0 01-.23-.33z" fill="url(#svgcid-iyd91m-9rfs6j)"></path>
        <path d="M123 97.19a26.22 26.22 0 01-1.2 2.59 9.9 9.9 0 00-3.55-2.42 9.65 9.65 0 00.68-6.52A1.75 1.75 0 00120 90a5 5 0 013.82-2.6 5.13 5.13 0 014.18 1.88s.06 0 .09.09a24.13 24.13 0 00-5.09 7.82z" fill="url(#svgcid--mwhxri-c85xux)"></path>
        <path d="M130.69 87a8.6 8.6 0 00-7.22-3.13h-.07a14.77 14.77 0 00.43-3.26 1.76 1.76 0 001.57-.65 7 7 0 014.14-2.71c3.2-.53 6.68 1.81 8.42 5.59a26.73 26.73 0 00-7.27 4.16z" fill="url(#svgcid--3o6hymuwc79b)"></path>
        <path d="M133.64 73.13a10.35 10.35 0 013.4-7.36 6.87 6.87 0 015-1.83c2.44.23 4.8 2.31 6 5.28a1.76 1.76 0 001.68 1.09 12.71 12.71 0 00-.49 2.14 1.75 1.75 0 00.35 1.29 10 10 0 00-1.52 1.26s-.06.09-.09.13c-2.37-2.28-5.19-3.33-7.76-2.64a7 7 0 00-3.92 3.05 11.44 11.44 0 00-3-1.42 1.73 1.73 0 00.35-.99z" fill="url(#svgcid--20ej2senbe3h)"></path>
        <path d="M172.38 62.75a9.79 9.79 0 001 3.27l.07.08a14.92 14.92 0 00-7.38 5.31 12.14 12.14 0 00-6.77-6 8.39 8.39 0 00-2.5-.41 10 10 0 016.95-4.59 9.89 9.89 0 017.12 2.06 1.7 1.7 0 001.51.28z" fill="url(#svgcid--ghkfuv-t1arq8)"></path>
        <path d="M183.42 55.73a6.07 6.07 0 013.66 3 1.76 1.76 0 001.81.91 12.27 12.27 0 001.6 5.53.18.18 0 010 .07 11.12 11.12 0 00-3.88 3.39s-.08-.11-.13-.15a15.06 15.06 0 00-9.84-3 1.76 1.76 0 00-.16-1.12 6 6 0 012.3-8.11 5.9 5.9 0 014.64-.52z" fill="url(#svgcid-ksf6kj-1lkrx5)"></path>
        <path d="M193.55 63.34a7.44 7.44 0 01-.8-6c1.22-3.39 5.34-4.51 7.84-4.45 4.47.12 7.1 3.85 7.39 4.27a1.72 1.72 0 001.62.75 20 20 0 00.56 5.42 1.73 1.73 0 00.14.34c-.21.08-.43.13-.63.23a9.17 9.17 0 00-3.37 2.76A15.71 15.71 0 00193.77 64a1.79 1.79 0 00-.22-.66z" fill="url(#svgcid-m8keh09xmyzp)"></path>
        <path d="M220.57 70.61c.17.43.34.83.49 1.15a1.72 1.72 0 00.6.68c-.23.24-.47.48-.65.7a1.54 1.54 0 00-.23.44 11.46 11.46 0 00-11.27 2.81 11 11 0 00-2-1.63 1.84 1.84 0 00.3-1.16 6.12 6.12 0 0111.48-3.8 1.74 1.74 0 001.28.81z" fill="url(#svgcid--hwlbwq-y0d28f)"></path>
        <path d="M227.61 72.79c3.17-.82 6.82.72 9.29 4l.07.06a14.15 14.15 0 00-3.37 5.85 13 13 0 00-2.48-.6 11.78 11.78 0 00-3 0 1.54 1.54 0 000-.37 12 12 0 00-4.21-6.54 7.44 7.44 0 013.7-2.4z" fill="url(#svgcid-b5hh9j-qx54kr)"></path>
        <path d="M247.77 100.3a1.67 1.67 0 00.51.89 18.47 18.47 0 00-1.67 4.6 9.87 9.87 0 00-2.87-1.12 11.44 11.44 0 00-5.63.31c-.33.09-.62.21-.93.32a19.53 19.53 0 00-2.27-6.46 1.8 1.8 0 00.57-.62s1.93-3.63 5.41-3.82c3.17-.2 6.11 2.36 6.88 5.9z" fill="url(#svgcid--ue3y2cogoqgp)"></path>
        <path d="M267 142.71a1.82 1.82 0 00.13.57l-.25.07a21.66 21.66 0 00-7 3.52 8.73 8.73 0 00-4.53-1.78 8.38 8.38 0 00-4.28.8 20.6 20.6 0 00-3.47-6.55 1.77 1.77 0 001.58-.92 9.45 9.45 0 0117.82 4.29z" fill="url(#svgcid-vx18x2-j0vh6h)"></path>
        <path d="M165.5 149.05a4.53 4.53 0 011.23.22c2.78.92 4.87 4.72 5 9a1.6 1.6 0 00.31.89 13 13 0 00-4.1 3.4 6.68 6.68 0 00-3.83-2.65c-2.29-.47-4.43.7-6 1.94a11.56 11.56 0 00-2.69-3.46 13.74 13.74 0 011.69-4.24 42 42 0 008.39-5.1z" fill="url(#svgcid--6v2bv1e1cbjk)"></path>
        <path d="M176.65 69a11.47 11.47 0 017.75 2.28 1.7 1.7 0 00.64.3 16.12 16.12 0 00-1 3.85 12.8 12.8 0 00-6.69 3.57s0 .08-.07.12C174.72 77 171 76.25 169 76a14.56 14.56 0 00-1.47-.12 11.5 11.5 0 019.12-6.88z" fill="url(#svgcid-cvv75xf6ywzg)"></path>
        <path d="M191.14 69c3.5-2.72 8.93-2.48 13.19.6a2 2 0 00.39.18 10.3 10.3 0 00-.43 3.6 10.86 10.86 0 00-11 3.69 1.66 1.66 0 00-.33.63 11.66 11.66 0 00-5.29-2.25 10 10 0 013.47-6.45z" fill="url(#svgcid-4q34pxap9o31)"></path>
        <path d="M224.68 82.53a1.93 1.93 0 00.19.47 13.79 13.79 0 00-3.57 2.21 1.67 1.67 0 00-.12.16A12.91 12.91 0 00215.3 83a13.23 13.23 0 00-2.8 0 2.45 2.45 0 000-.27 10.74 10.74 0 00-1-3.42 1.76 1.76 0 00.4-.27 7.82 7.82 0 018.53-1.79 8 8 0 014.25 5.28z" fill="url(#svgcid-vvlz51-3mt51c)"></path>
        <path d="M233.83 106.87a1.13 1.13 0 000 .15 15.74 15.74 0 00-3.58 3.55 9.26 9.26 0 00-1.41-.88 12.07 12.07 0 00-8.1-.61 14.51 14.51 0 00-1.76.53 22 22 0 00-3.83-11.17 1.6 1.6 0 00.31-.22c1.08-1.12 4-3.71 7.78-3.54 5.27.24 9.9 5.59 10.59 12.19z" fill="url(#svgcid-3h4ww6dj6qau)"></path>
        <path d="M247.82 147.58a1.53 1.53 0 00.22.42 9.79 9.79 0 00-.78.89 9.48 9.48 0 00-3.56-1 10.2 10.2 0 00-8 3.55 1.51 1.51 0 00-.31.53 8.16 8.16 0 00-3-.95 11.84 11.84 0 00.26-7.44 1.71 1.71 0 00.71-.7 7 7 0 011.68-2.13 6.89 6.89 0 012.79-1.45 7 7 0 013.89.22 7.78 7.78 0 012.58 1.6s.3.28.57.57a18.1 18.1 0 012.95 5.89z" fill="url(#svgcid--stjzljtm84i1)"></path>
        <path d="M169.49 165.5a1.78 1.78 0 001.15-.65c1.92-2.42 4.7-3.72 6.73-3.18a5.64 5.64 0 013.33 3.07 9.64 9.64 0 01.4 7.24 13.82 13.82 0 00-6.59 1.72l-2.51 1.36a16.39 16.39 0 00-1.8-1.18 17.55 17.55 0 00-.71-8.38z" fill="url(#svgcid--ic9zfc60wshw)"></path>
        <path d="M177 144.57a8.37 8.37 0 01-1.2-3.48 8.93 8.93 0 013.65-7.82c1-.72 4.35-2.94 7.14-1.53s3.58 5.78 2.62 8.85a7.57 7.57 0 01-1.31 2.45 1.69 1.69 0 00-.35 1 14 14 0 00-2 2.58 7.9 7.9 0 00-5.58-2.81h-.08a6.58 6.58 0 00-2.89.76z" fill="url(#svgcid-u7pruzj2qgc9)"></path>
        <path d="M180.84 113.18a31.6 31.6 0 00-2.53-10.6 10.71 10.71 0 017.69-.81c4.91 1.58 8.07 7.59 7.35 14a2 2 0 00.05.6l-.86.56-.06.06a10.09 10.09 0 00-11.64-3.8z" fill="url(#svgcid-e7tebacj9syn)"></path>
        <path d="M199 86.81c3.4-.12 6.66 2.46 7.83 6.15-4.74-.61-9.3 2.24-10.19 2.84-.28.19-.54.41-.8.61a15.09 15.09 0 00-2.84-4.64c-.17-.19-.41-.44-.71-.72a1.72 1.72 0 00.58-.53c.21-.37 2.46-3.59 6.13-3.71z" fill="url(#svgcid-cddu4qnl1gt8)"></path>
        <path d="M214.83 86.52A10.55 10.55 0 01222 91.2a14.94 14.94 0 00-9 4.55.53.53 0 01-.06.1A12.2 12.2 0 00210.1 94a1.76 1.76 0 00.31-1.5 12.9 12.9 0 00-2.23-4.5 10.28 10.28 0 016.65-1.48z" fill="url(#svgcid--5twbovftwlw2)"></path>
        <path d="M194.41 103.34a13.61 13.61 0 014.22-4.6c.44-.29 4.37-2.87 8-2.25 4.23.7 8.72 6.25 8.93 14.32a1.58 1.58 0 00.12.53c-.4.28-.75.54-1.07.8a6.94 6.94 0 00-3.59-3.46c-2.14-.8-4.47-.34-12.6 4.54l-1.42.88a18.14 18.14 0 00-3-10.33 2.21 2.21 0 00.41-.43z" fill="url(#svgcid-y1nbgb-gy2l2j)"></path>
        <path d="M231.33 122.09a11 11 0 00-9.62 6 8.24 8.24 0 00-4.91-1.43 21.18 21.18 0 00-.68-11.29 2.23 2.23 0 00.33-.2 11.18 11.18 0 015.09-2.67 9.08 9.08 0 015.76.32c2.7 1.39 4.29 5.12 4.03 9.27z" fill="url(#svgcid-jpuna1ot08s6)"></path>
        <path d="M249.59 157.35a1.74 1.74 0 00.48.87 15.67 15.67 0 00-9.67.56.41.41 0 000-.11 10.91 10.91 0 00-2.43-4.59 1.77 1.77 0 00.35-.26 6.86 6.86 0 015.18-2.36c2.87.17 5.44 2.65 6.09 5.89z" fill="url(#svgcid--7knfloxh7dnx)"></path>
        <path d="M237 159.54a1.79 1.79 0 00.47.8c-.13.08-.27.15-.4.24L235 162c-.13.1-.23.21-.35.31a18 18 0 00-5.18-1.07 11.11 11.11 0 00-1.41-5.5 1.31 1.31 0 00.27-.12 5.37 5.37 0 013.58-1.08c2.32.23 4.35 2.24 5.09 5z" fill="url(#svgcid--m8hrj9-qysj97)"></path>
        <path d="M221.2 162.86l-1.74.82a4.37 4.37 0 00-1 .67 13.13 13.13 0 00-3.74-1.1 10.6 10.6 0 00-2.05-4.64 1.85 1.85 0 00.54-.54c2-3.27 6-4.65 9.09-3.13a7 7 0 013.64 6.49 17.26 17.26 0 00-4.74 1.43z" fill="url(#svgcid-6zyqpvoobeny)"></path>
        <path d="M202.35 167.64l-.84.92a11.42 11.42 0 00-2.26-.9 10.57 10.57 0 00-.94-6.14l-.07-.14a1.76 1.76 0 00.42-.4 7 7 0 0112.44 2.22 14.06 14.06 0 00-8.75 4.44z" fill="url(#svgcid-2e85so4pztk9)"></path>
        <path d="M200.1 148.89a1.73 1.73 0 001.41-1 7.39 7.39 0 019-4.11 7.31 7.31 0 014.6 7.7 1.39 1.39 0 000 .35 11.41 11.41 0 00-5 4.4v.05a10.3 10.3 0 00-8.71-1.32 20.55 20.55 0 00-1.3-6.07z" fill="url(#svgcid--tifyob-krijze)"></path>
        <path d="M229 151.37a9.92 9.92 0 00-2.78 1.38 1.9 1.9 0 00-.36.39 9.55 9.55 0 00-2-1.39 9.69 9.69 0 00-5.18-.89 11 11 0 00-1.2-5.23 1.87 1.87 0 00.35-.28 10.06 10.06 0 012.51-2.15c1.07-.64 4.76-2.63 7.14-1.14 1.83 1.15 2.9 4.44 1.54 8a1.75 1.75 0 00-.02 1.31z" fill="url(#svgcid-soezxdg2cwpv)"></path>
        <path d="M218.51 140.16a13.41 13.41 0 00-3.11 2.63 10.21 10.21 0 00-3.67-2.36 10.38 10.38 0 00-4-.58 13.8 13.8 0 00-.81-3.38 1.73 1.73 0 00.8-.62 12.27 12.27 0 013.69-3.63c3-1.92 5.6-2.44 7.62-1.56a5.44 5.44 0 011.83 1.36 8.43 8.43 0 012 6.31 17.16 17.16 0 00-4.35 1.83z" fill="url(#svgcid-e1gtuc-ont4kf)"></path>
        <path d="M194.23 120a1.17 1.17 0 00.26-.1c1.87-1.23 3.8-2.45 5.75-3.62 7.07-4.24 8.79-4.54 9.52-4.26 1 .37 1.56 1.45 2.41 3.17a17.28 17.28 0 011.07 11.28 1.75 1.75 0 00.07.91 18.61 18.61 0 00-3.83 1.86 15.65 15.65 0 00-4.31 4.09 9.27 9.27 0 00-7.15-4h-.11a7.66 7.66 0 00-2.13.32 20.48 20.48 0 00-1.55-9.65z" fill="url(#svgcid--abinm1lutrw0)"></path>
        <path d="M197.92 132.84h.08c2.78 0 5.92 3.18 6.24 7.81a11.16 11.16 0 00-5.69 5.29c-1.7-2.46-3.91-3.87-6-4 0-.09.08-.17.11-.26a12.93 12.93 0 00.34-5.86 1.82 1.82 0 00.53-.43c.47-.63 2.16-2.55 4.39-2.55z" fill="url(#svgcid-on8l9-fmgqm7)"></path>
        <path d="M187.38 149.44a1.76 1.76 0 001.11-.82c.89-1.52 2.3-3.15 3.6-3.2 1.91-.08 5.54 3.34 5.89 10.4a1.67 1.67 0 00.2.71 10.41 10.41 0 00-2.08 2 8.67 8.67 0 00-3.45-2 8.83 8.83 0 00-4.15-.13 13.11 13.11 0 00-1.12-6.96z" fill="url(#svgcid-8j3o35ucxpib)"></path>
        <path d="M191.67 160a5.79 5.79 0 013.46 3.1 7.08 7.08 0 01.59 4.23h-.05c-4.68.38-8.08 3.8-9.54 5.58a12.52 12.52 0 00-1.47-.46 13.12 13.12 0 00-.5-8.59 1.9 1.9 0 00.41-.48c1.5-2.7 4.55-4.15 7.1-3.38z" fill="url(#svgcid-li4x6gwhzrem)"></path>
        <path d="M259.8 152.74a14.57 14.57 0 00-5.23 2.91l-1.5 1.3v-.3a11.41 11.41 0 00-3-5.66c.2-.24 2.12-2.57 4.87-2.34a5.77 5.77 0 014.86 4.09z" fill="url(#svgcid--n4egbf-khh5uq)"></path>
        <path d="M236.39 128.72a8.42 8.42 0 011 6.86.82.82 0 000 .22l-.39.08a10.2 10.2 0 00-6.16 4.45 6.75 6.75 0 00-4.47-2.3 12.26 12.26 0 00-2-7.26c1.31-3.33 4.57-5.51 7.58-5.07a6.59 6.59 0 014.44 3.02z" fill="url(#svgcid-bjorysdivluv)"></path>
        <path d="M209 83.09a1.68 1.68 0 00.17.55 14.43 14.43 0 00-3.45 1.72s-.06.08-.1.11a10.9 10.9 0 00-6.72-2.2 10.24 10.24 0 00-1.71.22 2 2 0 00-.06-.34 13.39 13.39 0 00-2-3.29 1.73 1.73 0 00.85-.54 7.33 7.33 0 0113 3.77z" fill="url(#svgcid-229r1z-9xf62r)"></path>
        <path d="M179.32 87.32a8.58 8.58 0 00.36-4.61 7.24 7.24 0 00-.3-.86 1.72 1.72 0 00.51-.35 8.31 8.31 0 0114 3c0 .08.09.15.13.23a13.15 13.15 0 00-4.09 3.83 1.54 1.54 0 00-.19.46 12.25 12.25 0 00-9.51-2 8.24 8.24 0 00-.88.29s-.03.02-.03.01z" fill="url(#svgcid--fbhp3hptpxf6)"></path>
        <path d="M181 90.52c4.61-1.06 8.34 2.52 9.37 3.65a11.32 11.32 0 012.25 3.68 1.69 1.69 0 00.76.88 17.48 17.48 0 00-1.7 2.32 12.74 12.74 0 00-4.59-2.66 14.28 14.28 0 00-10.35 1 34.52 34.52 0 00-2.13-3.3 2 2 0 00.28-.37c.33-.72 2.23-4.31 6.11-5.2z" fill="url(#svgcid-j5ar6v-l2izjm)"></path>
        <path d="M180.88 116.89h.18a7.5 7.5 0 015-.42c4.08 1.25 6.73 7 6.15 13.32a1.72 1.72 0 00.54 1.4 11.93 11.93 0 00-1.09.93 8.27 8.27 0 00-3.49-3.51c-4-2-8.14.06-10.09 1.32a43.55 43.55 0 002.8-13.04z" fill="url(#svgcid-7ky42yas4q39)"></path>
        <path d="M175 151.91c1.09-2.64 3.18-4.5 4.94-4.52a4.57 4.57 0 013.17 1.81 9.26 9.26 0 011.85 7.39 1.67 1.67 0 00.25 1.16 10.8 10.8 0 00-3 2.88 8.17 8.17 0 00-3.86-2.39 7.43 7.43 0 00-3.05-.12 16.64 16.64 0 00-1-5.36 1.77 1.77 0 00.7-.85z" fill="url(#svgcid-aecaj2o00o48)"></path>
        <path d="M276 148.27a20.94 20.94 0 00-6.47 4.73 15.13 15.13 0 00-6.24-.93 10.22 10.22 0 00-1.13-2.52 18.12 18.12 0 015.66-2.79c2.65-.76 5.38-1.55 7-.3a3.59 3.59 0 011.18 1.81z" fill="url(#svgcid--n9wu8nr5cky6)"></path>
        <path d="M255.71 129.89a13.32 13.32 0 00-9.74 6.88 1.69 1.69 0 00-.16 1 10.62 10.62 0 00-2.88-1.58 10 10 0 00-1.94-.49 11.93 11.93 0 00-1.62-8.94 11.78 11.78 0 00-1.06-1.36c2.34-2.46 6.73-6.55 11.1-7.76a4.32 4.32 0 012.84 0 3.93 3.93 0 011.3 2.47c.85 3.06 1.57 6.36 2.16 9.78z" fill="url(#svgcid-pmmdjtrcd388)"></path>
        <path d="M248.47 114.25c-5.31 1.47-10.37 6.23-12.91 8.93-.23-.13-.47-.24-.71-.35a15.12 15.12 0 00-2.15-9.68 2 2 0 00.33-.32 11.23 11.23 0 016-4.46 8.07 8.07 0 013.93-.25c3.68.79 5.54 4.71 6.06 6-.16.06-.35.08-.55.13z" fill="url(#svgcid-g8vejtn49nap)"></path>
        <path d="M232.77 95.85a14 14 0 00-6.88-4.33 1.74 1.74 0 00-.16-1 14.88 14.88 0 00-1.94-2.75A8.88 8.88 0 01238 91.43a11.55 11.55 0 00-5.23 4.42z" fill="url(#svgcid-8rbp1z3qh2ap)"></path>
        <path d="M155 68.82a4.24 4.24 0 013.23-.06 8.66 8.66 0 014.86 4.51 1.74 1.74 0 001.35.94c-.15.33-.33.65-.47 1a1.78 1.78 0 00-.09.85 18.94 18.94 0 00-2.52.55 1.78 1.78 0 00-.51.27c-1.87-2.75-4.49-4.47-7.24-4.47a6 6 0 00-.78.06c.17-.91.69-2.91 2.17-3.65z" fill="url(#svgcid-whphls3englx)"></path>
        <path d="M141.38 81.78v-.06a15 15 0 00-2.46-3.89 1 1 0 00.25-.26 3.82 3.82 0 012-1.69c1.86-.49 4.86 1.36 6.81 5.16a28.32 28.32 0 00-6.6.74z" fill="url(#svgcid-oi21t6-jcuj3d)"></path>
        <path d="M151.67 80.6a18.33 18.33 0 00-1.52-2.85 1.56 1.56 0 00.38-.25 4.58 4.58 0 013.09-1.5c2.36 0 5.25 2.92 6.12 7.67a28.91 28.91 0 00-7.95-2.3 1.81 1.81 0 00-.12-.77z" fill="url(#svgcid--ajn9wv-v5madd)"></path>
        <path d="M162.43 80a14.5 14.5 0 016.11-.49c3.31.46 7.08 1.79 7.71 4.14a5.88 5.88 0 01-.36 2.77 8.16 8.16 0 01-1.23 2.47 1.72 1.72 0 00-.25 1.5 14.36 14.36 0 00-2.17 2.82 45.33 45.33 0 00-8-7c-.43-.3-.88-.57-1.33-.84a1.75 1.75 0 00.51-1.45 17.46 17.46 0 00-.99-3.92z" fill="url(#svgcid-ubltmd-nbwfqz)"></path>
        <path d="M172.31 141.68a11.92 11.92 0 001.82 5 12.73 12.73 0 00-1.83 2.6 9.66 9.66 0 00-3.68-3 24.86 24.86 0 003.57-4.37 2.25 2.25 0 01.12-.23z" fill="url(#svgcid--92wnq81hjj0a)"></path>
        <path d="M152.31 156.29l-.22-.1.29-.1c-.02.07-.05.13-.07.2z" fill="url(#svgcid--subt8b-xrbvmf)"></path>
        <path d="M284 146.67a17.08 17.08 0 00-4.62.44 8 8 0 00-1.08-2.11 1.31 1.31 0 00.11-.12c.84-1.34 2.19-2.79 3.46-2.82a3.57 3.57 0 012.4 1.18 9.27 9.27 0 012.24 3.76 16.54 16.54 0 00-2.51-.33z" fill="url(#svgcid-heiph9-7mrw84)"></path>
        <path d="M283.66 138.79a5.38 5.38 0 00-1.88-.29c-3.15.08-5.36 2.93-6.26 4.32a9 9 0 00-5-.37 13.35 13.35 0 00-4.51-9.51c.8-1 4.2-4.69 8.76-4.25s8.41 4.8 8.89 10.1z" fill="url(#svgcid-4t7o9wbnpdey)"></path>
        <path d="M277.91 125.8a11.88 11.88 0 00-2.8-.64c-6.82-.66-11.44 5-12.07 5.82a12.88 12.88 0 00-3.09-1c-.23 0-.47 0-.7-.07a1.61 1.61 0 000-.31 102.69 102.69 0 00-2.25-10.45 11.21 11.21 0 00-.32-1.08 1.83 1.83 0 00.64-.54c.83-1.21 3.88-5.19 8-5.42 5.25-.28 11.27 5.1 12.59 13.69z" fill="url(#svgcid-8yaq3f5oz9bl)"></path>
        <path d="M268.79 109a11.77 11.77 0 00-3.65-.43c-5.21.29-8.84 4.3-10.43 6.47a5.37 5.37 0 00-.65-.46 4.89 4.89 0 00-1.44-.55 1.63 1.63 0 00-.09-.72 16.26 16.26 0 00-2.87-4.94 1.62 1.62 0 00.15-.42c.33-2.47 1.68-7 4.65-8.26a7.81 7.81 0 016 .43 17 17 0 018.33 8.88z" fill="url(#svgcid--ur1dcu-u482h7)"></path>
        <path d="M261.19 96.62a10.75 10.75 0 00-8.12-.18 8.42 8.42 0 00-2.32 1.5 11.05 11.05 0 00-4.12-5.32 1.68 1.68 0 00.39-.76 4.47 4.47 0 011.38-2.52 5.45 5.45 0 014.16-.85c3.87.39 7.03 5.01 8.63 8.13z" fill="url(#svgcid--2i5sjpy1zyt)"></path>
        <path d="M253.49 85.07c-.2 0-.38-.09-.58-.11-1.29-.12-4.32-.43-6.81 1.68a7.94 7.94 0 00-2.55 4.52 9.55 9.55 0 00-2-.29 1.67 1.67 0 00-.08-.49 13.24 13.24 0 00-4.69-6.11.91.91 0 00.07-.14c.9-3.59 3.31-6.31 6.16-6.94a7.89 7.89 0 015.99 1.36 11.3 11.3 0 014.49 6.52z" fill="url(#svgcid-cxlblk-7sdyt2)"></path>
        <path d="M236.63 66.67h.05c3.72 0 7.08 2.84 8.38 6.89a9.91 9.91 0 00-2.83.2 9.54 9.54 0 00-2.46.94s0-.07-.06-.1a13.68 13.68 0 00-8.71-5.41 8.43 8.43 0 015.63-2.52z" fill="url(#svgcid-6hmpmz-3mihmq)"></path>
        <path d="M232.7 63.31a1.64 1.64 0 00.17.53 13.64 13.64 0 00-5.71 4.29 1.72 1.72 0 00-.35 1.22h-.11a9.86 9.86 0 00-2.4 1 1.21 1.21 0 00-.05-.18 10.15 10.15 0 01-.85-6.68c.55-2.3 2.28-6 4.6-6 2 .09 4.33 2.39 4.7 5.82z" fill="url(#svgcid--fgd6nh-4b3w0v)"></path>
        <path d="M223.64 55.35a1.3 1.3 0 00.26.31 14.17 14.17 0 00-4 7 12.24 12.24 0 00-.31 2.33 10.07 10.07 0 00-6-2 2 2 0 000-.54c-.93-3.86-.46-7.69 1.25-10.25a4.29 4.29 0 012.54-2c1.55-.2 4.25 1.52 6.26 5.15z" fill="url(#svgcid--646jzdyltnwp)"></path>
        <path d="M209.24 43.89c2.86.33 4.39 3.62 4.4 3.66a2 2 0 00.36.5 9.41 9.41 0 00-2.09 2.24 13.24 13.24 0 00-1.74 3.92 13.46 13.46 0 00-7.37-4.61c.71-3.78 3.9-6 6.44-5.71z" fill="url(#svgcid-qcj6pmu2800x)"></path>
        <path d="M192.28 40.6a9.68 9.68 0 019.63 2.11 1.53 1.53 0 00.55.32 11.13 11.13 0 00-3.19 6.11 2.26 2.26 0 000 .26c-3.87.3-8.16 2.39-9.77 6.57a9.41 9.41 0 00-2.72-2.54 1.79 1.79 0 000-.86c-1.24-5.06 1.16-10.31 5.5-11.97z" fill="url(#svgcid-2rtn1tugarar)"></path>
        <path d="M179.69 40.53c2.36-1.18 5.22-.17 6.4.35a14.32 14.32 0 00-3 11.2 9.33 9.33 0 00-6 1.06c-2.48-5.53-.67-10.97 2.6-12.61z" fill="url(#svgcid-3gaur72gv1jp)"></path>
        <path d="M162.68 40.9a21 21 0 0110 2.08 1.65 1.65 0 00.53.13 15.19 15.19 0 00.69 11.75 1.84 1.84 0 00.47.6 9.47 9.47 0 00-1.83 3.82 13.24 13.24 0 00-9.24-2.42 12.25 12.25 0 00-4.72 1.6c.15-5.94-2.46-11.29-6.55-14.09a20.85 20.85 0 0110.65-3.47z" fill="url(#svgcid-eebpu19ou8z5)"></path>
        <path d="M146.77 46c4.42.72 8.83 6 8.25 13.28a1.73 1.73 0 00.68 1.49 14.74 14.74 0 00-2.56 3.48 1.73 1.73 0 000 1.58 6.74 6.74 0 00-2 1.77 11.88 11.88 0 00-7.43-6.89 10.67 10.67 0 00-4.61-12.15c1.3-1.11 4.3-3.17 7.67-2.56z" fill="url(#svgcid--ohyu41d40pvy)"></path>
        <path d="M131.87 51.39a6.4 6.4 0 015.22 0c2.77 1.35 4.18 5 3.19 8.4a1.69 1.69 0 00-.05.67 10.53 10.53 0 00-4.33 1.73 13.51 13.51 0 00-8.11-6.73 7.7 7.7 0 014.08-4.07z" fill="url(#svgcid--anub3d-furku1)"></path>
        <path d="M122.85 58.67c3.94-.79 8.07 1.44 10.05 5.42a1.77 1.77 0 00.39.5A14.08 14.08 0 00130.1 73a1.61 1.61 0 00.1.69 8.65 8.65 0 00-1.25.08 8.07 8.07 0 00-.88.21c-.3-1.7-1.64-7-6.82-9.48a13.09 13.09 0 00-4.36-1.17 9.2 9.2 0 015.96-4.66z" fill="url(#svgcid-slrevd-qd4l8a)"></path>
        <path d="M113.08 67.39a8 8 0 016.63.27c4.24 2.06 4.89 7 4.92 7.2a1.77 1.77 0 00.23.68 11.24 11.24 0 00-1.86 1.73 8.32 8.32 0 00-.75-1.3 8.62 8.62 0 00-13.53-1 8.25 8.25 0 014.36-7.58z" fill="url(#svgcid-28e9avq3ylnl)"></path>
        <path d="M130.21 199.45a17.1 17.1 0 0018.91 4.28 4.43 4.43 0 003 1.18h1.61c1.26 5.87 2.92 18.89-4.43 27.62-6.92 8.22-20.38 11.1-40 8.59 6.04-22.78 13.99-38.12 20.91-41.67z" fill="url(#svgcid--fbs4iem7igox)"></path>
        <path d="M127 444.09c19.07-5.83 31.37-14.79 36.64-26.67l8.67 6.35a107 107 0 0115.18 13.51c46.34 49.88 53.76 78.51 54.79 88.64-30.52-4.92-83.21-22.21-115.28-81.83z" fill="url(#svgcid-ub649d-xcu2yn)"></path>
        <path d="M145.15 97.28c-8 2.73-10.93 12.8-8.71 20.24 2.46 8.26 11.74 14.75 19.67 12.09 8.36-2.81 11.65-14.56 7.87-22.77-2.98-6.57-11.16-12.18-18.83-9.56z"></path>
        <path d="M151.8 102.53a3.46 3.46 0 00-.56 3.93c.9 2 3.7 3.17 5.25 2.07 1.32-1 1.45-3.36.37-4.88s-3.67-2.3-5.06-1.12z" fill="#ffffff"></path>
        <path d="M149.63 151a49.22 49.22 0 00-6.28.69 9.83 9.83 0 00-5.48 2.4c-1.66 1.65-2.05 3.72-2.37 5.92v.18a11.61 11.61 0 00-.3 1.16.28.28 0 000 .08l-.08.15c-.19.35-.37.71-.58 1.06-.74 1.29-1.63 2.5-2.3 3.83a17.41 17.41 0 00-1.61 5.05c-.06.33-.17.67-.22 1-.45.43-1.65 1.46-1.74 1.54l-4.55 4a4.06 4.06 0 00-1.28 3.08 4.51 4.51 0 001.82 5.5c3.74 2.56 8.57 2 12.44.11a20.54 20.54 0 008.14-8.18 49.89 49.89 0 004.24-10.41c.56-1.82 1.11-3.66 1.74-5.46a24.56 24.56 0 012.29-5c1.58-2.8-.51-6.8-3.88-6.7z" fill="#1d1d1b"></path>
    </g>
</svg>