<svg width="440" height="352" viewBox="0 0 440 352" fill="none" xmlns="http://www.w3.org/2000/svg">
<path d="M212.275 56.6046C233.509 56.605 253.872 65.0402 268.886 80.0546C283.901 95.0689 292.335 115.433 292.335 136.666C292.335 157.899 283.901 178.263 268.886 193.278C253.872 208.292 233.509 216.727 212.275 216.727C201.761 216.728 191.35 214.657 181.637 210.634C171.923 206.61 163.097 200.713 155.662 193.279C148.227 185.844 142.33 177.018 138.306 167.305C134.283 157.591 132.212 147.18 132.212 136.666C132.212 126.152 134.283 115.741 138.306 106.027C142.33 96.3138 148.227 87.4878 155.662 80.0534C163.097 72.6189 171.923 66.7217 181.637 62.6984C191.35 58.675 201.761 56.6044 212.275 56.6046ZM212.275 51.2675C201.056 51.2369 189.942 53.4319 179.577 57.7254C169.212 62.0189 159.801 68.3257 151.889 76.2806C143.934 84.1921 137.628 93.6029 133.334 103.968C129.04 114.333 126.845 125.447 126.876 136.667C126.846 147.886 129.041 159 133.334 169.365C137.628 179.73 143.934 189.141 151.889 197.053C159.801 205.008 169.212 211.314 179.577 215.608C189.942 219.901 201.056 222.096 212.275 222.066C223.495 222.097 234.609 219.902 244.974 215.608C255.339 211.315 264.75 205.008 272.661 197.053C280.616 189.141 286.923 179.73 291.217 169.365C295.51 159 297.705 147.886 297.675 136.667C297.705 125.447 295.51 114.333 291.217 103.968C286.923 93.6029 280.616 84.1921 272.661 76.2806C264.75 68.3257 255.339 62.0189 244.974 57.7254C234.609 53.4319 223.495 51.2369 212.275 51.2675Z" fill="white"/>
<path d="M212.273 216.725C191.047 216.702 170.697 208.259 155.688 193.25C140.679 178.241 132.236 157.891 132.212 136.665C132.236 115.439 140.679 95.0891 155.688 80.0799C170.697 65.0707 191.047 56.628 212.273 56.604C233.5 56.628 253.85 65.0707 268.859 80.0799C283.868 95.0891 292.311 115.439 292.335 136.665C292.31 157.891 283.868 178.241 268.858 193.25C253.849 208.259 233.499 216.702 212.273 216.725ZM212.273 88.6273C199.538 88.6418 187.328 93.7074 178.322 102.713C169.317 111.718 164.251 123.928 164.237 136.664C164.251 149.4 169.317 161.61 178.322 170.615C187.328 179.621 199.538 184.686 212.273 184.701C225.009 184.686 237.219 179.621 246.224 170.615C255.23 161.61 260.296 149.4 260.31 136.664C260.295 123.929 255.229 111.719 246.224 102.714C237.218 93.7085 225.009 88.6431 212.273 88.6287V88.6273Z" fill="#222020"/>
<path d="M212.271 204.718C211.213 204.718 210.136 204.692 209.073 204.643L209.196 201.978C211.268 202.073 213.364 202.072 215.419 201.974L215.546 204.64C214.465 204.692 213.36 204.718 212.271 204.718ZM202.629 204.037C200.496 203.734 198.356 203.326 196.269 202.823L196.895 200.228C198.899 200.711 200.954 201.104 203.004 201.395L202.629 204.037ZM221.992 204.026L221.613 201.385C223.661 201.092 225.716 200.697 227.721 200.211L228.349 202.804C226.263 203.313 224.125 203.725 221.994 204.029L221.992 204.026ZM190.055 201.006C188.026 200.305 186.003 199.497 184.042 198.602L185.15 196.174C187.034 197.034 188.977 197.807 190.925 198.483L190.055 201.006ZM234.563 200.98L233.689 198.458C235.639 197.783 237.58 197.004 239.461 196.144L240.572 198.571C238.616 199.468 236.594 200.28 234.564 200.983L234.563 200.98ZM178.286 195.633C176.425 194.559 174.593 193.381 172.839 192.132L174.387 189.955C176.072 191.155 177.834 192.287 179.621 193.319L178.286 195.633ZM246.326 195.596L244.989 193.287C246.779 192.249 248.538 191.115 250.218 189.916L251.769 192.088C250.019 193.34 248.189 194.52 246.326 195.599L246.326 195.596ZM167.751 188.131C166.125 186.723 164.548 185.222 163.062 183.666L164.992 181.823C166.421 183.319 167.937 184.761 169.498 186.113L167.751 188.131ZM256.855 188.081L255.106 186.066C256.666 184.712 258.18 183.266 259.607 181.77L261.539 183.611C260.053 185.17 258.477 186.675 256.853 188.084L256.855 188.081ZM158.814 178.78C157.482 177.092 156.215 175.319 155.05 173.513L157.295 172.066C158.415 173.801 159.632 175.504 160.913 177.128L158.814 178.78ZM265.778 178.721L263.681 177.071C264.961 175.445 266.176 173.74 267.293 172.004L269.538 173.449C268.375 175.255 267.112 177.029 265.779 178.721H265.778ZM151.802 167.911C150.812 165.999 149.904 164.02 149.103 162.025L151.58 161.031C152.348 162.946 153.221 164.848 154.172 166.685L151.802 167.911ZM272.778 167.843L270.407 166.618C271.356 164.781 272.226 162.876 272.992 160.961L275.469 161.953C274.673 163.948 273.767 165.93 272.78 167.843H272.778ZM146.979 155.908C146.372 153.846 145.858 151.73 145.451 149.616L148.071 149.111C148.463 151.141 148.956 153.175 149.539 155.155L146.979 155.908ZM277.587 155.833L275.026 155.085C275.606 153.104 276.098 151.07 276.487 149.039L279.108 149.541C278.704 151.653 278.192 153.771 277.59 155.833H277.587ZM144.531 143.208C144.326 141.075 144.222 138.9 144.22 136.744H146.889C146.889 138.817 146.992 140.908 147.188 142.958L144.531 143.208ZM280.021 143.131L277.368 142.88C277.561 140.828 277.659 138.737 277.659 136.665V136.513H280.328V136.658C280.325 138.822 280.223 140.996 280.023 143.131H280.021ZM147.174 130.526L144.516 130.279C144.716 128.134 145.021 125.978 145.422 123.868L148.044 124.367C147.658 126.393 147.366 128.466 147.174 130.526ZM277.351 130.303C277.152 128.241 276.852 126.17 276.459 124.147L279.08 123.638C279.488 125.748 279.8 127.9 280.007 130.046L277.351 130.303ZM149.498 118.32L146.937 117.571C147.539 115.506 148.248 113.446 149.046 111.447L151.524 112.437C150.758 114.358 150.077 116.336 149.498 118.32ZM274.986 118.105C274.4 116.125 273.712 114.148 272.939 112.231L275.414 111.233C276.219 113.229 276.936 115.286 277.545 117.348L274.986 118.105ZM154.105 106.779L151.731 105.554C152.716 103.642 153.805 101.755 154.967 99.9445L157.212 101.387C156.095 103.128 155.049 104.941 154.104 106.779H154.105ZM270.34 106.581C269.387 104.747 268.336 102.938 267.214 101.205L269.455 99.7553C270.623 101.562 271.718 103.445 272.709 105.353L270.34 106.581ZM160.819 96.3193L158.72 94.6713C160.049 92.9792 161.473 91.3319 162.955 89.7724L164.889 91.6095C163.465 93.1105 162.095 94.6938 160.819 96.3193ZM263.59 96.1444C262.308 94.5237 260.937 92.9465 259.508 91.4496L261.435 89.6037C262.923 91.157 264.354 92.8016 265.687 94.4863L263.59 96.1444ZM169.385 87.3121L167.634 85.2987C169.258 83.8855 170.968 82.5349 172.715 81.2843L174.268 83.4548C172.589 84.6571 170.947 85.954 169.385 87.3121ZM254.993 87.1665C253.428 85.8152 251.78 84.5231 250.094 83.3269L251.64 81.1496C253.392 82.3941 255.106 83.7386 256.734 85.1457L254.993 87.1665ZM179.493 80.08L178.154 77.7721C180.016 76.6909 181.95 75.688 183.902 74.7919L185.015 77.2176C183.141 78.0776 181.283 79.041 179.493 80.08ZM244.86 79.9684C243.068 78.9369 241.208 77.9796 239.327 77.1243L240.433 74.6953C242.39 75.5859 244.328 76.5827 246.192 77.6557L244.86 79.9684ZM190.785 74.8953L189.909 72.3778C191.94 71.6709 194.029 71.0544 196.12 70.5462L196.751 73.1392C194.743 73.6243 192.737 74.2163 190.785 74.8946V74.8953ZM233.549 74.8218C231.594 74.1496 229.586 73.5645 227.577 73.0834L228.2 70.4877C230.29 70.9891 232.383 71.5981 234.417 72.2975L233.549 74.8218ZM202.858 71.956L202.477 69.3139C204.601 69.0078 206.769 68.8002 208.92 68.6955L209.05 71.3613C206.981 71.4606 204.898 71.6607 202.858 71.9553V71.956ZM221.467 71.924C219.426 71.6369 217.342 71.4443 215.275 71.3504L215.396 68.6846C217.548 68.7825 219.717 68.9833 221.84 69.2813L221.467 71.924Z" fill="white"/>
<path d="M212.271 204.718C211.213 204.718 210.136 204.692 209.073 204.643L209.196 201.978C211.268 202.073 213.364 202.072 215.419 201.974L215.546 204.64C214.465 204.692 213.36 204.718 212.271 204.718ZM202.629 204.037C200.496 203.734 198.356 203.326 196.269 202.823L196.895 200.228C198.899 200.711 200.954 201.104 203.004 201.395L202.629 204.037ZM221.992 204.026L221.613 201.385C223.661 201.092 225.716 200.697 227.721 200.211L228.349 202.804C226.263 203.313 224.125 203.725 221.994 204.029L221.992 204.026ZM190.055 201.006C188.026 200.305 186.003 199.497 184.042 198.602L185.15 196.174C187.034 197.034 188.977 197.807 190.925 198.483L190.055 201.006ZM234.563 200.98L233.689 198.458C235.639 197.783 237.58 197.004 239.461 196.144L240.572 198.571C238.616 199.468 236.594 200.28 234.564 200.983L234.563 200.98ZM178.286 195.633C176.425 194.559 174.593 193.381 172.839 192.132L174.387 189.955C176.072 191.155 177.834 192.287 179.621 193.319L178.286 195.633ZM246.326 195.596L244.989 193.287C246.779 192.249 248.538 191.115 250.218 189.916L251.769 192.088C250.019 193.34 248.189 194.52 246.326 195.599L246.326 195.596ZM167.751 188.131C166.125 186.723 164.548 185.222 163.062 183.666L164.992 181.823C166.421 183.319 167.937 184.761 169.498 186.113L167.751 188.131ZM256.855 188.081L255.106 186.066C256.666 184.712 258.18 183.266 259.607 181.77L261.539 183.611C260.053 185.17 258.477 186.675 256.853 188.084L256.855 188.081ZM158.814 178.78C157.482 177.092 156.215 175.319 155.05 173.513L157.295 172.066C158.415 173.801 159.632 175.504 160.913 177.128L158.814 178.78ZM265.778 178.721L263.681 177.071C264.961 175.445 266.176 173.74 267.293 172.004L269.538 173.449C268.375 175.255 267.112 177.029 265.779 178.721H265.778ZM151.802 167.911C150.812 165.999 149.904 164.02 149.103 162.025L151.58 161.031C152.348 162.946 153.221 164.848 154.172 166.685L151.802 167.911ZM272.778 167.843L270.407 166.618C271.356 164.781 272.226 162.876 272.992 160.961L275.469 161.953C274.673 163.948 273.767 165.93 272.78 167.843H272.778ZM146.979 155.908C146.372 153.846 145.858 151.73 145.451 149.616L148.071 149.111C148.463 151.141 148.956 153.175 149.539 155.155L146.979 155.908ZM277.587 155.833L275.026 155.085C275.606 153.104 276.098 151.07 276.487 149.039L279.108 149.541C278.704 151.653 278.192 153.771 277.59 155.833H277.587ZM144.531 143.208C144.326 141.075 144.222 138.9 144.22 136.744H146.889C146.889 138.817 146.992 140.908 147.188 142.958L144.531 143.208ZM280.021 143.131L277.368 142.88C277.561 140.828 277.659 138.737 277.659 136.665V136.513H280.328V136.658C280.325 138.822 280.223 140.996 280.023 143.131H280.021ZM147.174 130.526L144.516 130.279C144.716 128.134 145.021 125.978 145.422 123.868L148.044 124.367C147.658 126.393 147.366 128.466 147.174 130.526ZM277.351 130.303C277.152 128.241 276.852 126.17 276.459 124.147L279.08 123.638C279.488 125.748 279.8 127.9 280.007 130.046L277.351 130.303ZM149.498 118.32L146.937 117.571C147.539 115.506 148.248 113.446 149.046 111.447L151.524 112.437C150.758 114.358 150.077 116.336 149.498 118.32ZM274.986 118.105C274.4 116.125 273.712 114.148 272.939 112.231L275.414 111.233C276.219 113.229 276.936 115.286 277.545 117.348L274.986 118.105ZM154.105 106.779L151.731 105.554C152.716 103.642 153.805 101.755 154.967 99.9445L157.212 101.387C156.095 103.128 155.049 104.941 154.104 106.779H154.105ZM270.34 106.581C269.387 104.747 268.336 102.938 267.214 101.205L269.455 99.7553C270.623 101.562 271.718 103.445 272.709 105.353L270.34 106.581ZM160.819 96.3193L158.72 94.6713C160.049 92.9792 161.473 91.3319 162.955 89.7724L164.889 91.6095C163.465 93.1105 162.095 94.6938 160.819 96.3193ZM263.59 96.1444C262.308 94.5237 260.937 92.9465 259.508 91.4496L261.435 89.6037C262.923 91.157 264.354 92.8016 265.687 94.4863L263.59 96.1444ZM169.385 87.3121L167.634 85.2987C169.258 83.8855 170.968 82.5349 172.715 81.2843L174.268 83.4548C172.589 84.6571 170.947 85.954 169.385 87.3121ZM254.993 87.1665C253.428 85.8152 251.78 84.5231 250.094 83.3269L251.64 81.1496C253.392 82.3941 255.106 83.7386 256.734 85.1457L254.993 87.1665ZM179.493 80.08L178.154 77.7721C180.016 76.6909 181.95 75.688 183.902 74.7919L185.015 77.2176C183.141 78.0776 181.283 79.041 179.493 80.08ZM244.86 79.9684C243.068 78.9369 241.208 77.9796 239.327 77.1243L240.433 74.6953C242.39 75.5859 244.328 76.5827 246.192 77.6557L244.86 79.9684ZM190.785 74.8953L189.909 72.3778C191.94 71.6709 194.029 71.0544 196.12 70.5462L196.751 73.1392C194.743 73.6243 192.737 74.2163 190.785 74.8946V74.8953ZM233.549 74.8218C231.594 74.1496 229.586 73.5645 227.577 73.0834L228.2 70.4877C230.29 70.9891 232.383 71.5981 234.417 72.2975L233.549 74.8218ZM202.858 71.956L202.477 69.3139C204.601 69.0078 206.769 68.8002 208.92 68.6955L209.05 71.3613C206.981 71.4606 204.898 71.6607 202.858 71.9553V71.956ZM221.467 71.924C219.426 71.6369 217.342 71.4443 215.275 71.3504L215.396 68.6846C217.548 68.7825 219.717 68.9833 221.84 69.2813L221.467 71.924Z" fill="white"/>
<path d="M212.273 56.6039C233.507 56.6039 253.871 65.0389 268.885 80.0534C283.9 95.0678 292.335 115.432 292.335 136.665C292.335 157.899 283.9 178.263 268.885 193.277C253.871 208.292 233.507 216.727 212.273 216.727C191.04 216.727 170.676 208.292 155.661 193.277C140.647 178.263 132.212 157.899 132.212 136.665C132.212 115.432 140.647 95.0678 155.661 80.0534C170.676 65.0389 191.04 56.6039 212.273 56.6039ZM212.273 54.4688C201.475 54.4392 190.778 56.5517 180.801 60.6841C170.824 64.8164 161.767 70.8865 154.152 78.543C146.495 86.1579 140.425 95.2158 136.292 105.192C132.16 115.169 130.047 125.866 130.077 136.665C130.047 147.463 132.16 158.16 136.292 168.137C140.425 178.114 146.495 187.172 154.152 194.786C161.766 202.443 170.824 208.513 180.801 212.646C190.778 216.778 201.475 218.891 212.273 218.861C223.072 218.891 233.769 216.778 243.746 212.646C253.722 208.513 262.78 202.443 270.395 194.786C278.052 187.172 284.123 178.114 288.256 168.138C292.388 158.161 294.502 147.464 294.473 136.665C294.502 125.867 292.389 115.17 288.257 105.193C284.124 95.2165 278.054 86.1586 270.398 78.5436C262.783 70.8873 253.725 64.8172 243.748 60.6849C233.772 56.5526 223.075 54.44 212.276 54.4695L212.273 54.4688Z" fill="#3CBEE3"/>
<path d="M212.273 88.6286C225.013 88.6286 237.232 93.6896 246.24 102.698C255.249 111.707 260.31 123.925 260.31 136.665C260.31 149.405 255.249 161.624 246.24 170.632C237.232 179.641 225.013 184.702 212.273 184.702C205.965 184.702 199.719 183.46 193.89 181.045C188.062 178.631 182.767 175.093 178.306 170.632C173.846 166.172 170.307 160.876 167.893 155.048C165.479 149.22 164.237 142.974 164.237 136.665C164.237 130.357 165.479 124.111 167.893 118.283C170.307 112.454 173.846 107.159 178.306 102.698C182.767 98.2377 188.062 94.6993 193.89 92.2852C199.719 89.8711 205.965 88.6286 212.273 88.6286ZM212.273 86.4935C198.971 86.5085 186.219 91.7992 176.813 101.205C167.407 110.611 162.116 123.364 162.101 136.665C162.116 149.967 167.407 162.72 176.813 172.126C186.219 181.531 198.971 186.822 212.273 186.837C225.575 186.822 238.328 181.531 247.734 172.126C257.139 162.72 262.43 149.967 262.445 136.665C262.43 123.364 257.139 110.611 247.734 101.205C238.328 91.7992 225.575 86.5085 212.273 86.4935Z" fill="#3CBEE3"/>
<path d="M107.357 6.05183C113.534 6.0404 119.52 8.19464 124.273 12.1399C129.026 16.0851 132.246 21.5716 133.373 27.6452L140.218 64.6103L103.253 57.7627C83.0743 54.0259 74.5535 29.3755 88.5658 14.3834C88.7926 14.1385 89.0265 13.8965 89.2673 13.6574C89.5082 13.4184 89.7502 13.1843 89.9933 12.9552C94.6818 8.51232 100.898 6.04086 107.357 6.05183ZM107.357 0.714716C99.5474 0.721651 92.0338 3.70551 86.347 9.05854C86.0613 9.32526 85.7734 9.60287 85.4917 9.88523C85.2101 10.1676 84.9318 10.4547 84.6637 10.7419C80.8301 14.7986 78.1765 19.8248 76.9889 25.2785C75.8012 30.7322 76.1246 36.4067 77.9243 41.6902C79.6464 46.9352 82.6948 51.6462 86.7736 55.3663C91.13 59.3079 96.5001 61.9551 102.279 63.01L139.245 69.8556L146.878 71.2688L145.464 63.6353L138.619 26.6702C137.26 19.373 133.39 12.7817 127.679 8.04C121.968 3.2983 114.778 0.705436 107.355 0.711314L107.357 0.714716Z" fill="white"/>
<path d="M102.543 36.2987C101.928 35.6839 101.441 34.954 101.108 34.1507C100.775 33.3473 100.604 32.4863 100.604 31.6168C100.604 30.7472 100.775 29.8862 101.108 29.0829C101.441 28.2796 101.928 27.5497 102.543 26.9349L89.2673 13.6588C89.0287 13.8974 88.7949 14.1392 88.5658 14.3841C74.5528 29.3769 83.0742 54.0273 103.253 57.7641L140.219 64.6097L111.907 36.2987C111.292 36.9136 110.562 37.4014 109.759 37.7342C108.956 38.067 108.095 38.2383 107.225 38.2383C106.356 38.2383 105.495 38.067 104.691 37.7342C103.888 37.4014 103.158 36.9136 102.543 36.2987Z" fill="#00A7D5"/>
<path d="M89.9933 12.9579C89.7483 13.1847 89.5063 13.4188 89.2673 13.6601L102.543 26.9362C103.158 26.3214 103.888 25.8336 104.691 25.5009C105.495 25.1681 106.355 24.9969 107.225 24.9969C108.094 24.9969 108.955 25.1681 109.759 25.5009C110.562 25.8336 111.292 26.3214 111.906 26.9362C112.521 27.551 113.009 28.2809 113.342 29.0842C113.675 29.8875 113.846 30.7485 113.846 31.6181C113.846 32.4876 113.675 33.3486 113.342 34.1519C113.009 34.9552 112.521 35.6851 111.906 36.2999L140.218 64.611L133.373 27.6458C129.636 7.46634 104.986 -1.05507 89.9933 12.9579Z" fill="#3CBEE3"/>
<path d="M140.886 65.2757L103.158 58.2893C98.3919 57.4391 93.9486 55.3042 90.3065 52.1148C86.6645 48.9254 83.962 44.8025 82.4905 40.1905C80.967 35.7242 80.6915 30.9267 81.6938 26.3153C82.696 21.704 84.938 17.4537 88.178 14.0227C88.4107 13.7728 88.6488 13.5265 88.8924 13.2838C89.136 13.0411 89.3821 12.8032 89.6307 12.57C93.062 9.3304 97.3124 7.08865 101.924 6.0864C106.535 5.08415 111.333 5.35941 115.799 6.88252C120.411 8.3543 124.534 11.0568 127.723 14.6988C130.913 18.3408 133.047 22.7841 133.898 27.5499L140.886 65.2757ZM107.359 6.57566C101.035 6.5786 94.9529 9.00145 90.3594 13.3471C90.1185 13.5739 89.881 13.8036 89.647 14.0363C89.4129 14.269 89.1832 14.5065 88.9577 14.7487C85.8497 18.041 83.6993 22.1192 82.7383 26.5436C81.7773 30.968 82.0421 35.5707 83.5043 39.8557C84.9169 44.2854 87.5119 48.2456 91.0095 51.3091C94.5071 54.3726 98.7745 56.4233 103.352 57.2401L139.553 63.9441L132.849 27.7424C132.032 23.1652 129.981 18.8979 126.918 15.4003C123.854 11.9028 119.894 9.30777 115.464 7.89497C112.849 7.02658 110.112 6.58121 107.357 6.57566H107.359ZM107.227 38.7671C106.287 38.7688 105.357 38.5849 104.489 38.226C103.62 37.8671 102.832 37.3401 102.168 36.6755C101.501 36.0128 100.973 35.2244 100.613 34.356C100.253 33.4877 100.069 32.5566 100.072 31.6167C100.069 30.6766 100.253 29.7454 100.613 28.8769C100.973 28.0084 101.501 27.22 102.168 26.5572C102.831 25.8907 103.619 25.3623 104.487 25.0026C105.356 24.6428 106.287 24.4589 107.227 24.4615C108.167 24.459 109.098 24.6429 109.966 25.0026C110.834 25.3623 111.623 25.8907 112.285 26.5572C113.626 27.8999 114.378 29.7194 114.378 31.6163C114.378 33.5133 113.626 35.3328 112.285 36.6755C111.621 37.3404 110.833 37.8675 109.964 38.2266C109.096 38.5856 108.165 38.7696 107.225 38.7677L107.227 38.7671ZM107.227 25.5318C106.427 25.5301 105.635 25.6865 104.895 25.9921C104.156 26.2977 103.485 26.7464 102.92 27.3124C101.78 28.4548 101.14 30.0028 101.14 31.6167C101.14 33.2305 101.78 34.7785 102.92 35.9209C104.062 37.0607 105.61 37.7008 107.224 37.7008C108.838 37.7008 110.386 37.0607 111.528 35.9209C112.668 34.7784 113.308 33.2305 113.308 31.6167C113.308 30.0028 112.668 28.4549 111.528 27.3124C110.963 26.747 110.293 26.2988 109.554 25.9933C108.816 25.6879 108.024 25.5312 107.225 25.5325L107.227 25.5318Z" fill="url(#paint0_linear)"/>
<path d="M0 245.115H20.4993C24.3423 245.115 28.182 245.342 31.9982 245.795C35.5595 246.176 39.0275 247.172 42.2478 248.74C45.2562 250.241 47.8005 252.531 49.6091 255.366C51.4957 258.273 52.4394 262.218 52.4403 267.201C52.4403 273.09 50.666 277.847 47.1175 281.472C43.569 285.096 38.6612 287.399 32.3942 288.38L55.1592 325.302H43.4923L21.7471 289.286H9.51278V325.298H0V245.115ZM9.51278 280.451H18.0069C20.6492 280.451 23.3863 280.375 26.2181 280.224C28.8802 280.107 31.5121 279.611 34.0346 278.753C36.3081 277.993 38.3401 276.644 39.9242 274.845C41.471 273.072 42.2449 270.524 42.2458 267.2C42.2458 264.332 41.6788 262.029 40.5447 260.291C39.4368 258.578 37.8927 257.19 36.0711 256.271C34.1175 255.296 32.0111 254.663 29.8433 254.4C27.5338 254.098 25.2071 253.947 22.878 253.946H9.51278V280.451Z" fill="white"/>
<path d="M64.5556 298.798C64.5032 294.917 65.2353 291.064 66.7078 287.473C68.0683 284.185 70.0705 281.201 72.5973 278.695C75.1576 276.198 78.2028 274.251 81.5447 272.976C85.158 271.59 89.0002 270.898 92.8701 270.935C96.7401 270.898 100.583 271.59 104.196 272.976C107.538 274.251 110.583 276.198 113.143 278.695C115.67 281.201 117.672 284.185 119.033 287.473C120.504 291.065 121.236 294.917 121.185 298.798C121.236 302.68 120.504 306.532 119.033 310.124C117.672 313.412 115.67 316.396 113.143 318.901C110.583 321.399 107.538 323.346 104.196 324.621C100.582 326.006 96.7401 326.699 92.8701 326.662C89.0003 326.699 85.1581 326.007 81.5447 324.621C78.2025 323.346 75.1573 321.4 72.5973 318.901C70.0701 316.396 68.0679 313.412 66.7078 310.124C65.2351 306.532 64.503 302.68 64.5556 298.798ZM74.0697 298.798C74.0439 301.44 74.4847 304.066 75.372 306.555C76.1995 308.868 77.4908 310.988 79.1667 312.784C80.8433 314.57 82.8665 315.996 85.1128 316.974C87.5622 318.023 90.2051 318.544 92.8694 318.503C95.5336 318.544 98.1765 318.023 100.626 316.974C102.872 315.995 104.895 314.569 106.572 312.784C108.247 310.987 109.538 308.867 110.367 306.555C111.253 304.066 111.694 301.44 111.669 298.798C111.694 296.156 111.253 293.53 110.367 291.041C109.537 288.729 108.246 286.61 106.572 284.812C104.894 283.027 102.871 281.602 100.626 280.622C98.1765 279.573 95.5336 279.052 92.8694 279.093C90.2051 279.052 87.5622 279.573 85.1128 280.622C82.8669 281.601 80.8438 283.027 79.1667 284.812C77.4913 286.609 76.2 288.729 75.372 291.041C74.4849 293.53 74.0441 296.156 74.0697 298.798Z" fill="white"/>
<path d="M134.209 279.091C136.912 276.309 140.228 274.195 143.892 272.92C147.545 271.613 151.395 270.943 155.274 270.938C163.126 270.937 168.788 272.788 172.263 276.488C175.737 280.188 177.473 285.812 177.473 293.362V316.127C177.473 317.638 177.548 319.205 177.699 320.827C177.85 322.449 178.039 323.94 178.265 325.301H169.771C169.455 323.983 169.284 322.635 169.262 321.28C169.223 319.808 169.204 318.506 169.205 317.373H168.978C167.214 320.116 164.828 322.406 162.013 324.055C158.824 325.864 155.2 326.765 151.535 326.659C148.951 326.677 146.378 326.334 143.89 325.639C141.648 325.026 139.537 324.008 137.661 322.638C135.897 321.33 134.446 319.648 133.413 317.711C132.323 315.614 131.778 313.277 131.827 310.915C131.827 306.537 132.96 303.101 135.225 300.608C137.534 298.087 140.434 296.181 143.662 295.059C147.169 293.82 150.826 293.059 154.535 292.794C158.423 292.493 161.991 292.342 165.237 292.34H168.635V290.755C168.635 286.904 167.484 283.997 165.182 282.034C162.879 280.072 159.651 279.09 155.498 279.089C152.627 279.089 149.775 279.568 147.061 280.505C144.345 281.425 141.855 282.911 139.756 284.865L134.209 279.091ZM159.804 299.818C154.142 299.818 149.65 300.612 146.327 302.199C143.004 303.787 141.343 306.392 141.343 310.015C141.343 313.338 142.457 315.696 144.685 317.091C147.205 318.565 150.092 319.292 153.009 319.186C155.322 319.236 157.618 318.792 159.745 317.884C161.575 317.084 163.216 315.907 164.558 314.429C165.863 312.96 166.864 311.247 167.503 309.389C168.195 307.401 168.577 305.32 168.636 303.217V299.819L159.804 299.818Z" fill="white"/>
<path d="M237.725 315.901H237.499C235.63 319.126 232.906 321.772 229.628 323.546C225.808 325.681 221.487 326.757 217.112 326.66C213.532 326.684 209.986 325.971 206.693 324.565C203.513 323.215 200.643 321.23 198.256 318.732C195.836 316.176 193.933 313.176 192.65 309.898C191.264 306.363 190.571 302.595 190.608 298.799C190.571 295.003 191.264 291.235 192.65 287.7C193.938 284.411 195.862 281.409 198.313 278.866C200.798 276.328 203.788 274.341 207.09 273.033C210.712 271.601 214.578 270.89 218.472 270.937C222.139 270.897 225.765 271.713 229.062 273.319C232.308 274.935 235.182 277.211 237.499 280.001H237.725V239.678H246.559V325.301H237.725V315.901ZM237.725 298.799C237.75 296.157 237.309 293.531 236.423 291.042C235.594 288.73 234.303 286.611 232.628 284.813C230.95 283.028 228.928 281.602 226.682 280.622C224.233 279.574 221.59 279.053 218.926 279.094C216.261 279.053 213.618 279.573 211.169 280.622C208.923 281.601 206.9 283.027 205.223 284.813C203.548 286.61 202.256 288.729 201.428 291.042C200.541 293.531 200.1 296.157 200.126 298.799C200.1 301.441 200.541 304.067 201.428 306.555C202.256 308.869 203.547 310.988 205.223 312.785C206.9 314.571 208.923 315.997 211.169 316.976C213.618 318.025 216.261 318.546 218.926 318.505C221.59 318.545 224.233 318.024 226.682 316.976C228.928 315.996 230.951 314.57 232.628 312.785C234.303 310.987 235.594 308.868 236.423 306.555C237.309 304.066 237.75 301.44 237.725 298.798V298.799Z" fill="white"/>
<path d="M318.251 253.948H291.748V325.298H282.235V253.948H255.732V245.115H318.251V253.948Z" fill="white"/>
<path d="M317.457 284.868C317.457 282.452 317.382 280.187 317.231 278.073C317.08 275.959 317.004 274.033 317.004 272.297H325.385C325.385 273.732 325.422 275.167 325.498 276.6C325.573 278.034 325.611 279.507 325.611 281.018H325.837C326.496 279.652 327.355 278.392 328.385 277.28C329.533 276.028 330.848 274.942 332.293 274.052C333.883 273.072 335.597 272.31 337.39 271.787C339.376 271.206 341.436 270.92 343.505 270.937C344.111 270.938 344.716 270.976 345.317 271.05C345.937 271.13 346.545 271.282 347.129 271.503L346.563 280.45C345.019 279.992 343.417 279.763 341.806 279.77C336.37 279.77 332.425 281.525 329.971 285.035C327.517 288.546 326.29 293.359 326.29 299.476V325.299H317.457L317.457 284.868Z" fill="white"/>
<path d="M356.077 251.57C356.07 250.729 356.232 249.894 356.553 249.116C356.874 248.338 357.347 247.632 357.946 247.04C358.534 246.418 359.246 245.925 360.036 245.593C360.826 245.261 361.676 245.098 362.533 245.115C363.39 245.098 364.24 245.261 365.03 245.593C365.82 245.924 366.532 246.417 367.12 247.04C367.719 247.632 368.192 248.338 368.513 249.116C368.834 249.894 368.996 250.729 368.989 251.57C369.019 252.427 368.874 253.281 368.563 254.08C368.251 254.878 367.779 255.605 367.177 256.214C366.567 256.817 365.841 257.288 365.042 257.6C364.244 257.912 363.39 258.057 362.534 258.026C361.677 258.057 360.823 257.912 360.024 257.601C359.226 257.289 358.499 256.817 357.89 256.214C357.287 255.605 356.815 254.879 356.503 254.08C356.191 253.281 356.046 252.427 356.077 251.57ZM358.118 272.297H366.952V325.301H358.118V272.297Z" fill="white"/>
<path d="M384.051 272.296H392.882V279.998H393.108C395.425 277.207 398.298 274.931 401.545 273.316C404.842 271.709 408.468 270.894 412.135 270.934C416.029 270.886 419.895 271.598 423.517 273.03C426.819 274.338 429.809 276.325 432.294 278.862C434.744 281.406 436.668 284.408 437.957 287.697C439.343 291.231 440.036 294.999 439.999 298.795C440.036 302.592 439.343 306.36 437.957 309.895C436.675 313.173 434.771 316.172 432.351 318.729C429.965 321.226 427.094 323.211 423.914 324.562C420.623 325.968 417.077 326.682 413.498 326.659C409.123 326.756 404.802 325.681 400.983 323.545C397.704 321.772 394.98 319.126 393.112 315.9H392.885V351.123H384.051L384.051 272.296ZM392.885 298.798C392.859 301.44 393.299 304.066 394.187 306.555C395.015 308.869 396.307 310.989 397.985 312.785C399.661 314.572 401.685 315.998 403.931 316.976C406.38 318.025 409.023 318.546 411.688 318.505C414.352 318.545 416.995 318.025 419.444 316.976C421.69 315.997 423.713 314.571 425.391 312.785C427.065 310.988 428.356 308.869 429.185 306.556C430.071 304.067 430.512 301.442 430.487 298.8C430.512 296.158 430.071 293.532 429.185 291.043C428.356 288.731 427.065 286.611 425.391 284.814C423.713 283.029 421.69 281.603 419.444 280.623C416.995 279.575 414.352 279.054 411.688 279.094C409.023 279.053 406.38 279.574 403.931 280.623C401.685 281.601 399.662 283.026 397.985 284.811C396.309 286.607 395.018 288.727 394.19 291.04C393.301 293.529 392.858 296.155 392.882 298.798H392.885Z" fill="white"/>
<defs>
<linearGradient id="paint0_linear" x1="469.459" y1="344.392" x2="522.488" y2="344.392" gradientUnits="userSpaceOnUse">
<stop offset="0.5" stop-color="#3DBEE3"/>
</linearGradient>
</defs>
</svg>
