<svg width="135" height="153" viewBox="0 0 135 153" fill="none" xmlns="http://www.w3.org/2000/svg">
<path d="M32.1734 38.5698H44.626V10.6638H55.3617V0.80835H21.4907V10.6638H32.1734V38.5698Z" fill="white"/>
<path d="M72.1069 0.80835H59.6543V38.5698H72.1069V0.80835Z" fill="white"/>
<path d="M86.6237 36.8756C89.6477 38.5795 93.0526 39.4363 96.8482 39.4363C99.7467 39.4363 102.674 38.7441 105.626 37.3596C108.577 35.9801 111.109 34.1213 113.222 31.7833L106.031 24.0819C104.811 25.4082 103.427 26.478 101.869 27.2864C100.311 28.0948 98.8545 28.4965 97.4945 28.4965C96.0283 28.4965 94.6924 28.0996 93.4963 27.3106C92.2954 26.5216 91.3646 25.4324 90.7039 24.0529C90.0431 22.6685 89.7103 21.1146 89.7103 19.3914C89.7103 17.6681 90.0383 16.124 90.7039 14.759C91.3646 13.3939 92.2954 12.3241 93.4963 11.5545C94.6924 10.7848 96.0283 10.3976 97.4945 10.3976C98.9606 10.3976 100.475 10.872 102.028 11.8256C103.586 12.7792 104.917 14.028 106.026 15.5722L113.217 7.00433C111.283 4.88899 108.872 3.18995 105.973 1.91203C103.075 0.638957 100.195 0 97.3305 0C93.4288 0 89.9322 0.842262 86.8359 2.53163C83.7396 4.22099 81.3137 6.54447 79.563 9.50691C77.8075 12.4694 76.9346 15.819 76.9346 19.556C76.9346 23.3268 77.793 26.7297 79.51 29.7648C81.2269 32.7998 83.5998 35.1669 86.6237 36.8756Z" fill="white"/>
<path d="M18.1099 47.4619V85.5622H45.2722V77.8366H26.8778V47.4619H18.1099Z" fill="white"/>
<path d="M59.7068 47.4619L45.8604 85.5622H54.8454L57.7343 77.0282H69.5503L72.4922 85.5622H81.4724L67.6259 47.4619H59.7068ZM59.1184 70.963L63.6616 57.4916L68.0986 70.963H59.1184Z" fill="white"/>
<path d="M113.632 62.3809C114.538 60.769 114.997 59.0554 114.997 57.2305C114.997 56.0155 114.789 54.8247 114.384 53.663C113.974 52.5013 113.395 51.4605 112.648 50.5505C111.9 49.6405 110.989 48.895 109.923 48.3238C108.852 47.7526 107.661 47.467 106.34 47.467H85.2202V85.5673H103.721C105.467 85.5673 107.126 85.364 108.693 84.9525C110.261 84.5411 111.635 83.9312 112.812 83.1276C113.989 82.3241 114.915 81.3124 115.595 80.0974C116.27 78.8825 116.612 77.4496 116.612 75.8038C116.612 73.2287 115.98 71.1182 114.712 69.4724C113.448 67.8266 111.727 66.6793 109.552 66.0355C111.36 65.2078 112.72 63.988 113.632 62.3809ZM93.9834 54.9748H102.91C103.836 54.9748 104.627 55.3136 105.288 55.9962C105.949 56.6738 106.277 57.642 106.277 58.8957C106.277 60.2559 105.901 61.2579 105.153 61.9017C104.406 62.5455 103.547 62.8698 102.587 62.8698H93.9785V54.9748H93.9834ZM106.547 76.9753C105.799 77.7256 104.854 78.1031 103.711 78.1031H93.9785V69.787H104.082C105.115 69.787 105.973 70.1984 106.648 71.0213C107.323 71.8442 107.666 72.8462 107.666 74.0273C107.671 75.2423 107.294 76.225 106.547 76.9753Z" fill="white"/>
<path d="M122.236 22.4702H114.75V27.4802H122.236C126.364 27.4947 129.706 30.8493 129.721 34.9928V97.5864H4.99167V34.988C5.00614 30.8444 8.34838 27.4899 12.4768 27.4754H19.9618V22.4702H12.4719C5.58488 22.4702 0 28.0756 0 34.988V110.104C0 117.017 5.58488 122.622 12.4719 122.622H47.0712L45.1999 137.647H42.4075C38.2743 137.647 34.9224 141.011 34.9224 145.16C34.9224 149.308 38.2743 152.672 42.4075 152.672H92.3C96.4332 152.672 99.7851 149.308 99.7851 145.16C99.7851 141.011 96.4332 137.647 92.3 137.647H89.5076L87.6363 122.622H122.236C129.123 122.622 134.708 117.017 134.708 110.104V34.988C134.712 28.0756 129.127 22.4702 122.236 22.4702ZM92.3 142.652C93.6794 142.652 94.7935 143.775 94.7935 145.155C94.7935 146.534 93.6746 147.657 92.3 147.657H42.4075C41.0281 147.657 39.9141 146.534 39.9141 145.155C39.9141 143.775 41.033 142.652 42.4075 142.652H92.3ZM50.2157 137.642L52.087 122.617H82.6205L84.4918 137.642H50.2157ZM129.721 110.099C129.706 114.243 126.364 117.597 122.236 117.612H12.4719C8.34356 117.597 5.00131 114.243 4.98684 110.099V102.587H129.721V110.099Z" fill="white"/>
</svg>
