<svg width="560" height="283" viewBox="0 0 560 283" fill="none" xmlns="http://www.w3.org/2000/svg">
<path d="M86.1265 155.824L103.961 173.918L118.353 159.296L100.536 141.219L86.1265 155.824Z" fill="#E61366"/>
<path d="M119.208 122.262L104.791 107.639L86.127 126.593L100.537 141.219L119.208 122.262Z" fill="#E61366"/>
<path d="M53.8726 159.295L68.2682 173.918L100.534 141.219L68.2682 108.502L53.8726 123.125L71.7212 141.219L53.8726 159.295Z" fill="white"/>
<path d="M55.7747 16.013H37.0009V65.7084H19.0553V16.013H0.189453V0.368115H55.7747V16.013Z" fill="white"/>
<path d="M120.105 0.368115V65.7084H102.159V40.1245H80.2565V65.7084H62.3109V0.368115H80.2565V24.4796H102.159V0.368115H120.105Z" fill="white"/>
<path d="M177.899 50.0635V65.7084H131.332V0.368115H177.07V16.013H149.278V25.2158H173.021V39.7563H149.278V50.0635H177.899Z" fill="white"/>
<path d="M255.2 16.013H236.426V65.7084H218.48V16.013H199.615V0.368115H255.2V16.013Z" fill="white"/>
<path d="M261.736 65.7084V0.368115H279.682V65.7084H261.736Z" fill="white"/>
<path d="M287.355 32.4861C287.355 28.4982 288.091 24.5716 289.564 20.7064C291.098 16.8412 293.306 13.3748 296.19 10.3072C299.074 7.23958 302.571 4.75481 306.681 2.85289C310.792 0.950962 315.485 0 320.762 0C327.081 0 332.541 1.31908 337.143 3.95723C341.805 6.53403 345.272 9.96976 347.542 14.2644L333.83 24.0195C333.216 22.4243 332.388 21.1052 331.345 20.0622C330.363 19.0192 329.259 18.191 328.032 17.5775C326.805 16.9639 325.516 16.5345 324.167 16.2891C322.878 16.0437 321.621 15.9209 320.393 15.9209C317.817 15.9209 315.577 16.4424 313.675 17.4854C311.835 18.4671 310.301 19.7861 309.074 21.4427C307.908 23.0378 307.019 24.8784 306.405 26.9644C305.853 28.989 305.577 31.0136 305.577 33.0383C305.577 35.3083 305.914 37.4863 306.589 39.5723C307.264 41.6583 308.246 43.4988 309.534 45.094C310.823 46.6892 312.387 47.9776 314.228 48.9592C316.129 49.8795 318.246 50.3396 320.578 50.3396C321.805 50.3396 323.062 50.2169 324.351 49.9715C325.639 49.6648 326.866 49.2046 328.032 48.5911C329.259 47.9162 330.333 47.088 331.253 46.1063C332.234 45.0633 333.001 43.8056 333.554 42.3331L348.186 51.0759C347.204 53.4686 345.701 55.6159 343.677 57.5179C341.713 59.4198 339.443 61.0149 336.867 62.3033C334.351 63.5917 331.621 64.5734 328.676 65.2483C325.792 65.9231 322.97 66.2606 320.209 66.2606C315.363 66.2606 310.915 65.3096 306.865 63.4077C302.877 61.4444 299.411 58.8676 296.466 55.6773C293.582 52.487 291.343 48.8672 289.748 44.8179C288.153 40.7687 287.355 36.658 287.355 32.4861Z" fill="white"/>
<path d="M51.4494 158.273V173.918H4.88291V108.578H50.6211V124.222H22.8285V133.425H46.5718V147.966H22.8285V158.273H51.4494Z" fill="white"/>
<path d="M121.806 173.918V108.578H149.967C153.157 108.578 156.102 109.252 158.801 110.602C161.501 111.891 163.802 113.608 165.704 115.756C167.667 117.842 169.201 120.265 170.305 123.026C171.409 125.726 171.961 128.456 171.961 131.217C171.961 134.1 171.44 136.922 170.397 139.683C169.354 142.383 167.882 144.806 165.98 146.953C164.139 149.039 161.869 150.727 159.17 152.015C156.531 153.242 153.617 153.856 150.427 153.856H139.751V173.918H121.806ZM139.751 138.211H149.23C150.335 138.211 151.347 137.72 152.267 136.738C153.249 135.695 153.74 133.855 153.74 131.217C153.74 128.517 153.188 126.676 152.083 125.695C150.979 124.713 149.875 124.222 148.77 124.222H139.751V138.211Z" fill="white"/>
<path d="M225.71 158.273V173.918H179.144V108.578H224.882V124.222H197.09V133.425H220.833V147.966H197.09V158.273H225.71Z" fill="white"/>
<path d="M234.056 173.918V108.578H264.057C267.247 108.578 270.192 109.252 272.892 110.602C275.591 111.891 277.892 113.608 279.794 115.756C281.757 117.842 283.291 120.265 284.395 123.026C285.5 125.726 286.052 128.456 286.052 131.217C286.052 135.02 285.223 138.579 283.567 141.892C281.91 145.144 279.61 147.812 276.665 149.898L290.469 173.918H270.223L258.719 153.856H252.001V173.918H234.056ZM252.001 138.211H263.321C264.425 138.211 265.437 137.597 266.358 136.37C267.339 135.143 267.83 133.425 267.83 131.217C267.83 128.947 267.278 127.229 266.174 126.063C265.069 124.836 263.965 124.222 262.861 124.222H252.001V138.211Z" fill="white"/>
<path d="M296.157 173.918V108.578H314.102V173.918H296.157Z" fill="white"/>
<path d="M371.932 158.273V173.918H325.365V108.578H371.103V124.222H343.311V133.425H367.054V147.966H343.311V158.273H371.932Z" fill="white"/>
<path d="M398.222 141.8V173.918H380.277V108.578H394.265L420.493 141.8V108.578H438.439V173.918H424.174L398.222 141.8Z" fill="white"/>
<path d="M446.069 140.695C446.069 136.708 446.805 132.781 448.277 128.916C449.811 125.051 452.02 121.584 454.903 118.517C457.787 115.449 461.284 112.964 465.395 111.062C469.505 109.16 474.199 108.209 479.475 108.209C485.794 108.209 491.255 109.528 495.856 112.167C500.519 114.743 503.985 118.179 506.255 122.474L492.543 132.229C491.929 130.634 491.101 129.315 490.058 128.272C489.077 127.229 487.972 126.4 486.745 125.787C485.518 125.173 484.23 124.744 482.88 124.498C481.592 124.253 480.334 124.13 479.107 124.13C476.53 124.13 474.291 124.652 472.389 125.695C470.548 126.676 469.014 127.996 467.787 129.652C466.622 131.247 465.732 133.088 465.118 135.174C464.566 137.198 464.29 139.223 464.29 141.248C464.29 143.518 464.628 145.696 465.302 147.782C465.977 149.868 466.959 151.708 468.247 153.303C469.536 154.899 471.1 156.187 472.941 157.169C474.843 158.089 476.959 158.549 479.291 158.549C480.518 158.549 481.776 158.426 483.064 158.181C484.352 157.874 485.579 157.414 486.745 156.801C487.972 156.126 489.046 155.297 489.966 154.316C490.948 153.273 491.715 152.015 492.267 150.543L506.899 159.285C505.918 161.678 504.415 163.825 502.39 165.727C500.427 167.629 498.157 169.224 495.58 170.513C493.064 171.801 490.334 172.783 487.389 173.458C484.506 174.133 481.684 174.47 478.923 174.47C474.076 174.47 469.628 173.519 465.579 171.617C461.591 169.654 458.124 167.077 455.179 163.887C452.296 160.696 450.056 157.077 448.461 153.027C446.866 148.978 446.069 144.867 446.069 140.695Z" fill="white"/>
<path d="M559.853 158.273V173.918H513.287V108.578H559.025V124.222H531.232V133.425H554.976V147.966H531.232V158.273H559.853Z" fill="white"/>
<path d="M4.88291 282.127V216.787H33.0436C36.234 216.787 39.1789 217.462 41.8784 218.812C44.5779 220.1 46.8786 221.818 48.7805 223.965C50.7438 226.051 52.2776 228.475 53.382 231.235C54.4863 233.935 55.0385 236.665 55.0385 239.426C55.0385 242.31 54.517 245.132 53.474 247.893C52.431 250.592 50.9585 253.016 49.0566 255.163C47.216 257.249 44.946 258.936 42.2465 260.224C39.6084 261.451 36.6941 262.065 33.5038 262.065H22.8285V282.127H4.88291ZM22.8285 246.42H32.3074C33.4118 246.42 34.4241 245.929 35.3444 244.948C36.326 243.905 36.8168 242.064 36.8168 239.426C36.8168 236.726 36.2646 234.886 35.1603 233.904C34.056 232.923 32.9516 232.432 31.8473 232.432H22.8285V246.42Z" fill="white"/>
<path d="M91.6702 282.679C86.7006 282.679 82.1912 281.728 78.142 279.827C74.0927 277.925 70.6263 275.44 67.7427 272.372C64.8592 269.243 62.6198 265.685 61.0246 261.697C59.4295 257.709 58.6319 253.598 58.6319 249.365C58.6319 245.07 59.4602 240.929 61.1167 236.941C62.7732 232.953 65.0739 229.456 68.0188 226.45C71.0251 223.382 74.5528 220.959 78.6021 219.18C82.7127 217.339 87.1914 216.419 92.0383 216.419C97.0078 216.419 101.517 217.37 105.566 219.272C109.616 221.174 113.082 223.689 115.966 226.818C118.849 229.947 121.058 233.505 122.592 237.493C124.187 241.481 124.984 245.561 124.984 249.733C124.984 254.028 124.156 258.169 122.5 262.157C120.843 266.084 118.542 269.581 115.598 272.648C112.653 275.655 109.125 278.078 105.014 279.919C100.965 281.759 96.517 282.679 91.6702 282.679ZM76.8536 249.549C76.8536 251.758 77.1603 253.905 77.7738 255.991C78.3874 258.016 79.3076 259.826 80.5347 261.421C81.7617 263.016 83.2956 264.304 85.1361 265.286C87.0381 266.268 89.2774 266.758 91.8542 266.758C94.431 266.758 96.6704 266.268 98.5723 265.286C100.474 264.243 102.008 262.924 103.174 261.329C104.401 259.672 105.29 257.801 105.843 255.715C106.456 253.629 106.763 251.512 106.763 249.365C106.763 247.156 106.456 245.04 105.843 243.015C105.229 240.929 104.278 239.119 102.99 237.585C101.763 235.99 100.198 234.733 98.2962 233.812C96.4556 232.831 94.2776 232.34 91.7622 232.34C89.1854 232.34 86.946 232.831 85.0441 233.812C83.2035 234.794 81.6697 236.113 80.4427 237.769C79.2156 239.365 78.2953 241.205 77.6818 243.291C77.1296 245.316 76.8536 247.402 76.8536 249.549Z" fill="white"/>
<path d="M132.591 282.127V216.787H157.714C163.113 216.787 167.868 217.646 171.979 219.364C176.089 221.082 179.525 223.413 182.286 226.358C185.047 229.303 187.133 232.769 188.544 236.757C189.955 240.684 190.661 244.886 190.661 249.365C190.661 254.335 189.863 258.844 188.268 262.893C186.734 266.881 184.525 270.317 181.642 273.2C178.758 276.023 175.292 278.231 171.243 279.827C167.193 281.36 162.684 282.127 157.714 282.127H132.591ZM172.439 249.365C172.439 246.85 172.101 244.549 171.427 242.463C170.752 240.377 169.77 238.598 168.482 237.125C167.255 235.653 165.721 234.518 163.88 233.72C162.04 232.861 159.984 232.432 157.714 232.432H150.536V266.482H157.714C160.046 266.482 162.132 266.053 163.972 265.194C165.813 264.335 167.347 263.139 168.574 261.605C169.862 260.071 170.813 258.261 171.427 256.175C172.101 254.089 172.439 251.819 172.439 249.365Z" fill="white"/>
<path d="M194.877 248.905C194.877 244.917 195.614 240.99 197.086 237.125C198.62 233.26 200.828 229.794 203.712 226.726C206.596 223.658 210.093 221.174 214.203 219.272C218.314 217.37 223.007 216.419 228.284 216.419C234.603 216.419 240.063 217.738 244.665 220.376C249.328 222.953 252.794 226.389 255.064 230.683L241.352 240.438C240.738 238.843 239.91 237.524 238.867 236.481C237.885 235.438 236.781 234.61 235.554 233.996C234.327 233.383 233.038 232.953 231.689 232.708C230.4 232.462 229.143 232.34 227.916 232.34C225.339 232.34 223.099 232.861 221.197 233.904C219.357 234.886 217.823 236.205 216.596 237.861C215.43 239.457 214.541 241.297 213.927 243.383C213.375 245.408 213.099 247.432 213.099 249.457C213.099 251.727 213.436 253.905 214.111 255.991C214.786 258.077 215.768 259.918 217.056 261.513C218.345 263.108 219.909 264.396 221.75 265.378C223.652 266.298 225.768 266.758 228.1 266.758C229.327 266.758 230.584 266.636 231.873 266.39C233.161 266.084 234.388 265.623 235.554 265.01C236.781 264.335 237.855 263.507 238.775 262.525C239.757 261.482 240.523 260.224 241.076 258.752L255.708 267.495C254.727 269.887 253.223 272.035 251.199 273.937C249.236 275.839 246.965 277.434 244.389 278.722C241.873 280.011 239.143 280.992 236.198 281.667C233.315 282.342 230.492 282.679 227.732 282.679C222.885 282.679 218.437 281.728 214.387 279.827C210.399 277.863 206.933 275.286 203.988 272.096C201.105 268.906 198.865 265.286 197.27 261.237C195.675 257.188 194.877 253.077 194.877 248.905Z" fill="white"/>
<path d="M278.04 216.787H294.421L317.06 282.127H298.839L294.881 269.335H277.488L273.623 282.127H255.309L278.04 216.787ZM292.029 257.372L286.231 237.125L280.157 257.372H292.029Z" fill="white"/>
<path d="M361.343 238.138C359.502 237.033 357.6 236.052 355.637 235.193C353.98 234.456 352.109 233.782 350.023 233.168C347.998 232.493 346.004 232.156 344.041 232.156C342.446 232.156 341.158 232.401 340.176 232.892C339.256 233.383 338.796 234.211 338.796 235.377C338.796 236.236 339.072 236.941 339.624 237.493C340.176 238.046 340.974 238.567 342.017 239.058C343.06 239.487 344.317 239.917 345.79 240.346C347.324 240.776 349.041 241.297 350.943 241.911C353.95 242.831 356.649 243.843 359.042 244.948C361.496 246.052 363.582 247.371 365.3 248.905C367.018 250.377 368.337 252.187 369.257 254.335C370.177 256.482 370.637 259.089 370.637 262.157C370.637 266.084 369.901 269.397 368.429 272.096C367.018 274.734 365.116 276.851 362.723 278.446C360.392 280.041 357.723 281.207 354.716 281.943C351.772 282.618 348.796 282.955 345.79 282.955C343.397 282.955 340.943 282.771 338.427 282.403C335.912 282.035 333.397 281.514 330.881 280.839C328.427 280.164 326.034 279.366 323.703 278.446C321.433 277.526 319.316 276.483 317.353 275.317L325.083 259.58C327.231 260.93 329.47 262.126 331.801 263.169C333.765 264.09 335.973 264.918 338.427 265.654C340.943 266.39 343.489 266.758 346.066 266.758C348.029 266.758 349.379 266.513 350.115 266.022C350.913 265.47 351.311 264.764 351.311 263.906C351.311 262.985 350.913 262.218 350.115 261.605C349.379 260.93 348.336 260.347 346.986 259.856C345.636 259.365 344.072 258.875 342.293 258.384C340.575 257.893 338.734 257.31 336.771 256.635C333.887 255.654 331.403 254.611 329.317 253.506C327.231 252.341 325.513 251.052 324.163 249.641C322.813 248.169 321.801 246.512 321.126 244.672C320.513 242.831 320.206 240.714 320.206 238.322C320.206 234.702 320.85 231.512 322.138 228.751C323.488 225.99 325.298 223.689 327.568 221.849C329.838 220.008 332.415 218.628 335.298 217.707C338.243 216.726 341.342 216.235 344.593 216.235C346.986 216.235 349.318 216.48 351.588 216.971C353.858 217.4 356.036 217.983 358.122 218.72C360.269 219.394 362.263 220.161 364.103 221.02C365.944 221.818 367.601 222.585 369.073 223.321L361.343 238.138Z" fill="white"/>
<path d="M429.461 232.432H410.687V282.127H392.742V232.432H373.876V216.787H429.461V232.432Z" fill="white"/>
</svg>
