<svg preserveAspectRatio="xMidYMid meet" data-bbox="19.2 20.695 427.68 146.935" viewBox="18.07953703703704 20.1507962962963 429.9209259259259 148.0234074074074" xmlns="http://www.w3.org/2000/svg" data-type="shape" role="img">
    <g>
        <path d="M127 154.73h1.32l5.68 12.62h-1.52L131 164h-6.82l-1.48 3.31h-1.45zm3.49 8l-2.85-6.39-2.86 6.39z"></path>
        <path d="M141.83 154.82h5.39a6 6 0 012.07.33 3.93 3.93 0 011.49.92 3.08 3.08 0 01.72 1.09 3.66 3.66 0 01.25 1.38 3.68 3.68 0 01-.25 1.41 3.18 3.18 0 01-.71 1.07 4 4 0 01-1.08.76 5.56 5.56 0 01-1.36.41l3.85 5.12h-1.73l-3.64-4.87h-3.58v4.87h-1.42zm5.28 6.39a4.44 4.44 0 001.29-.18 3.15 3.15 0 001-.51 2.32 2.32 0 00.92-1.9 2.16 2.16 0 00-.84-1.81 3.78 3.78 0 00-2.37-.66h-3.88v5.08z"></path>
        <path d="M163.45 156.12h-4.21v-1.31h9.82v1.31h-4.2v11.22h-1.41v-11.22z"></path>
        <path d="M178.64 154.81v12.53h-1.41v-12.53h1.41z"></path>
        <path d="M192 167.52a7.38 7.38 0 01-2.75-.49 8 8 0 01-2.37-1.51l.88-1a7.2 7.2 0 002 1.33 5.6 5.6 0 002.31.44 3.19 3.19 0 002-.6 1.86 1.86 0 00.76-1.53 2 2 0 00-.14-.78 1.65 1.65 0 00-.5-.64 3.63 3.63 0 00-1-.51 14.09 14.09 0 00-1.63-.45 12.29 12.29 0 01-1.87-.53 4.68 4.68 0 01-1.32-.74 2.68 2.68 0 01-.77-1 3.31 3.31 0 01-.25-1.34 3.08 3.08 0 01.31-1.36 3.26 3.26 0 01.86-1.08 4.15 4.15 0 011.3-.71 5 5 0 011.64-.26 6.86 6.86 0 012.41.38 7.23 7.23 0 012 1.16l-.82 1.08a6.23 6.23 0 00-1.76-1 5.35 5.35 0 00-1.85-.32 3 3 0 00-1.95.58 1.77 1.77 0 00-.71 1.44 2.15 2.15 0 00.14.8 1.67 1.67 0 00.52.65 3.81 3.81 0 001 .53 12 12 0 001.7.47 7.45 7.45 0 013.09 1.28 2.78 2.78 0 011 2.26 3.35 3.35 0 01-.32 1.47 3.32 3.32 0 01-.87 1.12 4 4 0 01-1.35.72 5.85 5.85 0 01-1.72.25"></path>
        <path d="M207.82 156.12h-4.21v-1.31h9.82v1.31h-4.2v11.22h-1.41v-11.22z"></path>
        <path d="M226.1 154.73h1.32l5.71 12.62h-1.52l-1.47-3.35h-6.82l-1.48 3.31h-1.45zm3.49 8l-2.85-6.39-2.86 6.39z"></path>
        <path d="M250.64 154.81h1.57l4.46 10.79 4.48-10.79h1.52l-5.4 12.62h-1.25l-5.38-12.62z"></path>
        <path d="M272.04 154.81v12.53h-1.41v-12.53h1.41z"></path>
        <path d="M285.39 167.52a7.39 7.39 0 01-2.75-.49 7.93 7.93 0 01-2.37-1.51l.87-1a7.29 7.29 0 002 1.33 5.61 5.61 0 002.31.44 3.2 3.2 0 002-.6 1.86 1.86 0 00.75-1.53 1.9 1.9 0 00-.14-.78 1.57 1.57 0 00-.51-.64 3.46 3.46 0 00-1-.51 13.3 13.3 0 00-1.62-.45 12.29 12.29 0 01-1.87-.53 4.68 4.68 0 01-1.32-.74 2.61 2.61 0 01-.77-1 3.21 3.21 0 01-.25-1.34 3.16 3.16 0 01.29-1.36 3.43 3.43 0 01.87-1.08 4.12 4.12 0 011.31-.71 5 5 0 011.64-.26 6.85 6.85 0 012.4.38 7.23 7.23 0 012 1.16l-.81 1.08a6.31 6.31 0 00-1.76-1 5.38 5.38 0 00-1.86-.32 3 3 0 00-1.95.58 1.79 1.79 0 00-.72 1.44 2 2 0 00.15.8 1.67 1.67 0 00.52.65 3.9 3.9 0 001 .53 12.58 12.58 0 001.7.47 7.44 7.44 0 013.09 1.28 2.8 2.8 0 011 2.26 3.36 3.36 0 01-.32 1.47 3.4 3.4 0 01-.87 1.12 4 4 0 01-1.35.72 5.77 5.77 0 01-1.71.25"></path>
        <path d="M302.91 167.54a6 6 0 01-2.12-.36 4.3 4.3 0 01-1.65-1 4.6 4.6 0 01-1.06-1.71 6.71 6.71 0 01-.37-2.34v-7.28h1.41V162a4.44 4.44 0 001 3.13 4.19 4.19 0 005.58 0 4.27 4.27 0 001-3.09v-7.28h1.41V162a6.93 6.93 0 01-.38 2.42 4.74 4.74 0 01-1.06 1.73 4.18 4.18 0 01-1.64 1 6.07 6.07 0 01-2.14.36"></path>
        <path d="M321.48 154.73h1.33l5.71 12.62H327l-1.47-3.35h-6.82l-1.48 3.31h-1.45zm3.49 8l-2.85-6.39-2.86 6.39z"></path>
        <path d="M336.36 154.81h1.41v11.22h7.05v1.31h-8.46v-12.53z"></path>
        <path d="M184.41 136.58c-3.09 1.53-4.25 1.18-5.76-1.48-4.71-4.35-2.62-15.85-3-18.89-.33-2.57-.53-5.15-.83-7.72-.42-3.73-.5-7.55-1.42-11.17a88.92 88.92 0 00-4.74-13.77c-2.12-4.84-4.84-9.43-7.32-14.12a5.82 5.82 0 00-.79-.94c-1.36 2.22-.63 9.8-.33 11.45.81 4.59 2.23 9.09 3 13.7a28.69 28.69 0 01-.23 7.92c-.23 1.93-1.94 1.13-3.09 1.06a2.77 2.77 0 01-2.8-3 36.44 36.44 0 00-.14-5.31c-.58-3.12-1.59-6.14-2.21-9.25-.45-2.32-.2-4.83-.92-7-1.79-5.54-1.23-11.23-1.3-16.85-.07-6.51-1.07-12.77-3.95-18.64a24 24 0 00-2.59-4.15c-.47-.6-1.69-1.34-2.08-1.12a4 4 0 00-1.72 2.27c-.93 3.53-2.57 4.34-6.17 3.74S129.65 41.4 128 38c2.69-2.15 5.66-4.3 8.37-6.75 1.77-1.6 3.16-3.62 4.83-5.34 2.37-2.44 5.08-3.1 7.9-4 2.05-.62 4.26-1.36 6.33-1.19a33.56 33.56 0 0123 11.66 6.73 6.73 0 011.69 3.32c.63 5.19.36 10.24-3.59 14.32-.11.12-.21.26-.33.38-3.68 3.81-3.5 4.53 1.54 6.06 2.41.73 5.38 4.59 5.54 7.11 0 .53.45 1 .47 1.58s-.13 1.49-.39 1.56a37.91 37.91 0 01-6 1.21 2.39 2.39 0 01-1.87-1.38 4.74 4.74 0 00-3.52-3.75c-.62-.22-1-1.06-1.69-1.83-1.42 1.8-3 3.28-3.86 5.1-.4.82.13 2.6.84 3.4 4.66 5.24 7 11.66 9.47 18 1.42 3.62 3 7.15 2.76 11.15v.25c3.33 4 1.09 9 2 13.46 1.21 6 .69 12.29 1.23 18.43.52 5.81-.63-6.06.22-.28.29 2 .95 3.92 1.47 6M160.64 56c1.6-1.31 3.43-2.18 4.26-3.64a79.92 79.92 0 004.18-9.36c.8-1.93 1.2-4.06 2.21-5.86a3.79 3.79 0 00-.56-5c-5.16-5.74-12.61-6.31-19.4-1.42-1.29.93-2.5 2-4.22 3.33 3.43-.35 5.7.38 7.73 2.35 3.81 3.7 4.87 8.39 5.29 13.37.17 2 .34 4.09.51 6.15"></path>
        <path d="M289.66 75.89c1.25.07-3.33-8.47 4.72-8.67l1.13-.08c.74 2.42 1.48 4.84 2.21 7.27a2.48 2.48 0 003.83 1.51 6.51 6.51 0 012.94-.69 13.48 13.48 0 007.23-2.11c1.93-1.2 4.67-1.43 7.06-1.5 2-.06 4 1 6 1.09a6.17 6.17 0 003.83-1.2c5.2-4.16 10.74-7.77 17.35-8.94a27.75 27.75 0 0110.32.32c3.48.73 5.38 3.53 5.92 7.17.59 4-.54 7.58-2.12 11a7.2 7.2 0 00.31 6.85c2.26 4.24 5.14 8.31 6.54 12.82a177.65 177.65 0 014.84 21.53c1 5.87 1.45 11.85 2.11 17.78a10.32 10.32 0 01.08 2.94c-.17 1-.54 2.41-1.16 2.61a3.31 3.31 0 01-2.72-1.07 20 20 0 01-4.69-11.12c-1.15-8.91-1.39-18-4.28-26.58-1.24-3.71-2.73-7.34-4.29-10.93s-3.14-4.14-7-3.49c-1.53.26-3.15-.12-5.29-.25 1 1.21 1.63 2 2.24 2.82 1.44 2 2.27 4.06 1.29 6.5-1.42 3.56-4.6 4.31-7.09 1.41-1.66-1.93-3-4.37-2-7.09 1.61-4.34 0-8.58 0-12.87 0-1.1-.11-2.21-.19-3.63l-7-.86c5 7.21 1.37 13.22-2.13 18.95-1.15 1.89-3.85 2.87-5.9 4.14a2.25 2.25 0 01-1.72-.19 44.36 44.36 0 00-4.17-2.14c-4.35-1.48-7-4.77-9.22-8.49-1.75-2.9-3.33-5.9-5.05-8.82a16.6 16.6 0 00-1.86-2.16l-.83.1a25.17 25.17 0 00-.29 3.27c.23 4.87.59 9.75.78 14.63.07 1.63-.19 3.76-2.22 3.55-1.06-.11-2.35-2-2.8-3.34-1.09-3.29-1.64-6.75-2.63-10.08-1.12-3.79-2.48-7.49-4-12m22.66 2.8c-.82 1.12-1.12 1.19-.35 5.06a45.9 45.9 0 003.41 10.45c.88 1.9 3.13 3.37 5.36 1.82s4.72-3.37 6.11-5.66c3.27-5.38-.73-13-7-13.8-1-.13-3.73 0-7.54 2.14M346 83.54c1-1.09 7-.35 8.27-3.5.36-.89-3.07-10.59-3.8-11.49-.37-.45-2-.25-2.85.12-4.87 2-4.78 9.45-1.61 14.87"></path>
        <path d="M276.32 63.09c3.34.36 9.62-3.7 13.15-.87-2.66 2.18-8.43 5.46-10.75 7.55a4.19 4.19 0 00-1.38 2.75c.17 7.06.54 14.1.8 21.15.13 3.38.28 6.76.18 10.14 0 1.09-.82 2.17-1.26 3.25a19.6 19.6 0 01-3-1.31c-3.36-2.22-3.49-5.77-3.62-9.26-.1-2.54 0-5.07-.18-7.6-.27-5.19-.56-10.37-1-15.54-.05-.71-.84-1.94-1.28-1.94-3 0-3.93-2.19-5.28-4.49h6c-.77-4.7-1.19-9.12-2.25-13.39-1.27-5.09-3.06-10-4.66-15.06-.68-2.15-1.94-2.76-4.29-2.25-3.2.69-6.53.74-9.79 1.22a15 15 0 00-4.28 1.31c-1.64.8-5.34-.7-6.41-2.23-1.51-2.18-3.53-4-5.26-6-1.32-1.57-2.5-3.24-3.77-4.92 3.34-2.06 8.8-.83 11.91 2.06a4.41 4.41 0 002.86 1.15q6.94-.31 13.87-1c2.76-.27 5.41-3.1 8.33-.26.19.17 1.08-.54 1.69-.65 2-.33 4-.6 6-.83.6-.08 1.27.17 1.86.06 7.78-1.38 15.6-.08 23.4-.39a103.89 103.89 0 0110.54.51 10.62 10.62 0 012 .56 7.89 7.89 0 01-6.45 3.7c-8.1.44-16.2 1-24.3 1.62a19.23 19.23 0 00-4.92 1.17c-1.93.7-3.16 2.19-2.81 4.33 1.4 8.48 2.9 16.93 4.38 25.47"></path>
        <path d="M60.71 85.56c.43.24-1.34-3.72-.9-6.09 2.85.5 2.54.47 2.8-2.6.53-6.08 1.45-12.11 2.18-18.17.53-4.4 1.64-8.8.46-13.27a11.31 11.31 0 01-.08-1.69c-.13-1.54.08-3.23-.5-4.58-1.29-3-1.45-2.92-.17-6.35 1.79 1.94 3.39 3.77 5.08 5.49.93.95 2.18 1.6 3 2.59a16.7 16.7 0 013.31 4.65c1 2.75 0 4.36.53 7.26.27 1.41 1.71 11.81 2.36 15.46.72 4 2 8 3.06 12 .13.46.67.84 1.09 1.18 1.49 1.21 3 2.39 4.62 3.67-.6.48-.7.65-.83.66-4.27.69-4.65 1.42-3.07 5.43a11.81 11.81 0 01.5 8.18c-.38 1.23.66 3 1.32 4.44.86 1.89 2.48 11.73 2.91 11.27a9.46 9.46 0 00.2 2.31c.8 2.37 1.82 4.68 2.56 7.07.56 1.8.8 3.7 1.24 5.54a7 7 0 00.65 1.58c.81 1.58 2 3.07 2.4 4.76.75 3.32 1 6.74 1.5 10.07-3.1 1.44-5.34.47-6.44-2.51-.89-2.41-2.11-4.71-2.9-7.15-1.18-3.65-2-7.39-3.18-11.06-.39-1.25-1.56-2.29-1.83-3.55-.61-2.87-.84-5.83-1.31-8.73a23 23 0 00-1.07-4.76c-1-2.58-.13-7.63-1.12-7.54-.62-4.37-1.2-8.36-1.74-12.36A2 2 0 0075 86.79a42.89 42.89 0 00-6.29.41c-.9.2-1.65 1.54-2.26 2.49-1.49 2.33-2.72 4.84-4.34 7.08-1.07 1.47-2.33.71-2.88-.68-.87-2.17-1.8-4.34.17-6.62.8-.93.87-2.49 1.33-3.91m10.4-31.36l-1 .12a9.7 9.7 0 00-.13 1.37c0 2.91.33 5.85.08 8.73s.84 5.42-.59 8.27c-.92 1.82-.25 4.4-.51 6.62-.31 2.7-.18 2.86 2.61 2.64a13.78 13.78 0 012.73.44c1.3.15 1.84-.31 1.62-1.76-.79-5.26-1.32-10.56-2.23-15.79-.62-3.58-1.7-7.09-2.57-10.63"></path>
        <path d="M137.18 98.12c3.11.89 6 1.67 8.82 2.57.7.22 1.68.71 1.82 1.25a2.4 2.4 0 01-.77 2.15c-2.13 1.17-3.77 3.11-6.56 3.3s-5.37 1.65-8.09 1.78a96.4 96.4 0 01-11.5-.63c-4.37-.33-8.73-.84-13.11-1.06-1.56-.07-3 .32-3.44 2.54s-2.47 1.47-3.5.77c-2.18-1.49-4-3.46-6.09-5.11a33.15 33.15 0 01-4.53-3.73c4.19-2.09 4.35-5.08 4.26-8.33-.14-4.93 0-9.86-.11-14.79a50.63 50.63 0 00-.49-5.54c-.79-6.17-1.18-12.43-2.55-18.48-1.5-6.6-3.91-13-5.92-19.46a3.24 3.24 0 01.1-2.06c3 1.44 6 2.76 8.92 4.37 3.1 1.72 3.46 5.07 4.11 8.08 1 4.58 1.75 9.22 2.57 13.83a9.07 9.07 0 01.22 2.77c-1 6.93 1.14 13.58 1.71 20.37.38 4.52.68 9.06.78 13.59 0 1.16-.75 2.37-1.29 3.49-.63 1.33-.1 2.07 1.16 2.05 2.49 0 5-.28 7.46-.44.56 0 1.22-.29 1.67-.09a32 32 0 0020.32 2c1.63-.35 3-1 3.27-3a10.52 10.52 0 01.75-2.2"></path>
        <path d="M57.8 73.21c-1.6.88-1.92 2.67-2.09 4.86-.37 4.74-1.21 9.46-1.82 14.19-.14 1.08 0 2.2-.22 3.26a30.22 30.22 0 01-.89 3.09 23.52 23.52 0 01-4-2c-.52-.39-.47-1.56-.68-2.36s-.17-1.85-.67-2.39c-1.62-1.72-1.31-5.59-2.09-6.91-.92-1.57-2.46-3.17-2.51-4.79-.07-4.16-2.65-7.16-3.89-10.8a10.81 10.81 0 00-.79-1.58c-1.73-3.16-5-7.63-4.69-9.13-2.56-4-7-13.22-7.17-12.64l-6.64-10.16-.45.32c.18-1.52.36-3 .59-5 .62.35 1.78.74 1.76 1-.11 1.89 1.36 1.85 2.44 2.24a16.71 16.71 0 0110.5 10.34A39.38 39.38 0 0038 52.36C42.62 59.63 44.1 68 46.73 76c.47 1.43 1 2.84 1.81 5 .5-1.84.75-3 1.12-4S51 65.84 51 65.72c.05-4.93-.84-9-.81-15.64 0-4.09-.32-8.36-.68-12.55-.16-2-.56-4-.84-5.92 3.73-.61 5.9 1.19 6.72 4.73 2.43 10.43 1.88 21 1.84 31.53a48.53 48.53 0 00.6 5.34"></path>
        <path d="M410.6 79.86c.61 3.45 1.35 6.87 1.78 10.34a37.86 37.86 0 01.08 6.89c0 .72-.87 2-1.29 2a4.17 4.17 0 01-3-1.14 12.27 12.27 0 01-1.84-4.38c-.87-3.53-1.6-7.09-2.24-10.66-.55-3.06-1.36-6.17-1.24-9.22.2-4.74-2.7-7.3-6-9.28-2.51-1.5-2.52-2.61-.81-4.49a17.57 17.57 0 002.88 1.72c7.73 2.88 12.91 8.81 18 14.89 2.81 3.37 5.58 6.76 8.37 10.16l.82-.28c-1.88-9.21-3.76-18.42-5.68-27.86 6 3.2 7.42 8.45 8.4 14 1.14 6.46 2.61 12.87 3.53 19.35.41 3-.08 6-.28 9.07-.11 1.7-1.39 2.39-2.45 1.39a47.94 47.94 0 01-5.37-5.38c-2.89-3.71-5.5-7.65-8.29-11.44-1.5-2-3.15-4-4.73-5.95l-.61.33"></path>
        <path d="M368.73 78.81l-2.48-2.86a12.32 12.32 0 011.75-1.13c6-2.43 11.87-5.73 18.74-4.73a9.7 9.7 0 013.61 1.39c1.48.94 2.77 2.18 4.17 3.25 7.52 5.76 6.92 9.28 1.17 15.74a44.08 44.08 0 00-4.92 6.17c-2 3.22-3.21 4-6.89 3.55-4.88-.59-9.48-1.87-12.87-5.68-3.92-4.41-4.51-9.1-2.3-15.7m7.39-.54c2.38 2.88 2.37 3-.76 5.43a7.75 7.75 0 00-1.63 9.19c1.48 2.51 5.84 4 8.55 2.79a6.47 6.47 0 002.69-1.6c2.06-2.84 4-5.78 5.78-8.77a8.11 8.11 0 001.09-3.48c.28-3.63-2.74-4.58-5.17-5.95-4.23-2.39-7.28-1.73-10.56 2.39"></path>
        <path d="M444.47 60.67c-2.77 4.53-.33 8.05 0 11.69C445 78.91 446 85.45 446.4 92s.48 13.33.48 20c0 3.05-.53 6.11-.85 9.44-4.91-2.31-5.17-6.42-5.34-10.51-.32-7.83-.32-15.68-.92-23.49-.47-6-1.58-11.93-2.58-17.87-.38-2.31-1.34-4.54-1.81-6.85a13.62 13.62 0 01.16-3.47c3.5-2.74 5.14 2.4 8.94 1.42"></path>
        <path d="M107.45 55.29c3.85 0 7.69.32 11.44-.11 3-.33 5.89-1.54 8.8-2.45s5.8-2.08 8.77-2.82c1.71-.42 2.76.78 3.33 2.43s-.22 2.81-1.57 3.56c-3.82 2.08-7.6 4.23-11.54 6.07-5.39 2.52-16.53-.86-19.13-5.59a5.5 5.5 0 01-.1-1.1"></path>
        <path d="M175.27 72.59a37.39 37.39 0 003.86 1.25c5.16 1 7.31 4.41 8.84 9.23 1.78 5.6 1.55 11.11 1.32 16.74 0 .25.08.51.05.75-.12 1-.26 2.06-.39 3.1-1.2-.51-3-.69-3.49-1.59-1.61-2.94-3.53-6.08-3.77-9.26-.14-1.9.07-4.1 0-6.2-.09-2.72-1.54-4.62-2.89-6.74a68.86 68.86 0 01-3.52-7.28"></path>
        <path d="M108.56 65.34c4.63.65 8.61 1.48 12.63 1.69 2.6.14 5.26-.57 7.88-1 2.81-.44 5.59-1 8.4-1.44 1.48-.22 3-.15 3.38 1.75a3 3 0 01-2.15 3.8c-4.86 1.3-9.83 2.24-14.69 3.58-5.33 1.48-8.94-1.69-12.66-4.43-1.17-.86-1.78-2.49-2.78-4"></path>
        <path d="M111.25 82c3.05.12 6.14.3 9.23.34h11.62c.34 0 .74.12 1 0 3.33-1.72 6.59.6 9.9.17a4.29 4.29 0 012.2.47c1.87.87 2.13 3.28.26 3.85a35.33 35.33 0 01-8.6 1.17c-4.64.22-9.29.21-13.93.13a20.55 20.55 0 01-4.89-.89c-1.79-.49-3.47-1.42-5.27-1.74-2.06-.37-2.22-1.38-1.53-3.5"></path>
        <path d="M446.46 49.61c-6 3-11.79 3.79-16.85-4.06 2.92-1.58 5.32-1 7.76-.2a28.08 28.08 0 003.8.62 4.81 4.81 0 012.25.54 30.45 30.45 0 013.05 3.09"></path>
        <path d="M296.65 53.44a17.08 17.08 0 01-1.82 3.33 3.82 3.82 0 01-2.55 1.38c-.87 0-2.48-4.17-3.07-5.23l2.09-3.25 5.35 3.77"></path>
        <path d="M234.71 128.1c-.07-.41-.22-.81-.32-1.23-.78-3.11-1.53-6.24-2.34-9.34-2.48-9.46-5-18.92-7.52-28.36-1-3.62-2.14-7.2-3.31-11.08a12.9 12.9 0 003.3-.45 9 9 0 002.11-1.84c-.65-.65-1.2-1.57-2-1.9-1.05-.45-2.34-.35-3.45-.73-.67-.23-1.59-.86-1.7-1.44-1.39-7-4.42-13.24-7.25-19.67-2.32-5.26-6.51-7.85-11.17-10.1.19 3.1.54 5.93.47 8.76a56.4 56.4 0 01-.93 9.28c-.56 2.91.33 10.14-1.35 12.37l-6.41-.95c.06 2.94.61 3.59 3.56 3.83 2 .15 2.94 1 2.7 3-.26 2.26-.6 4.52-.68 6.79-.11 2.94-.39 6.06 1.89 8.37a4.09 4.09 0 003.3 1.17c.9-.26 1.75-1.7 2.07-2.78 1.23-4.19 2.29-8.43 3.3-12.67.42-1.77 1.65-2.54 3.1-2.26a5.16 5.16 0 013 2.11c.75 1.16.86 2.72 1.27 4.09q7 23 13.91 46.06c.48 1.6.87 3.84 3 3.3 1.93-.48 1.7-2.64 1.4-4.36m-27.1-60.18v-8.5a2.35 2.35 0 011.19-1.83c2.74 3.29 5.13 12.52 5.13 12.52-.45 1.18-6.32-2.19-6.32-2.19"></path>
    </g>
</svg>